<?xml version="1.0" standalone="no"?>
<!DOCTYPE svg PUBLIC "-//W3C//DTD SVG 1.1//EN" "http://www.w3.org/Graphics/SVG/1.1/DTD/svg11.dtd" >
<svg xmlns="http://www.w3.org/2000/svg">
<metadata></metadata>
<defs>
<font id="sstlight_italic" horiz-adv-x="1095" >
<font-face units-per-em="2048" ascent="1577" descent="-471" />
<missing-glyph horiz-adv-x="532" />
<glyph unicode="&#xfb01;" horiz-adv-x="1116" d="M119 987l22 94h234l18 86q36 175 142.5 256.5t322.5 81.5q139 0 275 -24l-27 -92q-123 22 -262 22q-157 0 -236 -59t-108 -201l-15 -70h580l-229 -1081h-115l209 987h-463l-209 -987h-111l209 987h-237z" />
<glyph unicode="&#xfb02;" horiz-adv-x="1116" d="M119 987l22 94h234l18 86q36 175 142.5 256.5t322.5 81.5q163 0 291 -28l-313 -1477h-115l297 1399q-76 12 -172 12q-159 0 -238 -59t-108 -201l-15 -70h279l-23 -94h-274l-209 -987h-111l209 987h-237z" />
<glyph unicode="&#xfb03;" horiz-adv-x="1712" d="M119 987l22 94h234l18 88q35 165 115 250.5t240 85.5q73 0 147 -20l-23 -88q-58 18 -124 18q-109 0 -165 -63t-83 -203l-15 -68h486l18 86q38 177 143.5 257.5t319.5 80.5q145 0 277 -24l-27 -92q-126 22 -264 22q-157 0 -235 -59t-107 -201l-15 -70h580l-229 -1081h-115 l209 987h-463l-209 -987h-111l209 987h-485l-207 -987h-113l209 987h-237z" />
<glyph unicode="&#xfb04;" horiz-adv-x="1712" d="M119 987l22 94h234l18 88q35 165 115 250.5t240 85.5q73 0 147 -20l-23 -88q-58 18 -124 18q-109 0 -165 -63t-83 -203l-15 -68h486l18 86q38 176 143.5 257t319.5 81q162 0 293 -28l-313 -1477h-115l297 1399q-76 12 -174 12q-157 0 -236 -59t-108 -201l-15 -70h277 l-21 -94h-274l-209 -987h-111l209 987h-485l-207 -987h-113l209 987h-237z" />
<glyph horiz-adv-x="2048" />
<glyph horiz-adv-x="2048" />
<glyph horiz-adv-x="682" />
<glyph unicode="&#xd;" horiz-adv-x="0" />
<glyph unicode=" "  horiz-adv-x="532" />
<glyph unicode="&#x09;" horiz-adv-x="532" />
<glyph unicode="&#xa0;" horiz-adv-x="532" />
<glyph unicode="!" horiz-adv-x="624" d="M150 0l32 160h146l-33 -160h-145zM256 383l205 1079h137l-254 -1079h-88z" />
<glyph unicode="&#x22;" horiz-adv-x="745" d="M334 1049l72 456h129l-127 -456h-74zM598 1049l72 456h125l-123 -456h-74z" />
<glyph unicode="#" horiz-adv-x="1136" d="M74 453l20 88h230l135 383h-234l21 88h243l158 450h92l-157 -450h319l158 450h90l-158 -450h197l-19 -88h-208l-134 -383h205l-20 -88h-215l-158 -453h-92l158 453h-320l-158 -453h-92l158 453h-219zM416 541h321l133 383h-319z" />
<glyph unicode="$" horiz-adv-x="1067" d="M82 96l33 94q144 -70 309 -77l127 602q-132 95 -191 175.5t-59 190.5q0 86 34 154t92 110t128 65t150 28l36 166h90l-34 -168q136 -6 245 -52l-30 -94q-118 48 -236 51l-121 -567q132 -98 193 -183t61 -200q0 -174 -116 -268.5t-299 -104.5l-37 -178h-90l36 178 q-80 5 -168.5 26t-152.5 52zM412 1090q0 -75 38.5 -132.5t127.5 -126.5l106 508q-118 -12 -195 -74t-77 -175zM516 119q128 11 204.5 78t76.5 184q0 80 -39.5 144t-126.5 134z" />
<glyph unicode="%" horiz-adv-x="1556" d="M182 0l1225 1462h92l-1223 -1462h-94zM262 983q0 82 19 162.5t57 154t105.5 119t154.5 45.5q103 0 159 -66.5t56 -180.5q0 -82 -19 -163t-57.5 -154t-106 -118t-153.5 -45q-101 0 -158 67t-57 179zM356 985q0 -75 32 -120.5t95 -45.5q61 0 109 40t74 102t39.5 127 t13.5 126q0 76 -32 122t-97 46q-61 0 -108.5 -41t-73.5 -104t-39 -128t-13 -124zM868 236q0 82 19 162.5t57 154t105.5 119t154.5 45.5q102 0 158.5 -67.5t56.5 -182.5q0 -81 -19 -161.5t-57.5 -153t-106 -117.5t-153.5 -45q-101 0 -158 67t-57 179zM963 238 q0 -75 32 -120.5t95 -45.5q61 0 108.5 40t74 102t39.5 127t13 126q0 75 -32.5 121.5t-96.5 46.5q-61 0 -108.5 -41t-73 -104t-38.5 -128t-13 -124z" />
<glyph unicode="&#x26;" horiz-adv-x="1392" d="M117 334q0 76 23.5 141.5t61.5 113.5t97.5 90.5t120 72.5t139.5 61q-115 164 -115 297q0 92 31 165.5t84 119t121.5 69t146.5 23.5q140 0 225 -80.5t85 -204.5q0 -67 -21.5 -124t-57 -99t-92.5 -81t-116 -67t-139 -59l262 -383q46 61 111 169.5t110 195.5h127 q-180 -312 -285 -443l215 -311h-139l-149 221q-109 -127 -217 -186.5t-250 -59.5q-166 0 -272.5 98.5t-106.5 260.5zM236 336q0 -117 75.5 -190.5t196.5 -73.5q219 0 393 231l-293 432q-188 -72 -280 -162t-92 -237zM557 1116q0 -118 102 -266q63 22 107.5 41t97.5 50.5 t85.5 66t54.5 84t22 108.5q0 83 -55.5 138t-151.5 55q-116 0 -189 -75.5t-73 -201.5z" />
<glyph unicode="'" horiz-adv-x="495" d="M334 1049l72 456h129l-127 -456h-74z" />
<glyph unicode="(" horiz-adv-x="634" d="M92 182q0 407 143 791.5t377 658.5h109q-248 -299 -387 -681.5t-139 -772.5q0 -327 104 -577h-104q-103 260 -103 581z" />
<glyph unicode=")" horiz-adv-x="634" d="M-12 -399q250 298 389 680t139 774q0 327 -104 577h104q102 -258 102 -581q0 -407 -143 -791.5t-377 -658.5h-110z" />
<glyph unicode="*" horiz-adv-x="845" d="M217 1182l29 78l280 -89v287h80v-287l283 89l26 -78l-278 -88l182 -258l-65 -50l-189 263l-184 -263l-68 50l183 258z" />
<glyph unicode="+" d="M137 600v90h410v420h94v-420h410v-90h-410v-436h-94v436h-410z" />
<glyph unicode="," horiz-adv-x="540" d="M-6 -299l196 473h132l-250 -473h-78z" />
<glyph unicode="-" horiz-adv-x="778" d="M176 567l21 99h475l-21 -99h-475z" />
<glyph unicode="." horiz-adv-x="540" d="M111 0l34 166h152l-33 -166h-153z" />
<glyph unicode="/" horiz-adv-x="1009" d="M6 0l1006 1462h118l-1005 -1462h-119z" />
<glyph unicode="0" horiz-adv-x="1245" d="M139 446q0 87 11.5 181.5t36.5 196.5t62.5 196.5t93 180t123.5 149t159 100.5t194 37q195 0 295 -127.5t100 -347.5q0 -88 -11.5 -183t-36.5 -197t-62 -196t-92.5 -178.5t-122.5 -147t-156 -99t-190 -36.5q-106 0 -184.5 34t-126 97.5t-70.5 148t-23 191.5zM258 455 q0 -176 70.5 -277.5t220.5 -101.5q81 0 153.5 34t127 91.5t100 134.5t76 161.5t52 175t31 173t9.5 155.5q0 180 -70 282.5t-217 102.5q-95 0 -178 -45t-142 -121.5t-105 -172t-73 -201.5t-41 -204.5t-14 -186.5z" />
<glyph unicode="1" horiz-adv-x="765" d="M199 1225l407 237h135l-309 -1462h-119l285 1346l-356 -213z" />
<glyph unicode="2" horiz-adv-x="1077" d="M-2 0l20 109q203 157 338 266t247.5 208.5t176 168.5t108 137t60 124t15.5 120q0 118 -74.5 184.5t-204.5 66.5q-80 0 -173 -27.5t-179 -78.5l-31 88q180 121 389 121q185 0 288 -96t103 -250q0 -78 -19.5 -147t-76.5 -149.5t-114.5 -145.5t-182 -172.5t-226.5 -190 t-298 -236.5h754l-23 -100h-897z" />
<glyph unicode="3" horiz-adv-x="1081" d="M16 61l41 101q150 -86 351 -86q85 0 159.5 20t136 60.5t97 111t35.5 162.5q0 94 -54.5 157.5t-139.5 90.5t-196 27h-131l23 100h129q99 0 182 19.5t150 59.5t105 109t38 160q0 112 -76 172.5t-204 60.5q-176 0 -330 -75l-23 94q168 82 365 82q175 0 280 -86t105 -242 q0 -167 -102.5 -269t-276.5 -136v-4q128 -23 200 -108t72 -206q0 -115 -42 -204.5t-116.5 -144.5t-170 -83.5t-207.5 -28.5q-113 0 -218.5 23t-181.5 63z" />
<glyph unicode="4" horiz-adv-x="1165" d="M45 373l27 127l841 962h185l-211 -987h215l-21 -102h-215l-78 -373h-116l78 373h-705zM182 475h590l189 887h-5z" />
<glyph unicode="5" horiz-adv-x="1097" d="M31 53l35 101q150 -78 344 -78q208 0 334 105t126 302q0 151 -102.5 229.5t-265.5 78.5q-133 0 -283 -31l178 702h705l-23 -100h-598l-127 -490q95 17 183 17q94 0 174.5 -24.5t142.5 -72t97.5 -124t35.5 -174.5q0 -247 -158 -383t-419 -136q-223 0 -379 78z" />
<glyph unicode="6" horiz-adv-x="1171" d="M139 426q0 93 14.5 193t46 203.5t76 200t108.5 181t140.5 147.5t175 99.5t207.5 36.5q137 0 242 -45l-35 -96q-83 38 -209 38q-99 0 -187.5 -38t-155.5 -101.5t-122 -149t-91 -176.5t-58 -188h4q62 96 166.5 152.5t226.5 56.5q99 0 175.5 -32.5t121.5 -88.5t67.5 -124.5 t22.5 -147.5q0 -115 -35.5 -217.5t-100.5 -182t-166.5 -126t-225.5 -46.5q-108 0 -189 37t-127.5 101.5t-69 143t-22.5 169.5zM254 426q0 -50 8 -96t29.5 -93.5t54 -82t86 -56.5t121.5 -22q127 0 221 64t140.5 167t46.5 228q0 61 -16.5 114.5t-49.5 97.5t-90 69.5t-131 25.5 q-111 0 -207.5 -55t-154.5 -151t-58 -210z" />
<glyph unicode="7" horiz-adv-x="1009" d="M229 0q96 310 311.5 689.5t469.5 672.5h-742l23 100h870l-22 -102q-276 -312 -484 -679.5t-307 -680.5h-119z" />
<glyph unicode="8" horiz-adv-x="1189" d="M84 348q0 91 34.5 167t93 127t128 83.5t145.5 46.5v4q-95 33 -153 110t-58 181q0 99 42 180t112 132.5t158 79.5t184 28q83 0 156 -21t132 -62.5t93.5 -109.5t34.5 -155q0 -89 -31 -159.5t-83.5 -114.5t-110 -70t-123.5 -39v-4q108 -34 182 -120.5t74 -213.5 q0 -93 -32 -169t-85.5 -126t-125.5 -84t-149.5 -49t-160.5 -15q-197 0 -327 96.5t-130 276.5zM203 360q0 -91 48 -156.5t124.5 -96.5t169.5 -31q84 0 158.5 19.5t136.5 59t98.5 107t36.5 154.5q0 90 -52 158.5t-127.5 101.5t-158.5 33q-79 0 -154 -21t-138.5 -62 t-102.5 -110t-39 -156zM391 1071q0 -123 83.5 -192.5t203.5 -69.5q51 0 102.5 10t103.5 34.5t92 60t65.5 91t25.5 123.5q0 116 -85 187t-220 71q-163 0 -267 -85.5t-104 -229.5z" />
<glyph unicode="9" horiz-adv-x="1171" d="M133 18l35 97q88 -39 211 -39q103 0 192.5 37.5t155.5 100t119.5 148.5t88 176.5t56.5 190.5h-4q-62 -96 -166.5 -152.5t-226.5 -56.5q-99 0 -175.5 32.5t-121.5 88.5t-67.5 124.5t-22.5 147.5q0 115 35.5 218t100.5 182.5t166.5 126.5t225.5 47q108 0 189.5 -37.5 t128.5 -102.5t69.5 -143.5t22.5 -169.5q0 -110 -20 -227t-58.5 -236.5t-103 -226t-146.5 -189.5t-195.5 -131.5t-244.5 -48.5q-137 0 -244 43zM322 926q0 -61 16.5 -114.5t49.5 -97.5t89.5 -70t130.5 -26q168 0 294 120.5t126 297.5q0 50 -8 96t-29.5 93t-54 81.5t-86 56 t-121.5 21.5q-127 0 -221 -63.5t-140 -166t-46 -228.5z" />
<glyph unicode=":" horiz-adv-x="655" d="M164 0l35 166h149l-35 -166h-149zM358 915l35 166h150l-37 -166h-148z" />
<glyph unicode=";" horiz-adv-x="655" d="M23 -299l196 473h131l-250 -473h-77zM358 915l35 166h150l-37 -166h-148z" />
<glyph unicode="&#x3c;" d="M137 573v129l914 342v-98l-824 -303v-4l824 -309v-97z" />
<glyph unicode="=" d="M137 418v90h914v-90h-914zM137 784v90h914v-90h-914z" />
<glyph unicode="&#x3e;" d="M137 233v97l821 309v4l-821 303v98l914 -342v-129z" />
<glyph unicode="?" horiz-adv-x="917" d="M238 0l32 160h152l-33 -160h-151zM326 332l10 53q26 138 80.5 227.5t158.5 165.5l95 70q55 40 88.5 69.5t66.5 69.5t48.5 86t15.5 101q0 103 -72.5 156.5t-181.5 53.5q-150 0 -289 -63l-18 92q154 74 325 74q153 0 252 -80.5t99 -237.5q0 -59 -16 -110t-37.5 -87 t-65.5 -77.5t-76 -66t-94 -68.5q-131 -93 -188.5 -169t-84.5 -202l-12 -57h-104z" />
<glyph unicode="@" horiz-adv-x="1923" d="M109 381q0 236 78 440.5t216 351t335.5 230.5t428.5 84q153 0 284.5 -48t225 -133.5t146.5 -210.5t53 -274q0 -102 -21.5 -205t-66.5 -200.5t-108.5 -173t-155 -121t-197.5 -45.5q-91 0 -139.5 43.5t-48.5 111.5q0 20 4 56h-4q-41 -77 -132 -144t-202 -67 q-127 0 -188.5 80.5t-61.5 210.5q0 80 22.5 172t69 183t109 165t151 120t187.5 46q113 0 171.5 -60t63.5 -155h4l74 180h100l-227 -555q-45 -112 -45 -182q0 -109 115 -109q113 0 208 87t150 236t55 324q0 258 -167.5 414t-438.5 156q-206 0 -382 -78.5t-296 -213.5 t-188 -319.5t-68 -392.5q0 -142 47 -262t135 -208.5t223.5 -138.5t303.5 -50q281 0 508 100l6 -94q-238 -105 -524 -105q-194 0 -350 59t-256 162t-153.5 239.5t-53.5 293.5zM666 381q0 -209 165 -209q87 0 162.5 53t122.5 129.5t81 163.5t48.5 153t14.5 101q0 82 -42.5 133 t-132.5 51q-91 0 -172.5 -59.5t-133.5 -148t-82.5 -186.5t-30.5 -181z" />
<glyph unicode="A" horiz-adv-x="1261" d="M-84 0l881 1462h161l193 -1462h-123l-59 465h-643l-279 -465h-131zM379 567h579l-96 805z" />
<glyph unicode="B" horiz-adv-x="1232" d="M104 0l310 1462h411q181 0 287.5 -78.5t106.5 -240.5q0 -169 -94 -264t-253 -125v-4q116 -21 186 -101t70 -200q0 -204 -148.5 -326.5t-401.5 -122.5h-474zM242 100h338q91 0 167.5 19.5t136.5 59t94 107.5t34 158q0 128 -91.5 194.5t-244.5 66.5h-307zM389 805h309 q185 0 294.5 81t109.5 244q0 51 -16.5 91t-45 66t-69 43t-85.5 24.5t-98 7.5h-280z" />
<glyph unicode="C" horiz-adv-x="1163" d="M166 557q0 116 24.5 229.5t71 217t117.5 192t159.5 153.5t203 101.5t241.5 36.5q162 0 279 -47l-35 -97q-111 43 -252 43q-130 0 -242.5 -47.5t-193.5 -128t-139 -186t-86.5 -223.5t-28.5 -238q0 -83 16 -154.5t52 -133.5t89 -105.5t131 -68.5t175 -25q135 0 266 43v-101 q-130 -43 -289 -43q-115 0 -208 29.5t-158 82.5t-108.5 126.5t-64 159.5t-20.5 184z" />
<glyph unicode="D" horiz-adv-x="1396" d="M104 0l310 1462h319q303 0 453.5 -150.5t150.5 -416.5q0 -193 -59.5 -356.5t-170.5 -283.5t-280 -187.5t-378 -67.5h-345zM242 100h207q184 0 331 59t243 164t147 248t51 312q0 109 -29 194.5t-90.5 150.5t-163.5 99.5t-240 34.5h-190z" />
<glyph unicode="E" horiz-adv-x="1060" d="M104 0l310 1462h702l-20 -100h-588l-119 -557h569l-20 -100h-569l-127 -605h643l-23 -100h-758z" />
<glyph unicode="F" horiz-adv-x="993" d="M104 0l310 1462h712l-22 -100h-596l-119 -557h561l-20 -100h-561l-150 -705h-115z" />
<glyph unicode="G" horiz-adv-x="1417" d="M168 584q0 144 35 277.5t105.5 247t169 198t232.5 132.5t289 48q202 0 349 -64l-41 -102q-133 65 -314 65q-133 0 -248 -42.5t-198.5 -117t-143 -175t-89 -218.5t-29.5 -245q0 -106 31.5 -198t92 -162.5t157.5 -111t220 -40.5q164 0 283 51l115 539h-338l20 100h455 l-152 -711q-175 -80 -387 -80q-154 0 -274 48.5t-193 133t-110 192.5t-37 235z" />
<glyph unicode="H" horiz-adv-x="1368" d="M104 0l310 1462h114l-139 -657h746l139 657h115l-310 -1462h-114l149 705h-745l-150 -705h-115z" />
<glyph unicode="I" horiz-adv-x="507" d="M104 0l310 1462h114l-309 -1462h-115z" />
<glyph unicode="J" horiz-adv-x="632" d="M-66 -12l17 102q55 -14 121 -14q100 0 155 51t78 162l248 1173h115l-250 -1179q-15 -72 -38 -124.5t-62.5 -96t-101 -65.5t-144.5 -22q-75 0 -138 13z" />
<glyph unicode="K" horiz-adv-x="1134" d="M104 0l310 1462h114l-145 -684h4l743 684h160l-790 -708l544 -754h-141l-524 735h-4l-156 -735h-115z" />
<glyph unicode="L" horiz-adv-x="921" d="M104 0l310 1462h114l-286 -1362h600l-23 -100h-715z" />
<glyph unicode="M" horiz-adv-x="1728" d="M104 0l310 1462h200l170 -1351h4l762 1351h201l-309 -1462h-115l291 1370h-4l-770 -1370h-156l-178 1370h-4l-291 -1370h-111z" />
<glyph unicode="N" horiz-adv-x="1398" d="M104 0l310 1462h174l430 -1339h4l285 1339h112l-309 -1462h-170l-434 1343h-4l-285 -1343h-113z" />
<glyph unicode="O" horiz-adv-x="1486" d="M166 518q0 147 32.5 288t97.5 264.5t155 216.5t213 146.5t264 53.5q249 0 377.5 -146.5t128.5 -392.5q0 -133 -28 -267t-89 -262t-148 -226t-214.5 -158t-278.5 -60q-248 0 -379 148t-131 395zM283 532q0 -99 24.5 -181t72.5 -144t125.5 -96.5t178.5 -34.5 q103 0 194.5 36.5t159.5 100t122 147t88 179t51.5 195t17.5 196.5q0 204 -100.5 330t-298.5 126q-113 0 -214 -46.5t-177 -128.5t-131.5 -189.5t-84 -233t-28.5 -256.5z" />
<glyph unicode="P" horiz-adv-x="1200" d="M104 0l310 1462h391q185 0 304.5 -88t119.5 -260q0 -120 -45.5 -212t-125.5 -147.5t-181.5 -83.5t-219.5 -28h-301l-137 -643h-115zM377 743h291q66 0 125.5 10t118.5 35.5t101 64.5t68.5 103t26.5 146q0 71 -27 123t-74.5 81t-105 42.5t-127.5 13.5h-266z" />
<glyph unicode="Q" horiz-adv-x="1486" d="M166 518q0 147 32.5 288t97.5 264.5t155 216.5t213 146.5t264 53.5q249 0 377.5 -146.5t128.5 -392.5q0 -167 -43 -331t-138.5 -312.5t-230.5 -230.5l225 -314h-147l-185 258q-111 -43 -239 -43q-248 0 -379 148t-131 395zM283 532q0 -99 24.5 -181t72.5 -144 t125.5 -96.5t178.5 -34.5q103 0 194.5 36.5t159.5 100t122 147t88 179t51.5 195t17.5 196.5q0 204 -100.5 330t-298.5 126q-113 0 -214 -46.5t-177 -128.5t-131.5 -189.5t-84 -233t-28.5 -256.5z" />
<glyph unicode="R" horiz-adv-x="1255" d="M104 0l310 1462h422q183 0 293 -83t110 -246q0 -174 -93 -272.5t-251 -129.5l-2 -4q60 -18 92 -64.5t47 -142.5q4 -25 36 -220.5t52 -299.5h-121q-9 55 -36.5 237.5t-42.5 264.5q-20 111 -72 148.5t-172 37.5h-309l-148 -688h-115zM387 788h311q201 0 311.5 82.5 t110.5 253.5q0 119 -81 178.5t-230 59.5h-301z" />
<glyph unicode="S" horiz-adv-x="1060" d="M47 66l35 100q83 -42 179 -66t181 -24q165 0 266 70.5t101 211.5q0 102 -61 181t-199 174q-69 47 -114 86.5t-81.5 86.5t-53.5 100t-17 118q0 100 40.5 176.5t109.5 120t149.5 65t169.5 21.5q172 0 317 -60l-31 -100q-130 59 -288 59q-66 0 -125.5 -14.5t-111.5 -45 t-83 -85.5t-31 -129q0 -49 12.5 -87.5t45 -76.5t70.5 -70t106 -81q77 -56 125.5 -98.5t89.5 -94t59.5 -108.5t18.5 -125q0 -82 -26 -149t-70.5 -112t-107 -76t-133 -45t-149.5 -14q-97 0 -205 24.5t-188 66.5z" />
<glyph unicode="T" horiz-adv-x="1013" d="M190 1362l21 100h985l-22 -100h-429l-286 -1362h-117l289 1362h-441z" />
<glyph unicode="U" horiz-adv-x="1372" d="M160 319q0 68 16 146l211 997h115l-209 -991q-14 -60 -14 -137q0 -126 86.5 -192t259.5 -66q113 0 195.5 26t135 78.5t83.5 118.5t51 158l213 1005h116l-215 -1013q-23 -111 -63.5 -193.5t-108.5 -148t-172.5 -99t-245.5 -33.5q-224 0 -339 89t-115 255z" />
<glyph unicode="V" horiz-adv-x="1157" d="M211 1462h125l127 -1351h4l774 1351h131l-850 -1462h-155z" />
<glyph unicode="W" horiz-adv-x="1869" d="M289 1462h121l22 -1351h4l623 1351h186l15 -1351h4l634 1351h127l-698 -1462h-174l-16 1368h-4l-633 -1368h-174z" />
<glyph unicode="X" horiz-adv-x="1198" d="M-68 0l666 766l-311 696h131l266 -614l526 614h146l-617 -708l338 -754h-133l-291 666l-577 -666h-144z" />
<glyph unicode="Y" horiz-adv-x="1089" d="M209 1462h127l246 -751l589 751h138l-688 -858l-127 -604h-115l127 604z" />
<glyph unicode="Z" horiz-adv-x="1148" d="M-4 0l20 102l1061 1260h-737l22 100h883l-22 -100l-1063 -1262h850l-23 -100h-991z" />
<glyph unicode="[" horiz-adv-x="634" d="M-10 -399l432 2031h317l-18 -82h-217l-398 -1867h218l-17 -82h-317z" />
<glyph unicode="\" horiz-adv-x="1009" d="M279 1462h104l483 -1462h-104z" />
<glyph unicode="]" horiz-adv-x="634" d="M-25 -399l19 82h217l397 1867h-217l17 82h317l-432 -2031h-318z" />
<glyph unicode="^" d="M213 612l332 813h112l334 -813h-121l-268 691h-4l-266 -691h-119z" />
<glyph unicode="_" horiz-adv-x="952" d="M-152 -274l17 71h950l-16 -71h-951z" />
<glyph unicode="`" horiz-adv-x="956" d="M444 1573h123l160 -336h-82z" />
<glyph unicode="a" horiz-adv-x="1085" d="M90 262q0 91 37 159.5t101.5 113t161.5 72.5t208 39t250 11q20 87 20 140q0 108 -66 161.5t-186 53.5q-132 0 -280 -45l-4 92q143 47 291 47q169 0 263.5 -76t94.5 -221q0 -58 -16 -133l-91 -418q-29 -136 -32 -258h-97q0 80 23 201h-4q-51 -100 -147 -163t-230 -63 q-131 0 -214 77t-83 210zM201 268q0 -91 58 -145.5t153 -54.5q316 0 403 432l14 69h-55q-573 0 -573 -301z" />
<glyph unicode="b" horiz-adv-x="1196" d="M90 0l322 1505h112l-135 -622h4q52 96 144.5 159.5t212.5 63.5q98 0 171 -37t113.5 -100.5t60 -136.5t19.5 -156q0 -142 -39 -269.5t-108 -223t-171 -152t-221 -56.5q-136 0 -218 66t-113 168h-4l-45 -209h-105zM297 389q0 -146 73.5 -232.5t207.5 -86.5q84 0 155 38.5 t119 100.5t82 142t49.5 162t15.5 161q0 69 -15 127.5t-46 107t-84.5 76t-124.5 27.5q-97 0 -180.5 -55.5t-137.5 -145.5t-84 -200t-30 -222z" />
<glyph unicode="c" horiz-adv-x="897" d="M127 414q0 107 26.5 209t78 189.5t123 153t167 103t203.5 37.5q120 0 205 -31l-31 -94q-79 31 -178 31q-108 0 -199.5 -50.5t-152 -133t-94 -188t-33.5 -216.5q0 -76 18.5 -139t55.5 -112.5t99.5 -77t145.5 -27.5q107 0 201 30v-90q-112 -33 -211 -33q-107 0 -189.5 34 t-133 95t-76 139t-25.5 171z" />
<glyph unicode="d" horiz-adv-x="1196" d="M129 406q0 141 40.5 269t111 223t172 151.5t217.5 56.5q128 0 209.5 -66t111.5 -168h4l135 633h113l-319 -1505h-105l43 190h-4q-56 -95 -146 -155t-208 -60q-97 0 -171 36t-117.5 98t-65 137t-21.5 160zM244 408q0 -68 16 -127.5t47.5 -107.5t84.5 -75.5t122 -27.5 q79 0 149 36t121.5 98t89 141.5t56 168.5t18.5 178q0 142 -73.5 231t-206.5 89q-84 0 -155.5 -38.5t-120 -100.5t-83 -142t-50 -162t-15.5 -161z" />
<glyph unicode="e" horiz-adv-x="1107" d="M131 410q0 106 24.5 207.5t73.5 189.5t116 155t157 105.5t192 38.5q177 0 267 -96.5t90 -264.5q0 -85 -33 -231h-766q-6 -37 -6 -96q0 -155 88 -252.5t266 -97.5q133 0 242 36v-90q-115 -39 -258 -39q-113 0 -200.5 33t-142 92.5t-82.5 137.5t-28 172zM266 610h664 q16 78 16 129q0 127 -64.5 200t-197.5 73q-82 0 -153.5 -33.5t-123 -90.5t-87 -127.5t-54.5 -150.5z" />
<glyph unicode="f" horiz-adv-x="628" d="M119 987l22 94h234l18 88q35 165 115 250.5t240 85.5q73 0 147 -20l-23 -88q-58 18 -124 18q-109 0 -165 -63t-83 -203l-15 -68h279l-23 -94h-274l-207 -987h-113l209 987h-237z" />
<glyph unicode="g" horiz-adv-x="1196" d="M100 -344l29 92q133 -53 285 -53q181 0 273.5 81.5t133.5 262.5l41 178h-4q-56 -89 -147.5 -146t-210.5 -57q-96 0 -169.5 35.5t-116.5 96.5t-64 135.5t-21 160.5q0 179 68 330.5t193 242.5t280 91q128 0 208.5 -65.5t110.5 -168.5h4l45 209h113l-223 -1050 q-47 -225 -173 -327.5t-345 -102.5q-74 0 -160 14.5t-150 40.5zM244 442q0 -68 15 -126t45.5 -105.5t83 -74.5t122.5 -27q99 0 182.5 49.5t137.5 131.5t84 186t30 216q0 146 -71.5 233t-204.5 87q-103 0 -187 -53.5t-134 -138.5t-76.5 -183t-26.5 -195z" />
<glyph unicode="h" horiz-adv-x="1175" d="M90 0l320 1505h114l-135 -626h4q58 107 155.5 167t209.5 60q151 0 231 -80.5t80 -212.5q0 -65 -16 -147l-140 -666h-114l139 657q18 81 18 144q0 93 -55.5 152t-167.5 59q-141 0 -251 -106t-150 -300l-127 -606h-115z" />
<glyph unicode="i" horiz-adv-x="483" d="M90 0l229 1081h115l-229 -1081h-115zM365 1348l30 141h129l-30 -141h-129z" />
<glyph unicode="j" horiz-adv-x="483" d="M-236 -391l17 92q40 -6 82 -6q100 0 145.5 57t71.5 176l246 1153h114l-247 -1169q-16 -78 -39 -132t-60.5 -96t-94.5 -62.5t-136 -20.5q-52 0 -99 8zM371 1348l30 141h129l-30 -141h-129z" />
<glyph unicode="k" horiz-adv-x="933" d="M90 0l320 1505h114l-190 -893h4l541 469h151l-584 -495l420 -586h-135l-401 573h-4l-121 -573h-115z" />
<glyph unicode="l" horiz-adv-x="485" d="M90 0l320 1505h114l-319 -1505h-115z" />
<glyph unicode="m" horiz-adv-x="1837" d="M90 0l229 1081h111l-45 -204h4q59 111 155 170t210 59q126 0 201.5 -65t80.5 -167h6q64 114 164.5 173t214.5 59q150 0 230 -79t80 -216q0 -51 -19 -152l-137 -659h-113l137 657q19 85 19 144q0 94 -54.5 152.5t-164.5 58.5q-128 0 -232 -92t-137 -248l-141 -672h-113 l144 672q18 88 18 131q0 97 -52.5 153t-158.5 56q-136 0 -245 -106t-148 -292l-129 -614h-115z" />
<glyph unicode="n" horiz-adv-x="1175" d="M90 0l229 1081h111l-45 -204h4q57 107 156 168t215 61q149 0 229 -79.5t80 -213.5q0 -59 -18 -154l-138 -659h-114l139 657q18 81 18 146q0 91 -54.5 150t-162.5 59q-146 0 -257 -108.5t-150 -297.5l-127 -606h-115z" />
<glyph unicode="o" horiz-adv-x="1171" d="M129 397q0 192 68 353t196.5 258.5t290.5 97.5q194 0 296.5 -112.5t102.5 -301.5q0 -91 -19.5 -186.5t-64 -191.5t-108 -170.5t-159.5 -121.5t-210 -47q-194 0 -293.5 115.5t-99.5 306.5zM244 403q0 -148 69.5 -240.5t212.5 -92.5q73 0 137.5 28t112 76t85.5 110 t61 131.5t35 138t12 132.5q0 148 -71.5 237t-215.5 89q-84 0 -156 -34.5t-123 -93.5t-87.5 -137.5t-54 -165.5t-17.5 -178z" />
<glyph unicode="p" horiz-adv-x="1196" d="M4 -399l315 1480h113l-43 -198h4q52 95 144.5 159t210.5 64q79 0 142 -24.5t104.5 -65.5t69 -97t39 -116.5t11.5 -126.5q0 -190 -66 -349t-190.5 -255.5t-282.5 -96.5q-136 0 -216.5 65.5t-108.5 166.5h-4l-129 -606h-113zM295 389q0 -145 74.5 -232t208.5 -87 q83 0 154 38.5t119.5 100.5t82.5 142t49.5 162t15.5 161q0 54 -9.5 102.5t-30.5 92t-51.5 75t-76.5 50t-102 18.5q-79 0 -149 -36.5t-121.5 -98t-89 -141.5t-56 -169t-18.5 -178z" />
<glyph unicode="q" horiz-adv-x="1185" d="M129 406q0 141 40.5 269t111 223t172 151.5t217.5 56.5q132 0 214.5 -65.5t112.5 -168.5h4l46 209h106l-315 -1480h-109l129 581h-4q-125 -207 -350 -207q-96 0 -170 36t-117.5 97.5t-65.5 136.5t-22 161zM244 408q0 -68 16 -127.5t47.5 -107.5t84.5 -75.5t122 -27.5 q79 0 149 36t121.5 98t89 141.5t56 168.5t18.5 178q0 146 -73 233t-207 87q-84 0 -155.5 -38.5t-120 -100.5t-83 -142t-50 -162t-15.5 -161z" />
<glyph unicode="r" horiz-adv-x="694" d="M90 0l229 1081h111l-43 -194h4q48 100 135 159.5t201 59.5q48 0 78 -6l-23 -94q-30 6 -75 6q-136 0 -235.5 -107t-137.5 -291l-129 -614h-115z" />
<glyph unicode="s" horiz-adv-x="825" d="M-4 49l35 92q145 -71 288 -71q124 0 196.5 46.5t72.5 143.5q0 76 -48 133t-149 125q-110 75 -161.5 140t-51.5 159q0 75 32.5 132.5t86.5 90.5t117.5 49.5t132.5 16.5q141 0 262 -51l-31 -92q-113 49 -231 49q-48 0 -91.5 -9.5t-82.5 -29.5t-62.5 -58.5t-23.5 -91.5 q0 -66 41.5 -114.5t132.5 -110.5q115 -77 175 -153.5t60 -174.5q0 -78 -29 -136.5t-81.5 -92t-119 -50t-147.5 -16.5q-77 0 -166.5 20.5t-156.5 53.5z" />
<glyph unicode="t" horiz-adv-x="655" d="M131 987l23 94h208l56 267h112l-55 -267h258l-22 -94h-258l-150 -715q-14 -60 -14 -98q0 -50 31.5 -71t99.5 -21q69 0 127 8l-17 -90q-66 -12 -153 -12q-201 0 -201 166q0 48 17 125l149 708h-211z" />
<glyph unicode="u" horiz-adv-x="1175" d="M143 268q0 53 19 154l137 659h115l-140 -657q-18 -81 -18 -145q0 -92 52 -150.5t161 -58.5q147 0 260 108.5t152 296.5l127 606h112l-229 -1081h-109l45 205h-4q-59 -107 -158 -168.5t-214 -61.5q-150 0 -229 79.5t-79 213.5z" />
<glyph unicode="v" horiz-adv-x="970" d="M172 1081h115l63 -981h4l609 981h124l-688 -1081h-147z" />
<glyph unicode="w" horiz-adv-x="1595" d="M195 1081h114l8 -981h5l530 981h160l8 -981h4l537 981h127l-613 -1081h-155l-11 981h-4l-530 -981h-156z" />
<glyph unicode="x" horiz-adv-x="964" d="M-78 0l514 567l-239 514h127l200 -446l394 446h141l-479 -526l262 -555h-127l-223 483l-433 -483h-137z" />
<glyph unicode="y" horiz-adv-x="970" d="M10 -399l266 407l-102 1073h115l84 -940h4l586 940h129l-957 -1480h-125z" />
<glyph unicode="z" horiz-adv-x="958" d="M6 0l21 94l788 895h-577l20 92h717l-23 -92l-782 -895h643l-20 -94h-787z" />
<glyph unicode="{" horiz-adv-x="634" d="M61 578l19 84q104 13 146.5 68t72.5 200l94 438q30 141 93.5 202.5t170.5 61.5h111l-16 -82h-74q-86 0 -126.5 -44t-66.5 -167l-88 -413q-32 -153 -79 -215t-154 -90l-2 -5q64 -23 91.5 -64.5t27.5 -113.5q0 -54 -19 -147l-84 -397q-12 -56 -12 -93q0 -118 127 -118h61 l-18 -82h-68q-96 0 -149 47.5t-53 136.5q0 56 18 133l80 371q24 113 24 155q0 59 -29.5 91.5t-97.5 42.5z" />
<glyph unicode="|" horiz-adv-x="952" d="M473 -399v1904h94v-1904h-94z" />
<glyph unicode="}" horiz-adv-x="634" d="M-53 -399l16 82h74q86 0 126 44t66 167l88 413q32 153 79.5 215t154.5 90l2 4q-64 23 -91.5 65t-27.5 114q0 54 19 147l84 397q12 55 12 93q0 118 -127 118h-62l19 82h67q97 0 150 -48t53 -138q0 -54 -18 -131l-80 -371q-25 -118 -25 -156q0 -59 29.5 -91t97.5 -42 l-18 -84q-104 -13 -146.5 -68t-72.5 -200l-94 -438q-30 -140 -94 -202t-171 -62h-110z" />
<glyph unicode="~" d="M137 565v101q101 88 248 88q57 0 117.5 -20t103.5 -43.5t101 -43.5t112 -20q68 0 122.5 25t109.5 73v-100q-101 -88 -248 -88q-57 0 -117.5 20t-103.5 43.5t-101 43.5t-112 20q-68 0 -122 -25.5t-110 -73.5z" />
<glyph unicode="&#xa1;" horiz-adv-x="624" d="M72 -381l254 1079h88l-205 -1079h-137zM342 922l33 159h145l-33 -159h-145z" />
<glyph unicode="&#xa2;" horiz-adv-x="1009" d="M141 414q0 179 73 332t205 248t296 106l28 129h93l-27 -123q98 -3 176 -31l-33 -94q-76 29 -164 29l-198 -938q112 0 219 41v-95q-127 -43 -240 -43l-24 -112h-92l24 119q-113 15 -190 78t-111.5 152.5t-34.5 201.5zM258 418q0 -136 59.5 -228.5t182.5 -111.5l196 926 q-133 -16 -234 -103t-152.5 -213.5t-51.5 -269.5z" />
<glyph unicode="&#xa3;" horiz-adv-x="1204" d="M51 0l23 102h221l131 619h-213l18 84h211l58 264q19 91 54 163.5t89.5 131.5t136 91t183.5 32q145 0 237 -47l-37 -97q-84 43 -200 43q-145 0 -231 -89t-118 -238l-55 -254h328l-17 -84h-327l-131 -619h610l-21 -102h-950z" />
<glyph unicode="&#xa4;" horiz-adv-x="1091" d="M113 330l174 141q-35 56 -35 135q0 167 113 277l-136 172l80 59l135 -170q94 57 211 57q113 0 195 -69l174 143l61 -78l-172 -141q33 -64 33 -137q0 -165 -112 -277l135 -170l-80 -59l-135 168q-93 -55 -211 -55q-116 0 -195 67l-174 -141zM362 616q0 -82 53 -135 t138 -53q118 0 200.5 80.5t82.5 200.5q0 83 -52.5 136.5t-136.5 53.5q-121 0 -203 -81.5t-82 -201.5z" />
<glyph unicode="&#xa5;" horiz-adv-x="1177" d="M143 311l19 82h354l47 219h-354l18 82h328l-272 768h123l239 -735l549 735h129l-592 -768h326l-19 -82h-362l-47 -219h362l-18 -82h-361l-65 -311h-113l66 311h-357z" />
<glyph unicode="&#xa6;" horiz-adv-x="952" d="M473 352h94v-751h-94v751zM473 752v753h94v-753h-94z" />
<glyph unicode="&#xa7;" horiz-adv-x="1101" d="M96 -266l39 96q51 -23 126 -38t140 -15q129 0 211 53.5t82 155.5q0 66 -51.5 135t-183.5 168q-127 96 -181.5 174t-54.5 172q0 119 85 190.5t218 85.5q-71 68 -104 132t-33 135q0 146 104 227.5t281 81.5q71 0 144 -12.5t114 -30.5l-35 -94q-95 36 -225 36 q-123 0 -195.5 -50t-72.5 -154q0 -70 50 -134.5t169 -156.5q132 -104 183.5 -184.5t51.5 -174.5q0 -112 -82 -184t-212 -88q145 -137 145 -272q0 -78 -33.5 -139t-92 -98t-132.5 -56t-160 -19q-70 0 -155 16t-140 42zM334 647q0 -65 38 -123t140 -139l76 -57q118 8 189 56.5 t71 143.5q0 70 -40 128.5t-130 129.5l-78 60q-118 -5 -192 -55t-74 -144z" />
<glyph unicode="&#xa8;" horiz-adv-x="956" d="M416 1315l33 149h120l-32 -149h-121zM770 1315l33 149h121l-33 -149h-121z" />
<glyph unicode="&#xa9;" horiz-adv-x="1638" d="M137 729q0 156 57 295t155.5 239.5t238.5 159t299 58.5q212 0 383 -99.5t266.5 -271.5t95.5 -381q0 -155 -56 -293t-154 -237.5t-237 -158t-298 -58.5t-299 58.5t-238.5 158t-155.5 237.5t-57 293zM223 729q0 -185 85 -337.5t237.5 -241.5t341.5 -89q188 0 339.5 89 t235.5 241.5t84 337.5q0 186 -84 340t-235.5 244t-339.5 90q-189 0 -341.5 -90t-237.5 -244t-85 -340zM487 733q0 207 114.5 334t320.5 127q132 0 202 -37l-24 -86q-79 37 -170 37q-165 0 -250.5 -103.5t-85.5 -271.5q0 -164 86 -268.5t246 -104.5q108 0 190 37l21 -84 q-87 -41 -224 -41q-199 0 -312.5 127t-113.5 334z" />
<glyph unicode="&#xaa;" horiz-adv-x="692" d="M195 918q0 57 22 99.5t60 69.5t96 44t123.5 23.5t148.5 6.5q12 56 12 78q0 109 -135 109q-81 0 -182 -33l-2 78q107 34 199 34q104 0 160.5 -47t56.5 -137q0 -27 -11 -80l-53 -248q-20 -98 -20 -151h-90q0 44 12 102h-4q-32 -53 -86 -85.5t-119 -32.5q-84 0 -136 47.5 t-52 122.5zM291 928q0 -48 29 -76.5t79 -28.5q48 0 88.5 21t67 55.5t43 71t23.5 73.5l10 48h-25q-153 0 -234 -37.5t-81 -126.5z" />
<glyph unicode="&#xab;" horiz-adv-x="1042" d="M205 612l2 11l321 362h113l-330 -379l164 -370h-102zM553 612l2 11l324 362h112l-329 -379l163 -370h-102z" />
<glyph unicode="&#xac;" d="M137 811v90h914v-514h-90v424h-824z" />
<glyph unicode="&#xad;" horiz-adv-x="778" d="M176 567l21 99h475l-21 -99h-475z" />
<glyph unicode="&#xae;" horiz-adv-x="1030" d="M217 1075q0 181 123.5 304.5t310.5 123.5q186 0 307 -123t121 -305q0 -183 -121 -306.5t-307 -123.5q-188 0 -311 123.5t-123 306.5zM274 1075q0 -159 106.5 -268t270.5 -109q161 0 267 109t106 268q0 157 -106 265t-267 108q-164 0 -270.5 -108t-106.5 -265zM492 827 v498h178q155 0 155 -127q0 -96 -90 -123q48 -17 70 -90l49 -158h-70l-41 142q-13 46 -33 62t-75 16h-76v-220h-67zM559 1100h92q47 0 77 23t30 65q0 49 -26.5 66.5t-74.5 17.5h-98v-172z" />
<glyph unicode="&#xaf;" horiz-adv-x="956" d="M408 1339l18 88h506l-19 -88h-505z" />
<glyph unicode="&#xb0;" horiz-adv-x="747" d="M248 1217q0 114 79 191t195 77q111 0 188.5 -78.5t77.5 -192.5q0 -115 -78 -192.5t-192 -77.5t-192 78t-78 195zM324 1214q0 -85 55.5 -140.5t138.5 -55.5q84 0 139.5 56.5t55.5 142.5q0 83 -56 138.5t-139 55.5t-138.5 -56.5t-55.5 -140.5z" />
<glyph unicode="&#xb1;" d="M137 166v90h914v-90h-914zM137 735v90h410v332h94v-332h410v-90h-410v-332h-94v332h-410z" />
<glyph unicode="&#xb2;" horiz-adv-x="776" d="M207 877l16 92q233 177 348.5 280.5t158 168t42.5 130.5q0 61 -40.5 98t-108.5 37q-89 0 -215 -69l-25 78q121 77 254 77q108 0 171.5 -56t63.5 -152q0 -54 -18 -103t-50.5 -96t-100 -110t-144 -125.5t-205.5 -161.5v-2h424l-18 -86h-553z" />
<glyph unicode="&#xb3;" horiz-adv-x="776" d="M231 920l37 81q97 -53 207 -53q104 0 173 48.5t69 144.5q0 70 -53 108.5t-150 38.5h-104l16 82h102q102 0 176 49t74 137q0 61 -39.5 94t-109.5 33q-103 0 -211 -51l-21 80q120 57 242 57q113 0 176.5 -53t63.5 -145q0 -94 -54 -155t-147 -85v-4q66 -18 102.5 -68.5 t36.5 -117.5q0 -135 -93.5 -207t-248.5 -72q-141 0 -244 58z" />
<glyph unicode="&#xb4;" horiz-adv-x="956" d="M551 1237l270 336h129l-309 -336h-90z" />
<glyph unicode="&#xb5;" horiz-adv-x="1230" d="M4 -399l313 1480h115l-135 -639q-23 -108 -23 -161q0 -112 61 -161.5t152 -49.5q142 0 257 107t155 298l127 606h113l-172 -811q-17 -78 -17 -110q0 -78 78 -78q37 0 55 6l-16 -90q-33 -10 -78 -10q-143 0 -149 139q0 40 6 78h-4q-61 -112 -161 -171t-212 -59 q-98 0 -162.5 36.5t-79.5 86.5h-4l-106 -497h-113z" />
<glyph unicode="&#xb6;" horiz-adv-x="1112" d="M193 981q0 145 74.5 255.5t202.5 168t290 57.5h444l-360 -1702h-94l342 1622h-299l-344 -1622h-95l191 904q-162 0 -257 86t-95 231z" />
<glyph unicode="&#xb7;" horiz-adv-x="540" d="M213 539l37 163h153l-36 -163h-154z" />
<glyph unicode="&#xb8;" horiz-adv-x="956" d="M137 -424l10 66q52 -9 95 -9q159 0 159 107q0 72 -110 72q-39 0 -92 -9l80 213h71l-61 -147q20 4 55 4q64 0 103.5 -33.5t39.5 -95.5q0 -66 -37.5 -107.5t-89.5 -56t-120 -14.5q-51 0 -103 10z" />
<glyph unicode="&#xb9;" horiz-adv-x="776" d="M389 1608l262 147h103l-187 -878h-102l164 772l-203 -115z" />
<glyph unicode="&#xba;" horiz-adv-x="753" d="M217 1004q0 116 39.5 210.5t120.5 153.5t192 59q115 0 180.5 -68.5t65.5 -182.5q0 -80 -21.5 -153.5t-63 -135.5t-111 -99.5t-158.5 -37.5q-115 0 -179.5 69.5t-64.5 184.5zM317 1008q0 -81 39 -131t113 -50q60 0 108.5 32t77.5 83.5t44.5 112t15.5 121.5q0 79 -39 126.5 t-115 47.5q-77 0 -134 -52t-83.5 -128.5t-26.5 -161.5z" />
<glyph unicode="&#xbb;" horiz-adv-x="1042" d="M123 236l332 376l-164 373h102l168 -379l-2 -10l-323 -360h-113zM473 236l330 376l-164 373h102l170 -379l-2 -10l-323 -360h-113z" />
<glyph unicode="&#xbc;" horiz-adv-x="1808" d="M328 1315l262 147h102l-186 -878h-103l164 772l-202 -115zM348 0l1157 1462h97l-1158 -1462h-96zM1018 213l18 96l500 570h131l-125 -582h125l-18 -84h-123l-45 -213h-99l45 213h-409zM1133 297h313l98 471h-2z" />
<glyph unicode="&#xbd;" horiz-adv-x="1808" d="M328 1315l262 147h102l-186 -878h-103l164 772l-202 -115zM342 0l1157 1462h96l-1157 -1462h-96zM1040 0l17 92q232 177 348 280.5t158.5 168.5t42.5 131q0 61 -41 98t-109 37q-87 0 -215 -70l-24 78q123 78 253 78q108 0 172 -56.5t64 -152.5q0 -54 -18 -103t-50.5 -96 t-100 -110t-144 -125.5t-205.5 -161.5v-2h424l-19 -86h-553z" />
<glyph unicode="&#xbe;" horiz-adv-x="1808" d="M170 627l37 82q99 -54 207 -54q104 0 172.5 48.5t68.5 144.5q0 70 -52.5 108.5t-149.5 38.5h-105l17 82h102q102 0 176 49.5t74 137.5q0 61 -40 94t-110 33q-101 0 -211 -52l-20 80q122 58 242 58q113 0 176 -53.5t63 -145.5q0 -94 -54 -155t-147 -85v-4 q66 -18 103 -68.5t37 -117.5q0 -135 -93.5 -207t-248.5 -72q-141 0 -244 58zM369 0l1157 1462h96l-1157 -1462h-96zM1018 213l18 96l500 570h131l-125 -582h125l-18 -84h-123l-45 -213h-99l45 213h-409zM1133 297h313l98 471h-2z" />
<glyph unicode="&#xbf;" horiz-adv-x="917" d="M-47 -88q0 59 16 110t37.5 87t65 77.5t76.5 67t94 68.5q131 93 188 168t84 202l12 58h105l-10 -54q-26 -138 -81 -227t-159 -166l-94 -70q-55 -40 -88.5 -69.5t-66.5 -69.5t-48.5 -85.5t-15.5 -100.5q0 -103 72.5 -157t181.5 -54q149 0 288 63l19 -92q-154 -74 -326 -74 q-153 0 -251.5 80.5t-98.5 237.5zM535 922l32 159h152l-33 -159h-151z" />
<glyph unicode="&#xc0;" horiz-adv-x="1261" d="M-84 0l881 1462h161l193 -1462h-123l-59 465h-643l-279 -465h-131zM379 567h579l-96 805zM664 1851h129l172 -274h-86z" />
<glyph unicode="&#xc1;" horiz-adv-x="1261" d="M-84 0l881 1462h161l193 -1462h-123l-59 465h-643l-279 -465h-131zM379 567h579l-96 805zM840 1575l233 274h137l-278 -274h-92z" />
<glyph unicode="&#xc2;" horiz-adv-x="1261" d="M-84 0l881 1462h161l193 -1462h-123l-59 465h-643l-279 -465h-131zM379 567h579l-96 805zM586 1561l311 299h117l184 -299h-90l-160 227l-256 -227h-106z" />
<glyph unicode="&#xc3;" horiz-adv-x="1261" d="M-84 0l881 1462h161l193 -1462h-123l-59 465h-643l-279 -465h-131zM379 567h579l-96 805zM590 1597q22 105 72 165.5t131 60.5q74 0 157 -74q71 -68 119 -68q42 0 73.5 37.5t43.5 104.5h86q-22 -103 -74 -164.5t-133 -61.5q-43 0 -76 18t-78 58q-40 35 -66.5 50.5 t-53.5 15.5q-44 0 -73.5 -37t-41.5 -105h-86z" />
<glyph unicode="&#xc4;" horiz-adv-x="1261" d="M-84 0l881 1462h161l193 -1462h-123l-59 465h-643l-279 -465h-131zM379 567h579l-96 805zM682 1645l33 149h121l-33 -149h-121zM1036 1645l33 149h121l-33 -149h-121z" />
<glyph unicode="&#xc5;" horiz-adv-x="1261" d="M-84 0l881 1462h161l193 -1462h-123l-59 465h-643l-279 -465h-131zM379 567h579l-96 805zM739 1729q0 82 57 137t140 55q79 0 135.5 -57t56.5 -135q0 -82 -56 -138.5t-138 -56.5t-138.5 56.5t-56.5 138.5zM801 1729q0 -57 38.5 -95.5t94.5 -38.5q57 0 95 38.5t38 95.5 q0 55 -38.5 93t-94.5 38t-94.5 -38t-38.5 -93z" />
<glyph unicode="&#xc6;" horiz-adv-x="1722" d="M-84 0l1075 1462h787l-21 -100h-588l-118 -557h569l-21 -100h-569l-127 -605h643l-22 -100h-758l90 424h-498l-311 -424h-131zM432 526h445l180 844h-4z" />
<glyph unicode="&#xc7;" horiz-adv-x="1163" d="M166 557q0 116 24.5 229.5t71 217t117.5 192t159.5 153.5t203 101.5t241.5 36.5q162 0 279 -47l-35 -97q-111 43 -252 43q-130 0 -242.5 -47.5t-193.5 -128t-139 -186t-86.5 -223.5t-28.5 -238q0 -83 16 -154.5t52 -133.5t89 -105.5t131 -68.5t175 -25q135 0 266 43v-101 q-130 -43 -289 -43q-13 0 -76 5l-45 -111q20 4 55 4q64 0 104 -33.5t40 -95.5q0 -50 -21 -86t-57.5 -55.5t-78.5 -28t-91 -8.5q-50 0 -102 10l10 66q53 -9 94 -9q160 0 160 107q0 72 -111 72q-40 0 -92 -9l70 187q-209 40 -313.5 192.5t-104.5 374.5z" />
<glyph unicode="&#xc8;" horiz-adv-x="1060" d="M104 0l310 1462h702l-20 -100h-588l-119 -557h569l-20 -100h-569l-127 -605h643l-23 -100h-758zM561 1851h129l172 -274h-86z" />
<glyph unicode="&#xc9;" horiz-adv-x="1060" d="M104 0l310 1462h702l-20 -100h-588l-119 -557h569l-20 -100h-569l-127 -605h643l-23 -100h-758zM709 1575l233 274h137l-278 -274h-92z" />
<glyph unicode="&#xca;" horiz-adv-x="1060" d="M104 0l310 1462h702l-20 -100h-588l-119 -557h569l-20 -100h-569l-127 -605h643l-23 -100h-758zM477 1561l311 299h117l185 -299h-91l-159 227l-256 -227h-107z" />
<glyph unicode="&#xcb;" horiz-adv-x="1060" d="M104 0l310 1462h702l-20 -100h-588l-119 -557h569l-20 -100h-569l-127 -605h643l-23 -100h-758zM569 1645l33 149h121l-33 -149h-121zM924 1645l32 149h121l-33 -149h-120z" />
<glyph unicode="&#xcc;" horiz-adv-x="507" d="M104 0l310 1462h114l-309 -1462h-115zM248 1851h129l172 -274h-86z" />
<glyph unicode="&#xcd;" horiz-adv-x="507" d="M104 0l310 1462h114l-309 -1462h-115zM438 1575l234 274h137l-279 -274h-92z" />
<glyph unicode="&#xce;" horiz-adv-x="507" d="M104 0l310 1462h114l-309 -1462h-115zM180 1561l312 299h116l185 -299h-91l-159 227l-256 -227h-107z" />
<glyph unicode="&#xcf;" horiz-adv-x="507" d="M104 0l310 1462h114l-309 -1462h-115zM274 1645l33 149h121l-33 -149h-121zM629 1645l33 149h120l-32 -149h-121z" />
<glyph unicode="&#xd0;" horiz-adv-x="1396" d="M104 0l152 717h-152l17 76h151l142 669h319q303 0 453.5 -150.5t150.5 -416.5q0 -193 -59.5 -356.5t-170.5 -283.5t-280 -187.5t-378 -67.5h-345zM242 100h207q184 0 331 59t243 164t147 248t51 312q0 109 -29 194.5t-90.5 150.5t-163.5 99.5t-240 34.5h-190l-121 -569 h277l-17 -76h-276z" />
<glyph unicode="&#xd1;" horiz-adv-x="1398" d="M104 0l310 1462h174l430 -1339h4l285 1339h112l-309 -1462h-170l-434 1343h-4l-285 -1343h-113zM629 1597q47 226 202 226q75 0 158 -74q71 -68 119 -68q42 0 73.5 37.5t43.5 104.5h86q-22 -103 -74 -164.5t-133 -61.5q-43 0 -76 18t-78 58q-40 35 -66.5 50.5t-54.5 15.5 q-89 0 -114 -142h-86z" />
<glyph unicode="&#xd2;" horiz-adv-x="1486" d="M166 518q0 147 32.5 288t97.5 264.5t155 216.5t213 146.5t264 53.5q249 0 377.5 -146.5t128.5 -392.5q0 -133 -28 -267t-89 -262t-148 -226t-214.5 -158t-278.5 -60q-248 0 -379 148t-131 395zM283 532q0 -99 24.5 -181t72.5 -144t125.5 -96.5t178.5 -34.5 q103 0 194.5 36.5t159.5 100t122 147t88 179t51.5 195t17.5 196.5q0 204 -100.5 330t-298.5 126q-113 0 -214 -46.5t-177 -128.5t-131.5 -189.5t-84 -233t-28.5 -256.5zM770 1851h129l172 -274h-86z" />
<glyph unicode="&#xd3;" horiz-adv-x="1486" d="M166 518q0 147 32.5 288t97.5 264.5t155 216.5t213 146.5t264 53.5q249 0 377.5 -146.5t128.5 -392.5q0 -133 -28 -267t-89 -262t-148 -226t-214.5 -158t-278.5 -60q-248 0 -379 148t-131 395zM283 532q0 -99 24.5 -181t72.5 -144t125.5 -96.5t178.5 -34.5 q103 0 194.5 36.5t159.5 100t122 147t88 179t51.5 195t17.5 196.5q0 204 -100.5 330t-298.5 126q-113 0 -214 -46.5t-177 -128.5t-131.5 -189.5t-84 -233t-28.5 -256.5zM881 1575l233 274h137l-278 -274h-92z" />
<glyph unicode="&#xd4;" horiz-adv-x="1486" d="M166 518q0 147 32.5 288t97.5 264.5t155 216.5t213 146.5t264 53.5q249 0 377.5 -146.5t128.5 -392.5q0 -133 -28 -267t-89 -262t-148 -226t-214.5 -158t-278.5 -60q-248 0 -379 148t-131 395zM283 532q0 -99 24.5 -181t72.5 -144t125.5 -96.5t178.5 -34.5 q103 0 194.5 36.5t159.5 100t122 147t88 179t51.5 195t17.5 196.5q0 204 -100.5 330t-298.5 126q-113 0 -214 -46.5t-177 -128.5t-131.5 -189.5t-84 -233t-28.5 -256.5zM666 1561l311 299h117l184 -299h-90l-160 227l-256 -227h-106z" />
<glyph unicode="&#xd5;" horiz-adv-x="1486" d="M166 518q0 147 32.5 288t97.5 264.5t155 216.5t213 146.5t264 53.5q249 0 377.5 -146.5t128.5 -392.5q0 -133 -28 -267t-89 -262t-148 -226t-214.5 -158t-278.5 -60q-248 0 -379 148t-131 395zM283 532q0 -99 24.5 -181t72.5 -144t125.5 -96.5t178.5 -34.5 q103 0 194.5 36.5t159.5 100t122 147t88 179t51.5 195t17.5 196.5q0 204 -100.5 330t-298.5 126q-113 0 -214 -46.5t-177 -128.5t-131.5 -189.5t-84 -233t-28.5 -256.5zM668 1597q47 226 202 226q75 0 158 -74q71 -68 119 -68q42 0 73.5 37.5t43.5 104.5h86 q-22 -103 -74 -164.5t-133 -61.5q-43 0 -76 18t-78 58q-40 35 -66.5 50.5t-54.5 15.5q-89 0 -114 -142h-86z" />
<glyph unicode="&#xd6;" horiz-adv-x="1486" d="M166 518q0 147 32.5 288t97.5 264.5t155 216.5t213 146.5t264 53.5q249 0 377.5 -146.5t128.5 -392.5q0 -133 -28 -267t-89 -262t-148 -226t-214.5 -158t-278.5 -60q-248 0 -379 148t-131 395zM283 532q0 -99 24.5 -181t72.5 -144t125.5 -96.5t178.5 -34.5 q103 0 194.5 36.5t159.5 100t122 147t88 179t51.5 195t17.5 196.5q0 204 -100.5 330t-298.5 126q-113 0 -214 -46.5t-177 -128.5t-131.5 -189.5t-84 -233t-28.5 -256.5zM756 1645l32 149h121l-32 -149h-121zM1110 1645l33 149h121l-33 -149h-121z" />
<glyph unicode="&#xd7;" d="M133 236l393 395l-393 395l68 66l391 -396l393 396l68 -66l-396 -395l396 -395l-66 -66l-395 395l-393 -395z" />
<glyph unicode="&#xd8;" horiz-adv-x="1486" d="M51 27l182 184q-67 128 -67 307q0 147 32.5 288t97.5 264.5t155 216.5t213 146.5t264 53.5q263 0 395 -170l162 164l53 -56l-172 -174q68 -127 68 -303q0 -133 -28 -267t-89 -262t-148 -226t-214.5 -158t-278.5 -60q-266 0 -400 170l-170 -174zM283 532q0 -136 41 -229 l913 928q-102 155 -319 155q-113 0 -214 -46.5t-177 -128.5t-131.5 -189.5t-84 -233t-28.5 -256.5zM360 229q107 -153 324 -153q103 0 194.5 36.5t159.5 100t122 147t88 179t51.5 195t17.5 196.5q0 126 -41 229z" />
<glyph unicode="&#xd9;" horiz-adv-x="1372" d="M160 319q0 68 16 146l211 997h115l-209 -991q-14 -60 -14 -137q0 -126 86.5 -192t259.5 -66q113 0 195.5 26t135 78.5t83.5 118.5t51 158l213 1005h116l-215 -1013q-23 -111 -63.5 -193.5t-108.5 -148t-172.5 -99t-245.5 -33.5q-224 0 -339 89t-115 255zM698 1851h129 l172 -274h-86z" />
<glyph unicode="&#xda;" horiz-adv-x="1372" d="M160 319q0 68 16 146l211 997h115l-209 -991q-14 -60 -14 -137q0 -126 86.5 -192t259.5 -66q113 0 195.5 26t135 78.5t83.5 118.5t51 158l213 1005h116l-215 -1013q-23 -111 -63.5 -193.5t-108.5 -148t-172.5 -99t-245.5 -33.5q-224 0 -339 89t-115 255zM842 1575 l233 274h137l-278 -274h-92z" />
<glyph unicode="&#xdb;" horiz-adv-x="1372" d="M160 319q0 68 16 146l211 997h115l-209 -991q-14 -60 -14 -137q0 -126 86.5 -192t259.5 -66q113 0 195.5 26t135 78.5t83.5 118.5t51 158l213 1005h116l-215 -1013q-23 -111 -63.5 -193.5t-108.5 -148t-172.5 -99t-245.5 -33.5q-224 0 -339 89t-115 255zM614 1561 l312 299h116l185 -299h-90l-160 227l-256 -227h-107z" />
<glyph unicode="&#xdc;" horiz-adv-x="1372" d="M160 319q0 68 16 146l211 997h115l-209 -991q-14 -60 -14 -137q0 -126 86.5 -192t259.5 -66q113 0 195.5 26t135 78.5t83.5 118.5t51 158l213 1005h116l-215 -1013q-23 -111 -63.5 -193.5t-108.5 -148t-172.5 -99t-245.5 -33.5q-224 0 -339 89t-115 255zM705 1645l32 149 h121l-33 -149h-120zM1059 1645l33 149h120l-32 -149h-121z" />
<glyph unicode="&#xdd;" horiz-adv-x="1089" d="M209 1462h127l246 -751l589 751h138l-688 -858l-127 -604h-115l127 604zM674 1575l233 274h137l-278 -274h-92z" />
<glyph unicode="&#xde;" horiz-adv-x="1204" d="M104 0l310 1462h114l-55 -266h275q89 0 164 -21t133.5 -62t92 -109t33.5 -156q0 -120 -45.5 -212t-125.5 -147.5t-181 -83.5t-219 -28h-301l-80 -377h-115zM319 477h291q66 0 125.5 10t118.5 35.5t101.5 64.5t69 103t26.5 146q0 71 -27 123t-74.5 81t-105 42.5 t-127.5 13.5h-266z" />
<glyph unicode="&#xdf;" horiz-adv-x="1286" d="M90 0l211 993q56 265 190.5 388.5t352.5 123.5q177 0 281 -95t104 -255q0 -159 -100.5 -263.5t-274.5 -127.5v-4q138 -25 216.5 -115.5t78.5 -224.5q0 -207 -130 -326t-353 -119q-154 0 -256 45l32 91q100 -41 222 -41q172 0 271 91.5t99 254.5q0 60 -20 110.5 t-61.5 91.5t-111.5 64t-163 23l20 100q83 4 156 26t132 62.5t93.5 105.5t34.5 148q0 124 -78 191t-205 67q-163 0 -267.5 -101.5t-149.5 -318.5l-209 -985h-115z" />
<glyph unicode="&#xe0;" horiz-adv-x="1085" d="M90 262q0 91 37 159.5t101.5 113t161.5 72.5t208 39t250 11q20 87 20 140q0 108 -66 161.5t-186 53.5q-132 0 -280 -45l-4 92q143 47 291 47q169 0 263.5 -76t94.5 -221q0 -58 -16 -133l-91 -418q-29 -136 -32 -258h-97q0 80 23 201h-4q-51 -100 -147 -163t-230 -63 q-131 0 -214 77t-83 210zM201 268q0 -91 58 -145.5t153 -54.5q316 0 403 432l14 69h-55q-573 0 -573 -301zM506 1573h123l159 -336h-81z" />
<glyph unicode="&#xe1;" horiz-adv-x="1085" d="M90 262q0 91 37 159.5t101.5 113t161.5 72.5t208 39t250 11q20 87 20 140q0 108 -66 161.5t-186 53.5q-132 0 -280 -45l-4 92q143 47 291 47q169 0 263.5 -76t94.5 -221q0 -58 -16 -133l-91 -418q-29 -136 -32 -258h-97q0 80 23 201h-4q-51 -100 -147 -163t-230 -63 q-131 0 -214 77t-83 210zM201 268q0 -91 58 -145.5t153 -54.5q316 0 403 432l14 69h-55q-573 0 -573 -301zM604 1237l270 336h130l-310 -336h-90z" />
<glyph unicode="&#xe2;" horiz-adv-x="1085" d="M90 262q0 91 37 159.5t101.5 113t161.5 72.5t208 39t250 11q20 87 20 140q0 108 -66 161.5t-186 53.5q-132 0 -280 -45l-4 92q143 47 291 47q169 0 263.5 -76t94.5 -221q0 -58 -16 -133l-91 -418q-29 -136 -32 -258h-97q0 80 23 201h-4q-51 -100 -147 -163t-230 -63 q-131 0 -214 77t-83 210zM201 268q0 -91 58 -145.5t153 -54.5q316 0 403 432l14 69h-55q-573 0 -573 -301zM391 1237l316 336h116l181 -336h-93l-153 264l-262 -264h-105z" />
<glyph unicode="&#xe3;" horiz-adv-x="1085" d="M90 262q0 91 37 159.5t101.5 113t161.5 72.5t208 39t250 11q20 87 20 140q0 108 -66 161.5t-186 53.5q-132 0 -280 -45l-4 92q143 47 291 47q169 0 263.5 -76t94.5 -221q0 -58 -16 -133l-91 -418q-29 -136 -32 -258h-97q0 80 23 201h-4q-51 -100 -147 -163t-230 -63 q-131 0 -214 77t-83 210zM201 268q0 -91 58 -145.5t153 -54.5q316 0 403 432l14 69h-55q-573 0 -573 -301zM379 1284q21 104 73 164.5t136 60.5q42 0 76.5 -17t74.5 -54q71 -68 119 -68q43 0 74 36t43 103h86q-21 -104 -73 -164.5t-136 -60.5q-43 0 -75 17t-79 57 q-40 37 -65 52t-51 15q-89 0 -117 -141h-86z" />
<glyph unicode="&#xe4;" horiz-adv-x="1085" d="M90 262q0 91 37 159.5t101.5 113t161.5 72.5t208 39t250 11q20 87 20 140q0 108 -66 161.5t-186 53.5q-132 0 -280 -45l-4 92q143 47 291 47q169 0 263.5 -76t94.5 -221q0 -58 -16 -133l-91 -418q-29 -136 -32 -258h-97q0 80 23 201h-4q-51 -100 -147 -163t-230 -63 q-131 0 -214 77t-83 210zM201 268q0 -91 58 -145.5t153 -54.5q316 0 403 432l14 69h-55q-573 0 -573 -301zM475 1315l33 149h121l-33 -149h-121zM829 1315l33 149h121l-33 -149h-121z" />
<glyph unicode="&#xe5;" horiz-adv-x="1085" d="M90 262q0 91 37 159.5t101.5 113t161.5 72.5t208 39t250 11q20 87 20 140q0 108 -66 161.5t-186 53.5q-132 0 -280 -45l-4 92q143 47 291 47q169 0 263.5 -76t94.5 -221q0 -58 -16 -133l-91 -418q-29 -136 -32 -258h-97q0 80 23 201h-4q-51 -100 -147 -163t-230 -63 q-131 0 -214 77t-83 210zM201 268q0 -91 58 -145.5t153 -54.5q316 0 403 432l14 69h-55q-573 0 -573 -301zM545 1415q0 82 57 138.5t139 56.5q79 0 136 -57.5t57 -137.5q0 -81 -56.5 -137.5t-136.5 -56.5q-82 0 -139 56t-57 138zM606 1415q0 -56 39 -94.5t96 -38.5 q55 0 93 38.5t38 94.5q0 55 -39 94t-94 39t-94 -39t-39 -94z" />
<glyph unicode="&#xe6;" horiz-adv-x="1787" d="M90 256q0 86 33.5 150.5t95 108.5t156 71t208 39t259.5 12q24 98 24 160q0 108 -65 161.5t-185 53.5q-135 0 -280 -45l-4 92q143 47 293 47q291 0 338 -227h4q68 105 174 166t233 61q177 0 267 -95t90 -263q0 -78 -29 -209h-766q-12 -74 -12 -121q0 -155 88 -252.5 t266 -97.5q125 0 244 36v-90q-116 -39 -260 -39q-176 0 -280.5 78.5t-139.5 218.5h-4q-69 -152 -174.5 -224.5t-257.5 -72.5q-143 0 -229.5 76.5t-86.5 204.5zM201 262q0 -88 59.5 -141t159.5 -53q305 0 385 395l18 86h-49q-573 0 -573 -287zM952 635h662q12 58 12 104 q0 128 -64.5 200.5t-197.5 72.5q-81 0 -151 -32t-120 -86.5t-85 -119.5t-56 -139z" />
<glyph unicode="&#xe7;" horiz-adv-x="897" d="M127 414q0 107 26.5 209t78 189.5t123 153t167 103t203.5 37.5q120 0 205 -31l-31 -94q-79 31 -178 31q-108 0 -199.5 -50.5t-152 -133t-94 -188t-33.5 -216.5q0 -76 18.5 -139t55.5 -112.5t99.5 -77t145.5 -27.5q107 0 201 30v-90q-112 -33 -211 -33q-34 0 -68 5 l-45 -111q20 4 56 4q64 0 103.5 -33.5t39.5 -95.5q0 -50 -21 -86t-57.5 -55.5t-78.5 -28t-91 -8.5q-50 0 -102 10l10 66q53 -9 94 -9q160 0 160 107q0 72 -111 72q-40 0 -92 -9l70 189q-145 35 -218 148.5t-73 273.5z" />
<glyph unicode="&#xe8;" horiz-adv-x="1107" d="M131 410q0 106 24.5 207.5t73.5 189.5t116 155t157 105.5t192 38.5q177 0 267 -96.5t90 -264.5q0 -85 -33 -231h-766q-6 -37 -6 -96q0 -155 88 -252.5t266 -97.5q133 0 242 36v-90q-115 -39 -258 -39q-113 0 -200.5 33t-142 92.5t-82.5 137.5t-28 172zM266 610h664 q16 78 16 129q0 127 -64.5 200t-197.5 73q-82 0 -153.5 -33.5t-123 -90.5t-87 -127.5t-54.5 -150.5zM530 1573h123l160 -336h-82z" />
<glyph unicode="&#xe9;" horiz-adv-x="1107" d="M131 410q0 106 24.5 207.5t73.5 189.5t116 155t157 105.5t192 38.5q177 0 267 -96.5t90 -264.5q0 -85 -33 -231h-766q-6 -37 -6 -96q0 -155 88 -252.5t266 -97.5q133 0 242 36v-90q-115 -39 -258 -39q-113 0 -200.5 33t-142 92.5t-82.5 137.5t-28 172zM266 610h664 q16 78 16 129q0 127 -64.5 200t-197.5 73q-82 0 -153.5 -33.5t-123 -90.5t-87 -127.5t-54.5 -150.5zM651 1237l271 336h129l-310 -336h-90z" />
<glyph unicode="&#xea;" horiz-adv-x="1107" d="M131 410q0 106 24.5 207.5t73.5 189.5t116 155t157 105.5t192 38.5q177 0 267 -96.5t90 -264.5q0 -85 -33 -231h-766q-6 -37 -6 -96q0 -155 88 -252.5t266 -97.5q133 0 242 36v-90q-115 -39 -258 -39q-113 0 -200.5 33t-142 92.5t-82.5 137.5t-28 172zM266 610h664 q16 78 16 129q0 127 -64.5 200t-197.5 73q-82 0 -153.5 -33.5t-123 -90.5t-87 -127.5t-54.5 -150.5zM440 1237l316 336h116l181 -336h-92l-154 264l-262 -264h-105z" />
<glyph unicode="&#xeb;" horiz-adv-x="1107" d="M131 410q0 106 24.5 207.5t73.5 189.5t116 155t157 105.5t192 38.5q177 0 267 -96.5t90 -264.5q0 -85 -33 -231h-766q-6 -37 -6 -96q0 -155 88 -252.5t266 -97.5q133 0 242 36v-90q-115 -39 -258 -39q-113 0 -200.5 33t-142 92.5t-82.5 137.5t-28 172zM266 610h664 q16 78 16 129q0 127 -64.5 200t-197.5 73q-82 0 -153.5 -33.5t-123 -90.5t-87 -127.5t-54.5 -150.5zM530 1315l33 149h121l-33 -149h-121zM885 1315l33 149h120l-32 -149h-121z" />
<glyph unicode="&#xec;" horiz-adv-x="483" d="M90 0l229 1081h115l-229 -1081h-115zM180 1573h123l160 -336h-82z" />
<glyph unicode="&#xed;" horiz-adv-x="483" d="M90 0l229 1081h115l-229 -1081h-115zM356 1237l271 336h129l-310 -336h-90z" />
<glyph unicode="&#xee;" horiz-adv-x="483" d="M90 0l229 1081h115l-229 -1081h-115zM100 1237l316 336h116l181 -336h-92l-154 264l-262 -264h-105z" />
<glyph unicode="&#xef;" horiz-adv-x="483" d="M90 0l229 1081h115l-229 -1081h-115zM188 1315l33 149h121l-33 -149h-121zM543 1315l32 149h121l-32 -149h-121z" />
<glyph unicode="&#xf0;" horiz-adv-x="1171" d="M129 389q0 167 69 309.5t193.5 228t276.5 85.5q115 0 196 -53t113 -140h4q0 280 -154 434l-342 -129v84l271 105q-97 63 -226 92l45 88q188 -45 295 -137l254 98v-86l-190 -74q156 -180 156 -499q0 -106 -17.5 -214t-60 -218.5t-105 -195.5t-162 -138.5t-221.5 -53.5 q-190 0 -292.5 114t-102.5 300zM244 397q0 -145 70.5 -236t211.5 -91q80 0 149.5 34t118.5 89.5t84.5 125.5t52.5 142.5t17 140.5q0 140 -71.5 228t-212.5 88q-95 0 -175.5 -46t-133 -121t-82 -167t-29.5 -187z" />
<glyph unicode="&#xf1;" horiz-adv-x="1175" d="M90 0l229 1081h111l-45 -204h4q57 107 156 168t215 61q149 0 229 -79.5t80 -213.5q0 -59 -18 -154l-138 -659h-114l139 657q18 81 18 146q0 91 -54.5 150t-162.5 59q-146 0 -257 -108.5t-150 -297.5l-127 -606h-115zM465 1284q21 104 73 164.5t136 60.5q42 0 76.5 -17 t74.5 -54q71 -68 119 -68q43 0 74 36t43 103h86q-21 -104 -73 -164.5t-136 -60.5q-43 0 -75 17t-79 57q-40 37 -65 52t-51 15q-89 0 -117 -141h-86z" />
<glyph unicode="&#xf2;" horiz-adv-x="1171" d="M129 397q0 192 68 353t196.5 258.5t290.5 97.5q194 0 296.5 -112.5t102.5 -301.5q0 -91 -19.5 -186.5t-64 -191.5t-108 -170.5t-159.5 -121.5t-210 -47q-194 0 -293.5 115.5t-99.5 306.5zM244 403q0 -148 69.5 -240.5t212.5 -92.5q73 0 137.5 28t112 76t85.5 110 t61 131.5t35 138t12 132.5q0 148 -71.5 237t-215.5 89q-84 0 -156 -34.5t-123 -93.5t-87.5 -137.5t-54 -165.5t-17.5 -178zM549 1573h123l159 -336h-81z" />
<glyph unicode="&#xf3;" horiz-adv-x="1171" d="M129 397q0 192 68 353t196.5 258.5t290.5 97.5q194 0 296.5 -112.5t102.5 -301.5q0 -91 -19.5 -186.5t-64 -191.5t-108 -170.5t-159.5 -121.5t-210 -47q-194 0 -293.5 115.5t-99.5 306.5zM244 403q0 -148 69.5 -240.5t212.5 -92.5q73 0 137.5 28t112 76t85.5 110 t61 131.5t35 138t12 132.5q0 148 -71.5 237t-215.5 89q-84 0 -156 -34.5t-123 -93.5t-87.5 -137.5t-54 -165.5t-17.5 -178zM664 1237l270 336h129l-309 -336h-90z" />
<glyph unicode="&#xf4;" horiz-adv-x="1171" d="M129 397q0 192 68 353t196.5 258.5t290.5 97.5q194 0 296.5 -112.5t102.5 -301.5q0 -91 -19.5 -186.5t-64 -191.5t-108 -170.5t-159.5 -121.5t-210 -47q-194 0 -293.5 115.5t-99.5 306.5zM244 403q0 -148 69.5 -240.5t212.5 -92.5q73 0 137.5 28t112 76t85.5 110 t61 131.5t35 138t12 132.5q0 148 -71.5 237t-215.5 89q-84 0 -156 -34.5t-123 -93.5t-87.5 -137.5t-54 -165.5t-17.5 -178zM446 1237l316 336h117l180 -336h-92l-154 264l-262 -264h-105z" />
<glyph unicode="&#xf5;" horiz-adv-x="1171" d="M129 397q0 192 68 353t196.5 258.5t290.5 97.5q194 0 296.5 -112.5t102.5 -301.5q0 -91 -19.5 -186.5t-64 -191.5t-108 -170.5t-159.5 -121.5t-210 -47q-194 0 -293.5 115.5t-99.5 306.5zM244 403q0 -148 69.5 -240.5t212.5 -92.5q73 0 137.5 28t112 76t85.5 110 t61 131.5t35 138t12 132.5q0 148 -71.5 237t-215.5 89q-84 0 -156 -34.5t-123 -93.5t-87.5 -137.5t-54 -165.5t-17.5 -178zM451 1284q22 104 73 164.5t135 60.5q42 0 77 -17t75 -54q71 -68 119 -68q43 0 74 36t43 103h86q-21 -104 -73 -164.5t-136 -60.5q-43 0 -75 17 t-79 57q-39 36 -65 51.5t-52 15.5q-88 0 -116 -141h-86z" />
<glyph unicode="&#xf6;" horiz-adv-x="1171" d="M129 397q0 192 68 353t196.5 258.5t290.5 97.5q194 0 296.5 -112.5t102.5 -301.5q0 -91 -19.5 -186.5t-64 -191.5t-108 -170.5t-159.5 -121.5t-210 -47q-194 0 -293.5 115.5t-99.5 306.5zM244 403q0 -148 69.5 -240.5t212.5 -92.5q73 0 137.5 28t112 76t85.5 110 t61 131.5t35 138t12 132.5q0 148 -71.5 237t-215.5 89q-84 0 -156 -34.5t-123 -93.5t-87.5 -137.5t-54 -165.5t-17.5 -178zM532 1315l33 149h121l-33 -149h-121zM887 1315l33 149h120l-32 -149h-121z" />
<glyph unicode="&#xf7;" d="M137 600v90h914v-90h-914zM530 203v147h136v-147h-136zM530 936v149h136v-149h-136z" />
<glyph unicode="&#xf8;" horiz-adv-x="1171" d="M10 20l162 156q-43 93 -43 221q0 192 68 353t196.5 258.5t290.5 97.5q212 0 317 -137l140 133l45 -47l-150 -144q47 -92 47 -219q0 -91 -19.5 -186.5t-64 -191.5t-108 -170.5t-159.5 -121.5t-210 -47q-214 0 -315 144l-152 -146zM244 403q0 -77 18 -141l658 629 q-74 121 -238 121q-84 0 -156 -34.5t-123 -93.5t-87.5 -137.5t-54 -165.5t-17.5 -178zM289 199q74 -129 237 -129q73 0 137.5 28t112 76t85.5 110t61 131.5t35 138t12 132.5q0 76 -21 141z" />
<glyph unicode="&#xf9;" horiz-adv-x="1175" d="M143 268q0 53 19 154l137 659h115l-140 -657q-18 -81 -18 -145q0 -92 52 -150.5t161 -58.5q147 0 260 108.5t152 296.5l127 606h112l-229 -1081h-109l45 205h-4q-59 -107 -158 -168.5t-214 -61.5q-150 0 -229 79.5t-79 213.5zM532 1573h123l160 -336h-82z" />
<glyph unicode="&#xfa;" horiz-adv-x="1175" d="M143 268q0 53 19 154l137 659h115l-140 -657q-18 -81 -18 -145q0 -92 52 -150.5t161 -58.5q147 0 260 108.5t152 296.5l127 606h112l-229 -1081h-109l45 205h-4q-59 -107 -158 -168.5t-214 -61.5q-150 0 -229 79.5t-79 213.5zM674 1237l270 336h129l-309 -336h-90z" />
<glyph unicode="&#xfb;" horiz-adv-x="1175" d="M143 268q0 53 19 154l137 659h115l-140 -657q-18 -81 -18 -145q0 -92 52 -150.5t161 -58.5q147 0 260 108.5t152 296.5l127 606h112l-229 -1081h-109l45 205h-4q-59 -107 -158 -168.5t-214 -61.5q-150 0 -229 79.5t-79 213.5zM434 1237l316 336h116l181 -336h-93 l-153 264l-262 -264h-105z" />
<glyph unicode="&#xfc;" horiz-adv-x="1175" d="M143 268q0 53 19 154l137 659h115l-140 -657q-18 -81 -18 -145q0 -92 52 -150.5t161 -58.5q147 0 260 108.5t152 296.5l127 606h112l-229 -1081h-109l45 205h-4q-59 -107 -158 -168.5t-214 -61.5q-150 0 -229 79.5t-79 213.5zM526 1315l33 149h121l-33 -149h-121z M881 1315l32 149h121l-33 -149h-120z" />
<glyph unicode="&#xfd;" horiz-adv-x="970" d="M10 -399l266 407l-102 1073h115l84 -940h4l586 940h129l-957 -1480h-125zM580 1237l270 336h129l-309 -336h-90z" />
<glyph unicode="&#xfe;" horiz-adv-x="1196" d="M4 -399l408 1904h112l-135 -622h4q52 95 144.5 159t210.5 64q79 0 142 -24.5t104.5 -65.5t69 -97t39 -116.5t11.5 -126.5q0 -190 -66 -349t-190.5 -255.5t-282.5 -96.5q-136 0 -216.5 65.5t-108.5 166.5h-4l-129 -606h-113zM295 389q0 -145 74.5 -232t208.5 -87 q83 0 154 38.5t119.5 100.5t82.5 142t49.5 162t15.5 161q0 54 -9.5 102.5t-30.5 92t-51.5 75t-76.5 50t-102 18.5q-79 0 -149 -36.5t-121.5 -98t-89 -141.5t-56 -169t-18.5 -178z" />
<glyph unicode="&#xff;" horiz-adv-x="970" d="M10 -399l266 407l-102 1073h115l84 -940h4l586 940h129l-957 -1480h-125zM428 1315l33 149h121l-33 -149h-121zM782 1315l33 149h121l-33 -149h-121z" />
<glyph unicode="&#x152;" horiz-adv-x="1888" d="M166 547q0 141 33.5 273t103.5 249t169.5 204.5t240 138t305.5 50.5h926l-21 -100h-588l-118 -557h569l-21 -100h-569l-127 -605h643l-22 -100h-926q-296 0 -447 148t-151 399zM285 553q0 -216 124.5 -334.5t366.5 -118.5h176l267 1262h-207q-172 0 -311.5 -64 t-229.5 -175t-138 -257t-48 -313z" />
<glyph unicode="&#x153;" horiz-adv-x="1914" d="M129 397q0 192 68 353t196.5 258.5t290.5 97.5q151 0 247 -78t120 -211q0 -1 1 -2t1 -2q70 135 186.5 214t261.5 79q177 0 267 -95t90 -263q0 -88 -33 -234h-766q-6 -37 -6 -96q0 -155 88 -252.5t266 -97.5q129 0 242 36v-90q-115 -39 -258 -39q-175 0 -281.5 81 t-140.5 220l-4 -4q-68 -138 -179 -217.5t-264 -79.5q-194 0 -293.5 115.5t-99.5 306.5zM244 403q0 -148 69.5 -240.5t212.5 -92.5q75 0 140 28t112.5 76t84.5 110t60 131.5t34.5 138t11.5 132.5q0 148 -71.5 237t-215.5 89q-84 0 -156 -34.5t-123 -93.5t-87.5 -137.5 t-54 -165.5t-17.5 -178zM1073 610h664q16 78 16 129q0 128 -64.5 200.5t-197.5 72.5q-82 0 -153.5 -33.5t-123 -90.5t-87 -127.5t-54.5 -150.5z" />
<glyph unicode="&#x178;" horiz-adv-x="1089" d="M209 1462h127l246 -751l589 751h138l-688 -858l-127 -604h-115l127 604zM547 1645l33 149h120l-32 -149h-121zM901 1645l33 149h121l-33 -149h-121z" />
<glyph unicode="&#x2c6;" horiz-adv-x="956" d="M326 1237l315 336h117l180 -336h-92l-154 264l-262 -264h-104z" />
<glyph unicode="&#x2dc;" horiz-adv-x="956" d="M332 1284q21 104 73 164.5t136 60.5q42 0 76.5 -17t74.5 -54q71 -68 119 -68q43 0 74 36t43 103h86q-21 -104 -73 -164.5t-136 -60.5q-43 0 -75 17t-79 57q-40 37 -65 52t-51 15q-89 0 -117 -141h-86z" />
<glyph unicode="&#x2000;" horiz-adv-x="960" />
<glyph unicode="&#x2001;" horiz-adv-x="1921" />
<glyph unicode="&#x2002;" horiz-adv-x="960" />
<glyph unicode="&#x2003;" horiz-adv-x="1921" />
<glyph unicode="&#x2004;" horiz-adv-x="640" />
<glyph unicode="&#x2005;" horiz-adv-x="480" />
<glyph unicode="&#x2006;" horiz-adv-x="320" />
<glyph unicode="&#x2007;" horiz-adv-x="320" />
<glyph unicode="&#x2008;" horiz-adv-x="240" />
<glyph unicode="&#x2009;" horiz-adv-x="384" />
<glyph unicode="&#x200a;" horiz-adv-x="106" />
<glyph unicode="&#x2010;" horiz-adv-x="778" d="M176 567l21 99h475l-21 -99h-475z" />
<glyph unicode="&#x2011;" horiz-adv-x="778" d="M176 567l21 99h475l-21 -99h-475z" />
<glyph unicode="&#x2012;" horiz-adv-x="778" d="M176 567l21 99h475l-21 -99h-475z" />
<glyph unicode="&#x2013;" horiz-adv-x="913" d="M82 573l16 82h803l-18 -82h-801z" />
<glyph unicode="&#x2014;" horiz-adv-x="1429" d="M82 573l16 82h1319l-16 -82h-1319z" />
<glyph unicode="&#x2018;" horiz-adv-x="555" d="M297 1073l242 432h82l-195 -432h-129z" />
<glyph unicode="&#x2019;" horiz-adv-x="555" d="M295 1071l194 434h132l-242 -434h-84z" />
<glyph unicode="&#x201a;" horiz-adv-x="555" d="M10 -266l195 430h129l-242 -430h-82z" />
<glyph unicode="&#x201c;" horiz-adv-x="817" d="M295 1071l246 434h80l-201 -434h-125zM563 1071l240 434h80l-195 -434h-125z" />
<glyph unicode="&#x201d;" horiz-adv-x="817" d="M297 1073l192 432h127l-237 -432h-82zM559 1073l199 432h125l-244 -432h-80z" />
<glyph unicode="&#x201e;" horiz-adv-x="817" d="M10 -266l193 430h127l-238 -430h-82zM272 -266l199 430h125l-244 -430h-80z" />
<glyph unicode="&#x2022;" horiz-adv-x="952" d="M186 674q0 140 98.5 239t237.5 99q141 0 239.5 -99t98.5 -239t-98.5 -238t-239.5 -98q-140 0 -238 98t-98 238z" />
<glyph unicode="&#x2026;" horiz-adv-x="1622" d="M111 0l34 166h152l-33 -166h-153zM651 0l35 166h152l-33 -166h-154zM1192 0l35 166h151l-32 -166h-154z" />
<glyph unicode="&#x202f;" horiz-adv-x="384" />
<glyph unicode="&#x2039;" horiz-adv-x="684" d="M203 612l2 11l323 362h113l-332 -379l166 -370h-104z" />
<glyph unicode="&#x203a;" horiz-adv-x="684" d="M121 236l330 376l-164 373h102l168 -379l-2 -10l-324 -360h-110z" />
<glyph unicode="&#x205f;" horiz-adv-x="480" />
<glyph unicode="&#x20ac;" horiz-adv-x="1359" d="M111 555l34 82h146q10 125 43 221h-160l35 82h151q44 116 112 212.5t159.5 172.5t213.5 119t261 43q162 0 268 -45l-37 -94q-88 36 -233 36q-228 0 -387.5 -122t-237.5 -322h688l-34 -82h-682q-35 -99 -45 -221h649l-35 -82h-617q0 -79 16 -149t51.5 -131t88 -105 t129 -69t170.5 -25q156 0 287 49l10 -98q-148 -52 -315 -52q-137 0 -243.5 45t-173 124.5t-100.5 183.5t-34 227h-178z" />
<glyph unicode="&#x2122;" horiz-adv-x="1878" d="M326 1386v76h530v-76h-219v-708h-88v708h-223zM971 678v784h143l223 -676h4l222 676h139v-784h-80v694h-4l-236 -694h-90l-235 694h-4v-694h-82z" />
<glyph unicode="&#xe000;" horiz-adv-x="1085" d="M0 0v1085h1085v-1085h-1085z" />
</font>
</defs>
</svg>
