<?xml version="1.0" standalone="no"?>
<!DOCTYPE svg PUBLIC "-//W3C//DTD SVG 1.1//EN" "http://www.w3.org/Graphics/SVG/1.1/DTD/svg11.dtd" >
<svg xmlns="http://www.w3.org/2000/svg">
<metadata></metadata>
<defs>
<font id="stratum2mediumoblique" horiz-adv-x="1064" >
<font-face units-per-em="2048" ascent="1577" descent="-471" />
<missing-glyph horiz-adv-x="442" />
<glyph unicode="&#xfb01;" horiz-adv-x="1204" d="M213 0l143 813h-141l29 158h141l33 186q14 90 88 153.5t164 63.5h237l-28 -164h-179q-37 0 -65.5 -24.5t-34.5 -61.5l-27 -153h256l-28 -158h-256l-144 -813h-188zM852 0l172 971h188l-172 -971h-188zM1053 1133l41 241h188l-41 -241h-188z" />
<glyph unicode="&#xfb02;" horiz-adv-x="1185" d="M213 0l143 813h-141l29 158h141l31 176q16 90 89 153.5t163 63.5h237l-28 -164h-179q-37 0 -65.5 -24.5t-34.5 -61.5l-25 -143h256l-28 -158h-256l-144 -813h-188zM844 0l239 1364h189l-240 -1364h-188z" />
<glyph horiz-adv-x="2048" />
<glyph horiz-adv-x="2048" />
<glyph unicode="&#xd;" horiz-adv-x="681" />
<glyph unicode=" "  horiz-adv-x="442" />
<glyph unicode="&#x09;" horiz-adv-x="442" />
<glyph unicode="&#xa0;" horiz-adv-x="442" />
<glyph unicode="!" horiz-adv-x="536" d="M164 0l45 252h209l-45 -252h-209zM281 418l34 385l99 561h188l-98 -561l-103 -385h-120z" />
<glyph unicode="&#x22;" horiz-adv-x="733" d="M258 821l94 543h150l-94 -543h-150zM614 821l95 543h151l-94 -543h-152z" />
<glyph unicode="#" horiz-adv-x="1460" d="M164 403l43 129h270l103 306h-271l43 125h273l137 401h137l-137 -401h362l138 401h137l-137 -401h276l-43 -125h-278l-101 -306h275l-43 -129h-277l-139 -403h-137l139 403h-363l-139 -403h-137l139 403h-270zM614 532h365l100 306h-360z" />
<glyph unicode="$" horiz-adv-x="1032" d="M193 217l28 162h187l-25 -135q-6 -35 14.5 -60.5t57.5 -25.5h188q37 0 64.5 22.5t35.5 59.5l43 247q10 63 -61 88l-276 93q-72 25 -112 75t-26 123l49 285q16 90 89 151.5t165 61.5h74l39 213h145l-38 -213h65q92 0 145.5 -63.5t36.5 -153.5l-28 -160h-187l23 133 q8 35 -13.5 60.5t-58.5 25.5h-166q-41 0 -70.5 -22.5t-35.5 -59.5l-39 -219q-6 -33 9 -52t54 -32l277 -100q160 -59 135 -201l-55 -307q-14 -90 -89 -151.5t-167 -61.5h-76l-37 -213h-145l37 213h-80q-90 0 -141.5 63.5t-34.5 153.5z" />
<glyph unicode="%" horiz-adv-x="2000" d="M283 793l65 370q14 82 85 141.5t155 59.5h246q84 0 135 -59.5t37 -141.5l-66 -370q-14 -82 -86 -141.5t-156 -59.5h-245q-84 0 -134 59.5t-36 141.5zM451 838q-16 -96 79 -97h146q96 0 112 97l50 280q18 96 -78 96h-146q-96 0 -114 -96zM582 0l917 1364h168l-917 -1364 h-168zM1235 201l65 370q14 82 85 141.5t155 59.5h246q84 0 135 -59.5t37 -141.5l-66 -370q-14 -82 -85.5 -141.5t-155.5 -59.5h-246q-84 0 -134 59.5t-36 141.5zM1403 246q-16 -96 80 -96h145q96 0 113 96l49 280q18 96 -78 97h-145q-97 -1 -115 -97z" />
<glyph unicode="&#x26;" horiz-adv-x="1228" d="M182 217l58 330q20 117 139 164q-51 31 -64.5 80t2.5 129l41 227q16 90 90 153.5t164 63.5h301q102 0 159.5 -59.5t41.5 -157.5l-24 -135h-185l17 94q6 37 -13.5 61.5t-56.5 24.5h-211q-37 0 -67.5 -24.5t-36.5 -61.5l-41 -236q-6 -37 10 -58t57 -21h774l-30 -173h-220 l-69 -401q-16 -90 -92 -153.5t-166 -63.5h-402q-90 0 -141 63.5t-35 153.5zM377 258q-6 -37 14.5 -61.5t57.5 -24.5h288q37 0 67 24.5t36 61.5l63 360h-377q-39 0 -65.5 -21.5t-34.5 -57.5z" />
<glyph unicode="'" horiz-adv-x="374" d="M258 821l94 543h150l-94 -543h-150z" />
<glyph unicode="(" horiz-adv-x="540" d="M143 -119l248 1405q16 96 94 162l197 156l106 -140l-178 -149q-31 -27 -37 -64l-235 -1335q-6 -37 14 -63l125 -150l-155 -139l-142 155q-55 66 -37 162z" />
<glyph unicode=")" horiz-adv-x="540" d="M-43 -297l178 150q33 26 39 63l236 1335q6 37 -17 64l-125 149l156 140l143 -156q53 -66 37 -162l-248 -1405q-18 -96 -94 -162l-199 -155z" />
<glyph unicode="*" horiz-adv-x="903" d="M244 975l18 100h285l-119 242l96 57l123 -256l213 256l76 -57l-203 -242h289l-18 -100h-287l117 -236l-97 -55l-123 250l-208 -250l-76 55l196 236h-282z" />
<glyph unicode="+" horiz-adv-x="1110" d="M225 584l29 155h344l61 355h175l-62 -355h346l-28 -155h-347l-61 -355h-174l61 355h-344z" />
<glyph unicode="," horiz-adv-x="481" d="M88 -199l135 199h-86l45 252h211l-45 -252l-172 -250z" />
<glyph unicode="-" horiz-adv-x="679" d="M182 512l29 164h496l-29 -164h-496z" />
<glyph unicode="." horiz-adv-x="518" d="M154 0l45 252h211l-45 -252h-211z" />
<glyph unicode="/" horiz-adv-x="901" d="M29 -240l878 1624h156l-879 -1624h-155z" />
<glyph unicode="0" horiz-adv-x="1116" d="M193 217l163 930q16 90 89 153.5t163 63.5h375q92 0 145.5 -63.5t36.5 -153.5l-164 -930q-16 -90 -90.5 -153.5t-167.5 -63.5h-374q-90 0 -141.5 63.5t-34.5 153.5zM387 258q-6 -37 14.5 -61.5t57.5 -24.5h260q37 0 65.5 24.5t34.5 61.5l150 848q6 37 -13.5 61.5 t-56.5 24.5h-260q-37 0 -66.5 -24.5t-35.5 -61.5z" />
<glyph unicode="1" horiz-adv-x="733" d="M203 1057l33 188l385 119h188l-240 -1364h-188l207 1176z" />
<glyph unicode="2" horiz-adv-x="1056" d="M133 0l80 459q16 82 67.5 123t155.5 82l342 129q47 18 68.5 36.5t27.5 51.5l39 225q6 37 -14 61.5t-57 24.5h-221q-37 0 -67 -24.5t-36 -61.5l-22 -131h-189l31 172q16 90 89 153.5t163 63.5h338q92 0 145 -63.5t37 -153.5l-55 -305q-12 -72 -53 -112t-134 -77l-374 -147 q-47 -18 -70 -37.5t-29 -52.5l-43 -244h592l-31 -172h-780z" />
<glyph unicode="3" horiz-adv-x="1054" d="M162 217l26 154h187l-21 -113q-6 -37 15.5 -61.5t58.5 -24.5h238q37 0 66.5 24.5t35.5 61.5l47 264q6 37 -15.5 61.5t-58.5 24.5h-305l31 172h303q35 0 61.5 24.5t34.5 61.5l41 240q6 37 -13.5 61.5t-55.5 24.5h-224q-37 0 -67.5 -24.5t-36.5 -61.5l-18 -107h-187l27 148 q16 90 90 153.5t164 63.5h336q92 0 145 -63.5t37 -153.5l-53 -295q-8 -49 -42 -89t-83 -63q100 -45 80 -161l-56 -322q-16 -90 -92 -153.5t-166 -63.5h-354q-90 0 -141.5 63.5t-34.5 153.5z" />
<glyph unicode="4" horiz-adv-x="1081" d="M104 354l27 162l733 848h189l-150 -848h238l-27 -162h-237l-64 -354h-188l63 354h-584zM336 516h379l100 563z" />
<glyph unicode="5" horiz-adv-x="1060" d="M182 217l13 76h188l-6 -35q-6 -37 14.5 -61.5t57.5 -24.5h233q37 0 66.5 24.5t35.5 61.5l56 315q8 41 -11.5 63.5t-60.5 22.5q-166 0 -231 -24q-92 -33 -105 -98l-8 -45l-186 12l151 860h762l-29 -172h-573l-74 -410q143 55 381 56q102 0 150.5 -60.5t29.5 -156.5 l-69 -404q-16 -90 -92 -153.5t-166 -63.5h-351q-90 0 -141 63.5t-35 153.5z" />
<glyph unicode="6" horiz-adv-x="1085" d="M193 217l163 930q16 90 89 153.5t163 63.5h344q92 0 144.5 -63.5t36.5 -153.5l-25 -139h-188l16 98q6 37 -14.5 61.5t-57.5 24.5h-225q-37 0 -66.5 -24.5t-35.5 -61.5l-70 -395q88 35 202.5 53t190.5 18q102 0 150 -60.5t32 -156.5l-61 -348q-16 -90 -92 -153.5 t-166 -63.5h-354q-90 0 -141.5 63.5t-34.5 153.5zM387 258q-6 -37 14.5 -61.5t57.5 -24.5h237q37 0 67 24.5t36 61.5l45 258q8 41 -11.5 63.5t-60.5 22.5q-135 0 -246 -41q-92 -33 -102 -98z" />
<glyph unicode="7" horiz-adv-x="901" d="M195 0l657 1192h-604l28 172h793l-27 -160l-653 -1204h-194z" />
<glyph unicode="8" horiz-adv-x="1118" d="M193 217l55 322q20 115 137 163q-86 49 -68 152l52 293q16 90 88.5 153.5t163.5 63.5h354q92 0 145.5 -63.5t36.5 -153.5l-51 -293q-18 -98 -127 -154q100 -47 80 -161l-55 -322q-16 -90 -91 -153.5t-168 -63.5h-376q-90 0 -141.5 63.5t-34.5 153.5zM387 258 q-6 -37 14.5 -61.5t57.5 -24.5h262q37 0 66.5 24.5t35.5 61.5l47 264q6 37 -15 61.5t-58 24.5h-262q-37 0 -66 -24.5t-35 -61.5zM506 866q-6 -35 13.5 -60.5t55.5 -25.5h248q33 0 62 25.5t35 60.5l41 240q6 37 -14.5 61.5t-57.5 24.5h-238q-37 0 -67.5 -24.5t-36.5 -61.5z " />
<glyph unicode="9" horiz-adv-x="1085" d="M190 217l25 139h188l-18 -98q-6 -37 15.5 -61.5t58.5 -24.5h229q37 0 65.5 24.5t34.5 61.5l70 389q-88 -35 -202.5 -53.5t-190.5 -18.5q-102 0 -150 61t-32 157l63 354q16 90 91 153.5t165 63.5h354q92 0 143.5 -63.5t35.5 -153.5l-164 -930q-16 -90 -90 -153.5 t-164 -63.5h-348q-92 0 -143.5 63.5t-35.5 153.5zM479 842q-6 -41 13.5 -63.5t60.5 -22.5q135 0 246 41q90 33 102 98l37 211q6 37 -13.5 61.5t-56.5 24.5h-237q-37 0 -68 -24.5t-37 -61.5z" />
<glyph unicode=":" horiz-adv-x="518" d="M154 0l45 252h211l-45 -252h-211zM268 651l45 252h211l-45 -252h-211z" />
<glyph unicode=";" horiz-adv-x="501" d="M88 -199l135 199h-86l45 252h211l-45 -252l-172 -250zM250 651l45 252h213l-45 -252h-213z" />
<glyph unicode="&#x3c;" horiz-adv-x="1144" d="M229 604l21 115l885 395l39 -137l-736 -315l625 -316l-88 -137z" />
<glyph unicode="=" horiz-adv-x="1069" d="M203 393l26 158h803l-26 -158h-803zM268 772l29 156h803l-29 -156h-803z" />
<glyph unicode="&#x3e;" horiz-adv-x="1144" d="M205 346l735 316l-625 315l88 137l746 -395l-21 -115l-884 -395z" />
<glyph unicode="?" horiz-adv-x="1040" d="M305 981l31 166q16 90 90 153.5t164 63.5h336q92 0 145 -63.5t37 -153.5l-49 -277q-8 -41 -19.5 -68.5t-38 -50t-45 -33.5t-67.5 -38l-164 -84q-66 -33 -78 -94l-16 -99h-187l25 144q14 78 46 116.5t112 75.5l166 80q47 23 63 42.5t23 58.5l32 186q6 37 -13 61.5 t-56 24.5h-221q-37 0 -68 -24.5t-37 -61.5l-22 -125h-189zM362 0l46 252h210l-45 -252h-211z" />
<glyph unicode="@" horiz-adv-x="1206" d="M190 205l168 954q14 86 88 145.5t170 59.5h453q98 0 150.5 -59.5t37.5 -145.5l-116 -659h-140l7 37q-125 -51 -287 -52q-74 0 -110 44t-23 114l33 178q12 70 62 113t124 43q172 0 272 -33l33 180q8 53 -18.5 84t-83.5 31h-373q-57 0 -96 -30.5t-47 -84.5l-156 -884 q-10 -53 17.5 -84t84.5 -31h588l-22 -125h-629q-96 0 -149.5 59.5t-37.5 145.5zM729 670q-12 -61 51 -62q104 0 183 25q63 20 71 63l17 95q8 47 -50 57q-61 12 -176 12q-63 0 -73 -61z" />
<glyph unicode="A" horiz-adv-x="1216" d="M51 0l705 1364h184l225 -1364h-196l-54 324h-501l-164 -324h-199zM504 500h385l-86 604z" />
<glyph unicode="B" horiz-adv-x="1183" d="M164 0l239 1364h646q92 0 145 -64q41 -49 40 -113q0 -19 -3 -40l-49 -277q-10 -53 -50 -99t-96 -64q49 -9 80 -55q23 -34 23 -78q0 -14 -2 -29l-58 -328q-16 -90 -91 -153.5t-167 -63.5h-657zM389 178h399q41 0 69 24.5t36 61.5l45 262q2 10 2 19q0 25 -16 43 q-22 24 -58 24h-399zM498 788h393q37 0 63.5 25t32.5 61l41 226q1 8 1 16q-1 28 -17 46q-22 24 -58 24h-387z" />
<glyph unicode="C" horiz-adv-x="1175" d="M193 225l161 914q16 94 93 159.5t169 65.5h441q95 0 149 -66q42 -50 41 -116q0 -21 -4 -43l-39 -219h-194l32 178q1 8 1 16q0 28 -16 46q-21 24 -58 24h-324q-37 0 -66.5 -24.5t-35.5 -61.5l-148 -832q-1 -8 -1 -16q0 -26 16 -46q20 -24 59 -24h324q37 0 66.5 24.5 t35.5 61.5l33 189h194l-41 -230q-16 -94 -93 -159.5t-171 -65.5h-440q-93 0 -147 66q-41 50 -41 115q0 21 4 44z" />
<glyph unicode="D" horiz-adv-x="1183" d="M164 0l239 1364h641q94 0 148 -66q42 -51 42 -118q0 -20 -3 -41l-162 -914q-16 -94 -93 -159.5t-171 -65.5h-641zM391 180h389q37 0 67 24.5t36 61.5l147 832q1 8 1 16q-1 28 -17 46q-22 24 -58 24h-389z" />
<glyph unicode="E" horiz-adv-x="1091" d="M164 0l239 1364h803l-30 -180h-609l-69 -398h553l-33 -180h-553l-74 -426h610l-32 -180h-805z" />
<glyph unicode="F" horiz-adv-x="1030" d="M164 0l239 1364h814l-31 -180h-619l-69 -398h563l-33 -180h-563l-107 -606h-194z" />
<glyph unicode="G" horiz-adv-x="1171" d="M193 225l161 914q16 94 93 159.5t169 65.5h437q94 0 148 -66q42 -50 42 -118q0 -20 -4 -41l-31 -181h-194l24 140q1 9 1 16q0 27 -15 46q-20 24 -57 24h-322q-37 0 -66.5 -24.5t-35.5 -61.5l-148 -832q-1 -8 -1 -16q0 -27 16 -46q20 -24 59 -24h322q37 0 65.5 24.5 t34.5 61.5l45 256h-260l31 178h454l-84 -475q-16 -94 -93 -159.5t-171 -65.5h-436q-94 0 -147 66q-41 49 -41 115q0 21 4 44z" />
<glyph unicode="H" horiz-adv-x="1271" d="M164 0l239 1364h195l-100 -573h555l100 573h195l-240 -1364h-195l109 610h-555l-109 -610h-194z" />
<glyph unicode="I" horiz-adv-x="542" d="M174 0l240 1364h194l-239 -1364h-195z" />
<glyph unicode="J" horiz-adv-x="1050" d="M111 225l36 199h193l-27 -158q-1 -8 -1 -16q0 -27 16 -46q20 -24 59 -24h260q37 0 66.5 24.5t36.5 61.5l192 1098h195l-201 -1139q-16 -94 -92 -159.5t-170 -65.5h-377q-94 0 -149 66q-41 49 -41 116q0 21 4 43z" />
<glyph unicode="K" horiz-adv-x="1120" d="M164 0l239 1364h195l-113 -643l586 643h234l-625 -674l410 -690h-238l-379 655l-115 -655h-194z" />
<glyph unicode="L" horiz-adv-x="1042" d="M164 0l239 1364h195l-207 -1184h602l-32 -180h-797z" />
<glyph unicode="M" horiz-adv-x="1478" d="M164 0l239 1364h189l233 -881l541 881h188l-239 -1364h-189l164 928l-418 -672h-176l-180 672l-164 -928h-188z" />
<glyph unicode="N" horiz-adv-x="1282" d="M164 0l239 1364h189l399 -1014l178 1014h189l-240 -1364h-188l-400 1010l-178 -1010h-188z" />
<glyph unicode="O" horiz-adv-x="1214" d="M193 225l161 914q16 94 93 159.5t169 65.5h459q95 0 149 -66q42 -51 41 -118q0 -20 -3 -41l-162 -914q-16 -94 -93 -159.5t-171 -65.5h-459q-93 0 -147 66q-41 50 -41 115q0 21 4 44zM395 266q-1 -8 -1 -16q0 -26 16 -46q20 -24 59 -24h344q37 0 65.5 24.5t34.5 61.5 l148 832q1 8 1 16q0 26 -16 46q-20 24 -57 24h-344q-37 0 -66.5 -24.5t-35.5 -61.5z" />
<glyph unicode="P" horiz-adv-x="1118" d="M164 0l239 1364h658q95 0 149 -66q42 -50 41 -116q0 -21 -4 -43l-65 -367q-16 -94 -93 -159.5t-171 -65.5h-463l-97 -547h-194zM487 727h406q37 0 66.5 24.5t35.5 61.5l52 285q1 8 1 16q0 26 -16 46q-20 24 -59 24h-406z" />
<glyph unicode="Q" horiz-adv-x="1214" d="M193 225l161 914q16 94 93 159.5t169 65.5h459q94 0 149 -66q42 -50 42 -118q0 -20 -4 -41l-162 -914q-16 -94 -93 -159.5t-171 -65.5h-134l-55 -315h-190l55 315h-135q-94 0 -147 66q-41 49 -41 115q0 21 4 44zM395 266q-1 -8 -1 -16q0 -27 16 -46q20 -24 59 -24h342 q37 0 66.5 24.5t35.5 61.5l148 832q1 8 1 16q0 26 -16 46q-22 24 -59 24h-342q-37 0 -66.5 -24.5t-35.5 -61.5z" />
<glyph unicode="R" horiz-adv-x="1234" d="M164 0l239 1364h674q95 0 149 -66q41 -50 41 -117q0 -20 -3 -42l-64 -363q-14 -84 -72.5 -142.5t-146.5 -78.5l172 -555h-213l-172 551h-313l-97 -551h-194zM487 729h422q37 0 67 24.5t36 61.5l51 283q1 8 1 16q0 26 -16 46q-20 24 -59 24h-422z" />
<glyph unicode="S" horiz-adv-x="1146" d="M178 225l33 181h195l-25 -140l-2 -16q1 -26 17 -46q20 -26 57 -26h303q37 0 67.5 25.5t36.5 62.5l35 201q6 37 -9.5 55.5t-60.5 32.5l-348 104q-180 53 -180 184q0 18 4 38l45 258q16 94 93 159.5t171 65.5h406q94 0 148 -66q42 -50 42 -116q0 -21 -4 -43l-33 -189h-194 l26 148q1 8 1 16q0 26 -16 46q-21 26 -58 26h-293q-35 0 -64.5 -25.5t-35.5 -62.5l-31 -174q-2 -9 -2 -17q0 -52 69 -73l353 -105q178 -52 178 -182q0 -19 -4 -39l-51 -283q-16 -94 -93 -159.5t-172 -65.5h-417q-95 0 -149 66q-42 51 -42 118q0 20 4 41z" />
<glyph unicode="T" horiz-adv-x="1075" d="M260 1184l31 180h973l-31 -180h-389l-209 -1184h-195l209 1184h-389z" />
<glyph unicode="U" horiz-adv-x="1189" d="M193 225l200 1139h195l-193 -1098q-1 -8 -1 -16q0 -26 16 -46q20 -24 59 -24h317q37 0 67 24.5t36 61.5l192 1098h195l-201 -1139q-16 -94 -93 -159.5t-171 -65.5h-434q-93 0 -147 66q-41 50 -41 115q0 21 4 44z" />
<glyph unicode="V" horiz-adv-x="1130" d="M281 1364h194l141 -1069l519 1069h194l-667 -1364h-193z" />
<glyph unicode="W" horiz-adv-x="1617" d="M311 1364h189l2 -1032l461 1032h172l100 -1032l362 1032h189l-500 -1364h-194l-97 1057l-467 -1057h-196z" />
<glyph unicode="X" horiz-adv-x="1171" d="M82 0l518 692l-268 672h205l198 -500l379 500h205l-504 -672l275 -692h-205l-209 520l-389 -520h-205z" />
<glyph unicode="Y" horiz-adv-x="1028" d="M240 1364h206l203 -602l412 602h207l-559 -819l-97 -545h-196l96 545z" />
<glyph unicode="Z" horiz-adv-x="1134" d="M133 0l31 174l833 1016h-637l31 174h854l-31 -174l-837 -1016h665l-30 -174h-879z" />
<glyph unicode="[" horiz-adv-x="589" d="M119 -258l332 1888h405l-27 -151h-217l-278 -1585h217l-27 -152h-405z" />
<glyph unicode="\" horiz-adv-x="901" d="M326 1386h155l307 -1624h-155z" />
<glyph unicode="]" horiz-adv-x="589" d="M-25 -258l27 152h217l279 1585h-217l26 151h406l-332 -1888h-406z" />
<glyph unicode="^" horiz-adv-x="921" d="M203 743l434 621h125l219 -621l-137 -63l-170 522l-355 -522z" />
<glyph unicode="_" horiz-adv-x="847" d="M-18 -84l12 72h856l-12 -72h-856z" />
<glyph unicode="`" horiz-adv-x="745" d="M365 1317l106 102l209 -221l-102 -100z" />
<glyph unicode="a" horiz-adv-x="1017" d="M162 197l24 145q18 96 88 156.5t170 60.5q207 0 342 -47l37 207q1 8 1 15q0 26 -16 46q-22 26 -58 25h-197q-37 0 -66.5 -24.5t-35.5 -61.5l-7 -31h-180l12 68q16 90 89 152.5t165 62.5h310q90 1 142 -63q40 -49 39 -113q0 -20 -3 -41l-133 -754h-185l9 49 q-174 -69 -362 -69h-5q-100 0 -148 60q-36 44 -36 109q0 23 4 48zM350 227q-2 -13 -2 -24q0 -62 74 -62q127 0 219 35q92 33 102 88l7 41q2 8 2 15q0 50 -74 67q-68 16 -209 16q-88 0 -104 -86z" />
<glyph unicode="b" horiz-adv-x="1054" d="M154 0l239 1364h189l-80 -461q98 39 203.5 63.5t171.5 24.5q102 -1 150 -61q36 -45 36 -110q0 -22 -4 -46l-103 -577q-16 -96 -85.5 -156.5t-172.5 -60.5q-66 0 -164 25.5t-184 64.5l-12 -70h-184zM395 303q-1 -6 -1 -12q0 -47 73 -76q127 -55 207 -55q88 0 102 86 l84 479q2 12 2 22q0 25 -14 41q-20 22 -60 23q-80 0 -227 -55q-92 -33 -100 -86z" />
<glyph unicode="c" horiz-adv-x="999" d="M172 217l94 537q16 90 89 153.5t165 63.5h322q90 1 142 -63q40 -49 40 -113q0 -20 -4 -41l-21 -115h-188l12 74q2 10 2 19q1 24 -15 42q-22 24 -58 25h-203q-37 0 -65.5 -24.5t-37.5 -61.5l-79 -455q-1 -9 -2 -16q0 -26 16 -46q20 -24 57 -24h203q37 0 66.5 24.5 t35.5 61.5l15 84h188l-20 -125q-16 -90 -90 -153.5t-166 -63.5h-322q-90 0 -141 64q-39 48 -39 112q0 20 4 41z" />
<glyph unicode="d" horiz-adv-x="1054" d="M168 197l102 577q16 96 86 156.5t170 60.5q66 0 163 -24.5t183 -63.5l80 461h189l-240 -1364h-184l12 70q-100 -39 -206.5 -64.5t-174.5 -25.5q-100 0 -148 60q-36 45 -36 111q0 22 4 46zM365 246q-2 -10 -1 -19q0 -27 13 -45q18 -22 61 -22q78 0 228 55q90 33 100 88 l65 367q1 5 1 10q0 46 -72 76q-129 55 -207 55q-88 0 -104 -86z" />
<glyph unicode="e" horiz-adv-x="1013" d="M172 217l94 537q16 90 89 153.5t165 63.5h326q90 1 142 -63q40 -49 39 -113q0 -20 -3 -41l-57 -326h-570l-30 -176q-1 -9 -2 -17q0 -27 15 -45q19 -24 56 -24h213q37 0 66.5 24.5t36.5 61.5l6 43h182l-12 -80q-16 -90 -90 -152.5t-164 -62.5h-326q-90 0 -141 64 q-39 48 -39 112q0 20 4 41zM426 592h387l23 129q1 8 1 16q1 25 -15 45q-20 24 -60 25h-213q-37 0 -65.5 -24.5t-34.5 -61.5z" />
<glyph unicode="f" horiz-adv-x="686" d="M213 0l143 813h-141l29 158h141l31 176q16 90 89 153.5t163 63.5h237l-28 -164h-179q-37 0 -65.5 -24.5t-34.5 -61.5l-25 -143h256l-28 -158h-256l-144 -813h-188z" />
<glyph unicode="g" horiz-adv-x="1044" d="M154 -389l28 162h404q37 0 66.5 24.5t35.5 61.5l43 250q-98 -39 -203.5 -64t-171.5 -25q-102 0 -150 60q-36 46 -36 112q0 22 4 46l96 536q16 96 86 156.5t170 60.5q66 0 163 -24.5t183 -63.5l13 68h188l-203 -1143q-16 -90 -88.5 -153.5t-165.5 -63.5h-462zM373 287 q-2 -12 -2 -23q0 -25 13 -40q19 -23 60 -23q80 0 228 55q86 31 102 88l57 326v6q0 51 -71 80q-129 55 -207 55q-88 0 -104 -86z" />
<glyph unicode="h" d="M154 0l239 1364h189l-80 -461q98 39 203.5 63.5t171.5 24.5q102 -1 150 -61q36 -45 36 -110q0 -22 -4 -46l-137 -774h-189l127 721q2 12 2 22q0 25 -14 41q-20 22 -62 23q-78 0 -225 -55q-92 -33 -102 -86l-117 -666h-188z" />
<glyph unicode="i" horiz-adv-x="516" d="M164 0l172 971h188l-172 -971h-188zM365 1133l41 241h188l-41 -241h-188z" />
<glyph unicode="j" horiz-adv-x="495" d="M-133 -389l31 164h129q41 0 68.5 23.5t33.5 62.5l197 1110h188l-203 -1143q-16 -90 -90 -153.5t-166 -63.5h-188zM354 1133l41 241h189l-41 -241h-189z" />
<glyph unicode="k" horiz-adv-x="970" d="M154 0l239 1364h189l-150 -852l436 459h217l-456 -484l291 -487h-222l-274 465l-82 -465h-188z" />
<glyph unicode="l" horiz-adv-x="495" d="M154 0l239 1364h189l-240 -1364h-188z" />
<glyph unicode="m" horiz-adv-x="1644" d="M154 0l172 971h184l-12 -70q98 39 205.5 64.5t173.5 25.5q129 0 172 -96q94 41 217 68.5t190 27.5q102 -1 150 -61q36 -45 36 -109q0 -23 -4 -47l-137 -774h-188l127 721q2 12 2 22q0 25 -14 41q-20 22 -62 23q-78 0 -225 -55q-92 -33 -103 -86l-116 -666h-189l127 721 q2 12 2 22q0 25 -14 41q-20 22 -62 23q-78 0 -225 -55q-92 -33 -102 -88l-117 -664h-188z" />
<glyph unicode="n" d="M154 0l172 971h184l-12 -70q98 39 205.5 64.5t173.5 25.5q102 -1 150 -61q36 -45 36 -110q0 -22 -4 -46l-137 -774h-189l127 721q2 12 2 22q0 25 -14 41q-20 22 -62 23q-78 0 -225 -55q-92 -33 -102 -88l-117 -664h-188z" />
<glyph unicode="o" horiz-adv-x="1056" d="M172 217l94 537q16 90 89 153.5t165 63.5h357q90 1 143 -63q41 -49 41 -114q0 -19 -4 -40l-94 -537q-16 -90 -92 -153.5t-166 -63.5h-357q-90 0 -141 64q-39 48 -39 112q0 20 4 41zM367 258q-1 -9 -2 -16q0 -26 16 -46q20 -24 57 -24h240q37 0 66.5 24.5t35.5 61.5 l80 455q2 10 2 19q0 24 -16 42q-22 24 -58 25h-239q-37 0 -65.5 -24.5t-37.5 -61.5z" />
<glyph unicode="p" horiz-adv-x="1054" d="M84 -389l242 1360h184l-12 -70q98 39 205.5 64.5t173.5 25.5q102 0 150 -61q36 -45 36 -110q0 -22 -4 -46l-103 -577q-16 -96 -85.5 -156.5t-172.5 -60.5q-66 0 -162 24.5t-182 63.5l-82 -457h-188zM395 301q-1 -6 -1 -11q0 -46 73 -75q127 -55 207 -55q88 0 102 86 l84 479q2 12 2 22q0 26 -14 41q-19 23 -60 23q-80 0 -227 -55q-92 -33 -102 -88z" />
<glyph unicode="q" horiz-adv-x="1054" d="M168 197l102 577q16 96 86 156.5t170 60.5q68 0 166.5 -25.5t184.5 -64.5l12 70h184l-242 -1360h-188l82 457q-100 -39 -205.5 -63.5t-171.5 -24.5q-100 0 -148 60q-36 45 -36 111q0 22 4 46zM365 246q-1 -10 -1 -19q0 -28 13 -45q18 -22 61 -22q78 0 228 55 q90 33 100 86l63 367q1 6 1 12q0 47 -70 76q-129 55 -207 55q-88 0 -104 -86z" />
<glyph unicode="r" horiz-adv-x="663" d="M154 0l172 971h188l-25 -129q154 90 312 149l-21 -184q-98 -39 -196 -94q-68 -39 -101.5 -76t-44.5 -88l-96 -549h-188z" />
<glyph unicode="s" horiz-adv-x="962" d="M154 217l12 78h186l-8 -47q-1 -8 -1 -15q-1 -25 15 -45q20 -26 58 -26h188q37 0 66 22.5t35 59.5l6 39q2 9 2 17q0 50 -64 71q-168 55 -274 92q-142 51 -142 163q0 17 3 36l16 96q16 90 90 151.5t166 61.5h285q92 1 144 -63q40 -49 39 -113q0 -20 -3 -41l-15 -80h-186 l8 49q1 8 1 15q1 26 -15 46q-20 26 -57 25h-166q-43 0 -72 -22.5t-35 -59.5l-6 -35q-2 -8 -1 -16q0 -47 63 -68l278 -92q139 -45 139 -161q0 -19 -4 -40l-18 -102q-14 -90 -89 -151.5t-167 -61.5h-301q-90 0 -142 64q-39 48 -38 110q0 21 4 43z" />
<glyph unicode="t" horiz-adv-x="673" d="M182 807l31 164h152l45 264h188l-45 -264h242l-31 -164h-242l-96 -555l-2 -16q0 -26 16 -46q20 -26 58 -26h153l-28 -164h-215q-90 0 -142 64q-39 48 -39 112q0 20 4 41l103 590h-152z" />
<glyph unicode="u" d="M178 197l137 774h189l-127 -721q-2 -12 -2 -22q-1 -26 13 -42q20 -22 61 -22q80 0 227 55q92 33 100 88l119 664h188l-172 -971h-184l12 70q-100 -39 -206.5 -64.5t-174.5 -25.5q-100 0 -148 60q-36 45 -36 111q0 22 4 46z" />
<glyph unicode="v" horiz-adv-x="933" d="M209 971h194l105 -742l366 742h195l-500 -971h-204z" />
<glyph unicode="w" horiz-adv-x="1314" d="M244 971h180l-4 -682l323 682h177l79 -682l236 682h180l-352 -971h-193l-88 702l-333 -702h-193z" />
<glyph unicode="x" horiz-adv-x="964" d="M61 0l406 487l-229 484h215l143 -322l260 322h215l-401 -484l233 -487h-217l-147 328l-260 -328h-218z" />
<glyph unicode="y" horiz-adv-x="913" d="M172 -389l188 391l-157 969h200l99 -725l360 725h197l-500 -971l-199 -389h-188z" />
<glyph unicode="z" horiz-adv-x="942" d="M123 0l31 170l585 631h-467l31 170h690l-30 -170l-588 -631h485l-31 -170h-706z" />
<glyph unicode="{" horiz-adv-x="622" d="M180 -53l164 540l-108 99l22 119l141 98l29 540q16 180 229 220q109 20 248 39l-4 -142q-25 -4 -95.5 -16t-92.5 -17q-39 -6 -68 -30.5t-31 -61.5l-26 -549q-2 -27 -31 -45l-141 -96l106 -96q23 -18 15 -45l-166 -549q-10 -37 9 -61.5t56 -30.5q20 -4 87 -16.5t89 -16.5 l-45 -141q-131 18 -233 39q-199 39 -154 219z" />
<glyph unicode="|" horiz-adv-x="483" d="M113 -410l360 2048h115l-361 -2048h-114z" />
<glyph unicode="}" horiz-adv-x="622" d="M-55 -311l4 141q25 4 96.5 16.5t91.5 16.5q41 6 68.5 30.5t30.5 61.5l26 549q2 27 31 45l143 96l-108 96q-23 18 -15 45l166 549q10 37 -9 61.5t-56 30.5q-20 4 -87 16.5t-89 16.5l45 142q131 -18 235 -39q197 -39 152 -220l-164 -540l108 -98l-22 -119l-141 -99 l-29 -540q-16 -180 -227 -219q-111 -20 -250 -39z" />
<glyph unicode="~" horiz-adv-x="1046" d="M160 440q57 80 125 162q57 68 142 85.5t151 -25.5q8 -6 36.5 -26t42 -28t36 -22.5t43 -24.5t40.5 -18q12 -2 20.5 -4t21.5 5t22.5 12t21.5 18.5t20.5 22.5t20.5 24.5t19.5 25.5t18.5 24.5t17 22.5l115 -76q-66 -90 -127 -159q-55 -66 -136 -84.5t-146 18.5 q-16 8 -90 57.5t-117 67.5q-14 0 -22.5 3t-22 -4t-21.5 -12t-21.5 -18.5l-21.5 -21.5t-20.5 -24.5t-19.5 -27t-18 -25.5t-18 -23z" />
<glyph unicode="&#xa1;" horiz-adv-x="536" d="M104 -389l99 557l102 385h121l-35 -385l-98 -557h-189zM291 719l45 252h209l-45 -252h-209z" />
<glyph unicode="&#xa2;" horiz-adv-x="989" d="M209 432l88 500q16 90 91 153.5t165 63.5h90l37 215h145l-37 -215h86q90 0 141.5 -63.5t35.5 -153.5l-19 -109h-182l12 72q6 37 -14.5 61.5t-56.5 24.5h-209q-37 0 -67 -24.5t-36 -61.5l-76 -426q-6 -37 15.5 -61.5t58.5 -24.5h209q37 0 65.5 24.5t34.5 61.5l15 76h182 l-20 -113q-16 -90 -89 -153.5t-163 -63.5h-86l-39 -215h-146l39 215h-90q-92 0 -144 63.5t-36 153.5z" />
<glyph unicode="&#xa3;" horiz-adv-x="1163" d="M72 0l26 145h234l176 1000q14 90 89 154.5t165 64.5h371l-27 -152h-311q-37 0 -67 -25.5t-36 -62.5l-47 -270h326l-29 -158h-326l-96 -551h273q37 0 66.5 25t35.5 61l23 131h155l-24 -145q-16 -90 -91 -153.5t-167 -63.5h-719z" />
<glyph unicode="&#xa4;" horiz-adv-x="1310" d="M195 233l196 168q-2 37 2 60l78 450q4 20 18 58l-135 170l140 118l133 -163q37 18 78 18h294q37 0 68 -18l193 163l98 -118l-195 -166q6 -27 0 -62l-78 -450q-6 -33 -24 -64l137 -164l-139 -118l-135 161q-39 -16 -76 -16h-295q-37 0 -70 16l-190 -161zM569 492 q-4 -31 12.5 -52.5t51.5 -21.5h194q35 0 61 21.5t30 52.5l69 389q6 33 -11.5 53t-53.5 20h-195q-35 0 -58.5 -20.5t-29.5 -52.5z" />
<glyph unicode="&#xa5;" horiz-adv-x="987" d="M190 328l25 133h266l15 84l-21 90h-229l22 137h172l-139 592h201l123 -619l340 619h200l-350 -592h174l-22 -137h-230l-53 -90l-14 -84h266l-25 -133h-266l-57 -328h-189l58 328h-267z" />
<glyph unicode="&#xa6;" horiz-adv-x="483" d="M113 -410l149 854h115l-150 -854h-114zM324 784l149 854h115l-150 -854h-114z" />
<glyph unicode="&#xa7;" horiz-adv-x="1071" d="M135 -172l27 147h180l-20 -116q-6 -37 14 -61.5t57 -24.5h187q39 0 68.5 22.5t35.5 59.5l45 247q10 63 -65 86l-461 144l76 166l505 -158q74 -23 112 -74t26 -127l-56 -315q-16 -90 -88.5 -151.5t-167.5 -61.5h-295q-90 0 -143 63.5t-37 153.5zM322 836l55 315 q16 90 89 151.5t163 61.5h295q92 0 145 -63.5t37 -153.5l-27 -148h-180l21 117q6 35 -14.5 60.5t-55.5 25.5h-188q-39 0 -69 -22.5t-38 -59.5l-43 -248q-10 -61 66 -86l462 -143l-77 -166l-506 158q-74 25 -112 75t-23 126z" />
<glyph unicode="&#xa8;" horiz-adv-x="958" d="M414 1124l35 203h161l-35 -203h-161zM780 1124l35 203h162l-35 -203h-162z" />
<glyph unicode="&#xa9;" horiz-adv-x="1349" d="M188 199l170 966q14 80 83 139.5t151 59.5h645q84 0 131 -59.5t33 -139.5l-170 -966q-14 -80 -83 -139.5t-151 -59.5h-645q-82 0 -130 59.5t-34 139.5zM301 215q-10 -49 16.5 -81t75.5 -32h600q47 0 85 32t48 81l164 934q8 49 -18.5 81t-73.5 32h-600q-49 0 -87 -32 t-46 -81zM508 440l86 484q10 59 56 99t106 40h221q59 0 92 -40t23 -99l-21 -115h-110l16 94q4 25 -9.5 41.5t-37.5 16.5h-162q-25 0 -44 -16.5t-24 -41.5l-77 -440q-4 -27 9 -43.5t38 -16.5h161q25 0 44.5 16.5t23.5 43.5l16 96h111l-20 -119q-10 -59 -57.5 -98t-106.5 -39 h-221q-57 0 -90 39t-23 98z" />
<glyph unicode="&#xaa;" horiz-adv-x="665" d="M276 926l15 82q8 55 48 88.5t97 33.5q119 1 195 -26l20 117q4 20 -8 34.5t-33 14.5h-112q-20 0 -37 -14.5t-21 -34.5l-2 -19h-102l6 39q8 53 50 88t93 35h174q53 0 82 -36t21 -87l-76 -428h-104l4 29q-94 -39 -207 -39q-57 0 -85 33.5t-18 89.5zM385 946q-8 -49 41 -49 q68 0 123 21q53 18 57 49l4 16q6 35 -41 47q-35 8 -118 8q-49 0 -58 -47z" />
<glyph unicode="&#xab;" horiz-adv-x="1026" d="M178 487l354 410l111 -80l-289 -330l174 -329l-139 -76zM571 487l355 410l110 -80l-288 -330l174 -329l-140 -76z" />
<glyph unicode="&#xac;" horiz-adv-x="1130" d="M225 584l29 155h864l-90 -510h-178l61 355h-686z" />
<glyph unicode="&#xad;" horiz-adv-x="679" d="M182 512l29 164h496l-29 -164h-496z" />
<glyph unicode="&#xae;" horiz-adv-x="1009" d="M248 713l86 485q12 70 66.5 118t125.5 48h432q74 0 113 -48t27 -118l-86 -485q-12 -70 -67.5 -118t-129.5 -48h-432q-72 0 -109.5 48t-25.5 118zM328 709q-6 -37 15.5 -61.5t57.5 -24.5h426q37 0 68 24.5t37 61.5l88 493q6 35 -16.5 59.5t-59.5 24.5h-426 q-37 0 -66.5 -24.5t-35.5 -59.5zM504 750l71 413h201q29 0 46.5 -20.5t11.5 -48.5l-19 -109q-4 -27 -22.5 -45t-42.5 -25l61 -165h-68l-59 165h-88l-29 -165h-63zM606 971h121q25 -1 29 24l14 88q2 10 -4 17.5t-16 7.5h-121z" />
<glyph unicode="&#xaf;" horiz-adv-x="931" d="M420 1159l22 131h502l-22 -131h-502z" />
<glyph unicode="&#xb0;" horiz-adv-x="579" d="M324 1075l38 228q4 25 25 43t45 18h191q27 0 42 -18.5t11 -42.5l-39 -228q-6 -25 -27.5 -43t-48.5 -18h-190q-25 0 -39.5 18.5t-7.5 42.5zM389 1087q-4 -16 12 -16h154q16 0 20 16l35 203q2 16 -14 17h-154q-16 0 -18 -17z" />
<glyph unicode="&#xb1;" horiz-adv-x="1171" d="M154 0l26 147h344l70 396h-344l26 155h345l63 355h174l-63 -355h346l-27 -155h-346l-70 -396h346l-26 -147h-864z" />
<glyph unicode="&#xb2;" horiz-adv-x="1486" d="M291 1364h1384l-936 -1384z" />
<glyph unicode="&#xb3;" horiz-adv-x="1486" d="M51 0l936 1384l449 -1384h-1385z" />
<glyph unicode="&#xb4;" horiz-adv-x="745" d="M487 1198l287 221l70 -102l-287 -219z" />
<glyph unicode="&#xb5;" d="M74 -389l241 1360h189l-129 -729q-10 -78 74 -78q80 0 227 55q92 33 100 88l119 664h188l-172 -971h-184l12 70q-100 -39 -206.5 -64.5t-174.5 -25.5q-20 0 -30 2l-66 -371h-188z" />
<glyph unicode="&#xb6;" horiz-adv-x="1124" d="M233 743l93 521q6 41 40.5 70.5t75.5 29.5h758l-239 -1364h-138l219 1237h-149l-270 -1526q-6 -41 -40 -70.5t-77 -29.5h-217l22 121h152q27 0 31 24l155 887h-334q-41 0 -65.5 29.5t-16.5 70.5z" />
<glyph unicode="&#xb7;" horiz-adv-x="518" d="M248 537l45 251h211l-45 -251h-211z" />
<glyph unicode="&#xb8;" horiz-adv-x="710" d="M174 -238l180 306l148 -31l-203 -332z" />
<glyph unicode="&#xb9;" horiz-adv-x="1630" d="M160 -20l248 1404l1282 -702z" />
<glyph unicode="&#xba;" horiz-adv-x="673" d="M279 936l53 305q8 51 50 87t93 36h201q53 0 82.5 -36t21.5 -87l-53 -305q-10 -51 -53 -87t-94 -36h-201q-51 0 -81 36t-19 87zM389 961q-4 -20 8.5 -35t30.5 -15h135q23 0 40.5 15t21.5 35l45 258q4 20 -9.5 33.5t-33.5 13.5h-135q-20 0 -37 -13.5t-21 -33.5z" />
<glyph unicode="&#xbb;" horiz-adv-x="1026" d="M162 158l287 329l-173 330l140 80l211 -410l-355 -405zM555 158l287 329l-172 330l139 80l211 -410l-354 -405z" />
<glyph unicode="&#xbc;" horiz-adv-x="1277" d="M154 0l172 971h970l-172 -971h-970z" />
<glyph unicode="&#xbd;" horiz-adv-x="1691" d="M164 0l239 1364h1364l-239 -1364h-1364z" />
<glyph unicode="&#xbe;" horiz-adv-x="1216" d="M150 -20l178 1011l923 -506z" />
<glyph unicode="&#xbf;" horiz-adv-x="1040" d="M104 -172l50 276q8 41 19 69t38 50.5t45 33.5t68 38l163 84q66 33 78 94l17 94h186l-25 -139q-14 -78 -45.5 -117t-111.5 -75l-166 -80q-47 -23 -63.5 -42.5t-22.5 -58.5l-33 -186q-6 -37 13.5 -61.5t56.5 -24.5h221q37 0 67.5 24.5t36.5 61.5l21 125h188l-28 -166 q-16 -90 -90 -153.5t-166 -63.5h-336q-90 0 -143.5 63.5t-37.5 153.5zM598 719l45 252h211l-45 -252h-211z" />
<glyph unicode="&#xc0;" horiz-adv-x="1216" d="M51 0l705 1364h184l225 -1364h-196l-54 324h-501l-164 -324h-199zM504 500h385l-86 604zM659 1702l105 102l209 -221l-103 -100z" />
<glyph unicode="&#xc1;" horiz-adv-x="1216" d="M51 0l705 1364h184l225 -1364h-196l-54 324h-501l-164 -324h-199zM504 500h385l-86 604zM799 1583l286 221l72 -102l-289 -219z" />
<glyph unicode="&#xc2;" horiz-adv-x="1216" d="M51 0l705 1364h184l225 -1364h-196l-54 324h-501l-164 -324h-199zM504 500h385l-86 604zM616 1538l306 242l221 -242l-94 -90l-156 166l-213 -166z" />
<glyph unicode="&#xc3;" horiz-adv-x="1216" d="M51 0l705 1364h184l225 -1364h-196l-54 324h-501l-164 -324h-199zM504 500h385l-86 604zM612 1526l60 90q29 45 76 62.5t90 -3.5l133 -69q27 -12 45 16l43 68l102 -54l-57 -88q-29 -45 -76 -62.5t-90 3.5l-133 67q-27 12 -45 -14l-43 -67z" />
<glyph unicode="&#xc4;" horiz-adv-x="1216" d="M51 0l705 1364h184l225 -1364h-196l-54 324h-501l-164 -324h-199zM504 500h385l-86 604zM610 1505l35 203h162l-35 -203h-162zM977 1505l35 203h162l-35 -203h-162z" />
<glyph unicode="&#xc5;" horiz-adv-x="1216" d="M51 0l705 1364h184l225 -1364h-196l-54 324h-501l-164 -324h-199zM504 500h385l-86 604zM723 1489l31 168q4 25 23.5 43t45.5 18h174q27 0 41.5 -18.5t10.5 -42.5l-31 -168q-4 -27 -24.5 -44.5t-47.5 -17.5h-174q-27 0 -40 17.5t-9 44.5zM813 1522q-2 -16 14 -17h95 q16 1 18 17l18 102q2 16 -14 16h-94q-16 0 -19 -16z" />
<glyph unicode="&#xc6;" horiz-adv-x="1679" d="M51 0l705 1364h1034l-31 -180h-794l63 -383h582l-31 -178h-522l73 -443h459l-33 -180h-591l-54 328h-497l-168 -328h-195zM500 500h385l-88 592z" />
<glyph unicode="&#xc7;" horiz-adv-x="1185" d="M193 225l161 914q16 94 93 159.5t169 65.5h441q94 0 148.5 -65.5t37.5 -159.5l-39 -219h-194l32 178q6 37 -15 61.5t-58 24.5h-324q-37 0 -66.5 -24.5t-35.5 -61.5l-148 -832q-6 -37 14.5 -61.5t59.5 -24.5h324q37 0 66.5 24.5t35.5 61.5l33 189h194l-41 -230 q-16 -94 -93 -159.5t-171 -65.5h-133l-178 -295l-127 57l139 238h-141q-94 0 -147.5 65.5t-36.5 159.5z" />
<glyph unicode="&#xc8;" horiz-adv-x="1091" d="M164 0l239 1364h803l-30 -180h-609l-69 -398h553l-33 -180h-553l-74 -426h610l-32 -180h-805zM659 1702l105 102l209 -221l-103 -100z" />
<glyph unicode="&#xc9;" horiz-adv-x="1091" d="M164 0l239 1364h803l-30 -180h-609l-69 -398h553l-33 -180h-553l-74 -426h610l-32 -180h-805zM709 1583l286 221l72 -102l-289 -219z" />
<glyph unicode="&#xca;" horiz-adv-x="1091" d="M164 0l239 1364h803l-30 -180h-609l-69 -398h553l-33 -180h-553l-74 -426h610l-32 -180h-805zM578 1538l305 242l221 -242l-94 -90l-156 166l-213 -166z" />
<glyph unicode="&#xcb;" horiz-adv-x="1091" d="M164 0l239 1364h803l-30 -180h-609l-69 -398h553l-33 -180h-553l-74 -426h610l-32 -180h-805zM573 1505l35 203h162l-35 -203h-162zM940 1505l35 203h162l-35 -203h-162z" />
<glyph unicode="&#xcc;" horiz-adv-x="542" d="M174 0l240 1364h194l-239 -1364h-195zM342 1702l104 102l209 -221l-102 -100z" />
<glyph unicode="&#xcd;" horiz-adv-x="542" d="M174 0l240 1364h194l-239 -1364h-195zM465 1583l287 221l71 -102l-288 -219z" />
<glyph unicode="&#xce;" horiz-adv-x="542" d="M174 0l240 1364h194l-239 -1364h-195zM279 1538l305 242l221 -242l-94 -90l-156 166l-213 -166z" />
<glyph unicode="&#xcf;" horiz-adv-x="542" d="M174 0l240 1364h194l-239 -1364h-195zM272 1505l35 203h162l-35 -203h-162zM639 1505l35 203h162l-35 -203h-162z" />
<glyph unicode="&#xd0;" horiz-adv-x="1236" d="M168 604l27 154h155l107 606h641q94 0 148 -65.5t38 -159.5l-162 -914q-16 -94 -93 -159.5t-171 -65.5h-641l107 604h-156zM444 180h390q37 0 65.5 24.5t34.5 61.5l147 832q6 37 -14 61.5t-57 24.5h-389l-76 -426h229l-26 -154h-230z" />
<glyph unicode="&#xd1;" horiz-adv-x="1282" d="M164 0l239 1364h189l399 -1014l178 1014h189l-240 -1364h-188l-400 1010l-178 -1010h-188zM641 1526l59 90q29 45 76 62.5t90 -3.5l133 -69q27 -12 45 16l43 68l103 -54l-57 -88q-29 -45 -76 -62.5t-90 3.5l-133 67q-27 12 -46 -14l-43 -67z" />
<glyph unicode="&#xd2;" horiz-adv-x="1214" d="M193 225l161 914q16 94 93 159.5t169 65.5h459q94 0 148.5 -65.5t38.5 -159.5l-162 -914q-16 -94 -93 -159.5t-171 -65.5h-459q-94 0 -147.5 65.5t-36.5 159.5zM395 266q-6 -37 14.5 -61.5t59.5 -24.5h344q37 0 65.5 24.5t34.5 61.5l148 832q6 37 -14.5 61.5t-57.5 24.5 h-344q-37 0 -66.5 -24.5t-35.5 -61.5zM694 1702l105 102l209 -221l-103 -100z" />
<glyph unicode="&#xd3;" horiz-adv-x="1214" d="M193 225l161 914q16 94 93 159.5t169 65.5h459q94 0 148.5 -65.5t38.5 -159.5l-162 -914q-16 -94 -93 -159.5t-171 -65.5h-459q-94 0 -147.5 65.5t-36.5 159.5zM395 266q-6 -37 14.5 -61.5t59.5 -24.5h344q37 0 65.5 24.5t34.5 61.5l148 832q6 37 -14.5 61.5t-57.5 24.5 h-344q-37 0 -66.5 -24.5t-35.5 -61.5zM752 1583l286 221l72 -102l-289 -219z" />
<glyph unicode="&#xd4;" horiz-adv-x="1214" d="M193 225l161 914q16 94 93 159.5t169 65.5h459q94 0 148.5 -65.5t38.5 -159.5l-162 -914q-16 -94 -93 -159.5t-171 -65.5h-459q-94 0 -147.5 65.5t-36.5 159.5zM395 266q-6 -37 14.5 -61.5t59.5 -24.5h344q37 0 65.5 24.5t34.5 61.5l148 832q6 37 -14.5 61.5t-57.5 24.5 h-344q-37 0 -66.5 -24.5t-35.5 -61.5zM618 1538l306 242l221 -242l-94 -90l-156 166l-213 -166z" />
<glyph unicode="&#xd5;" horiz-adv-x="1214" d="M193 225l161 914q16 94 93 159.5t169 65.5h459q94 0 148.5 -65.5t38.5 -159.5l-162 -914q-16 -94 -93 -159.5t-171 -65.5h-459q-94 0 -147.5 65.5t-36.5 159.5zM395 266q-6 -37 14.5 -61.5t59.5 -24.5h344q37 0 65.5 24.5t34.5 61.5l148 832q6 37 -14.5 61.5t-57.5 24.5 h-344q-37 0 -66.5 -24.5t-35.5 -61.5zM612 1526l60 90q29 45 76 62.5t90 -3.5l133 -69q27 -12 45 16l43 68l102 -54l-57 -88q-29 -45 -76 -62.5t-90 3.5l-133 67q-27 12 -45 -14l-43 -67z" />
<glyph unicode="&#xd6;" horiz-adv-x="1214" d="M193 225l161 914q16 94 93 159.5t169 65.5h459q94 0 148.5 -65.5t38.5 -159.5l-162 -914q-16 -94 -93 -159.5t-171 -65.5h-459q-94 0 -147.5 65.5t-36.5 159.5zM395 266q-6 -37 14.5 -61.5t59.5 -24.5h344q37 0 65.5 24.5t34.5 61.5l148 832q6 37 -14.5 61.5t-57.5 24.5 h-344q-37 0 -66.5 -24.5t-35.5 -61.5zM608 1505l35 203h162l-35 -203h-162zM975 1505l35 203h161l-34 -203h-162z" />
<glyph unicode="&#xd7;" horiz-adv-x="913" d="M166 416l291 248l-205 245l141 119l201 -248l291 248l96 -119l-291 -247l205 -246l-137 -117l-205 246l-291 -248z" />
<glyph unicode="&#xd8;" horiz-adv-x="1214" d="M143 -61l88 122q-55 63 -38 164l161 914q16 94 93 159.5t169 65.5h459q45 0 84 -16l86 118l68 -41l-90 -125q55 -68 39 -161l-162 -914q-16 -94 -93 -159.5t-171 -65.5h-459q-43 0 -84 16l-84 -118zM399 295l633 876q-16 12 -43 13h-344q-37 0 -66.5 -24.5t-35.5 -61.5z M422 193q18 -12 47 -13h344q37 0 65.5 24.5t34.5 61.5l142 803z" />
<glyph unicode="&#xd9;" horiz-adv-x="1189" d="M193 225l200 1139h195l-193 -1098q-6 -37 14.5 -61.5t59.5 -24.5h317q37 0 67 24.5t36 61.5l192 1098h195l-201 -1139q-16 -94 -93 -159.5t-171 -65.5h-434q-94 0 -147.5 65.5t-36.5 159.5zM682 1702l104 102l209 -221l-102 -100z" />
<glyph unicode="&#xda;" horiz-adv-x="1189" d="M193 225l200 1139h195l-193 -1098q-6 -37 14.5 -61.5t59.5 -24.5h317q37 0 67 24.5t36 61.5l192 1098h195l-201 -1139q-16 -94 -93 -159.5t-171 -65.5h-434q-94 0 -147.5 65.5t-36.5 159.5zM741 1583l287 221l72 -102l-289 -219z" />
<glyph unicode="&#xdb;" horiz-adv-x="1189" d="M193 225l200 1139h195l-193 -1098q-6 -37 14.5 -61.5t59.5 -24.5h317q37 0 67 24.5t36 61.5l192 1098h195l-201 -1139q-16 -94 -93 -159.5t-171 -65.5h-434q-94 0 -147.5 65.5t-36.5 159.5zM604 1538l305 242l221 -242l-94 -90l-155 166l-213 -166z" />
<glyph unicode="&#xdc;" horiz-adv-x="1189" d="M193 225l200 1139h195l-193 -1098q-6 -37 14.5 -61.5t59.5 -24.5h317q37 0 67 24.5t36 61.5l192 1098h195l-201 -1139q-16 -94 -93 -159.5t-171 -65.5h-434q-94 0 -147.5 65.5t-36.5 159.5zM596 1505l35 203h162l-35 -203h-162zM963 1505l34 203h162l-35 -203h-161z" />
<glyph unicode="&#xdd;" horiz-adv-x="1028" d="M240 1364h206l203 -602l412 602h207l-559 -819l-97 -545h-196l96 545zM682 1583l287 221l71 -102l-288 -219z" />
<glyph unicode="&#xde;" horiz-adv-x="1118" d="M164 0l239 1364h195l-43 -254h463q92 0 146.5 -65.5t37.5 -159.5l-63 -365q-16 -94 -94 -160.5t-173 -66.5h-462l-52 -293h-194zM442 473h404q37 0 66.5 24.5t35.5 61.5l51 285q6 37 -15 61.5t-58 24.5h-404z" />
<glyph unicode="&#xdf;" horiz-adv-x="1220" d="M164 0l203 1147q16 90 88.5 153.5t162.5 63.5h238q92 0 144.5 -63.5t35.5 -153.5l-63 -361q-8 -47 -5 -63.5t21 -36.5l168 -215q41 -55 52.5 -91t-1.5 -101l-12 -66q-14 -90 -88 -151.5t-166 -61.5h-213q-90 0 -141 63.5t-35 153.5l16 92h168l-12 -67q-6 -39 12.5 -62.5 t57.5 -23.5h125q43 0 69.5 22.5t32.5 59.5l10 47q2 23 -7 40t-36 54l-160 211q-41 53 -50 86t-1 84l64 354q6 37 -15.5 61.5t-58.5 24.5h-119q-37 0 -66.5 -24.5t-35.5 -61.5l-197 -1114h-186z" />
<glyph unicode="&#xe0;" horiz-adv-x="1017" d="M162 197l24 145q18 96 88 156.5t170 60.5q207 0 342 -47l37 207q6 35 -15.5 60.5t-57.5 25.5h-197q-37 0 -66.5 -24.5t-35.5 -61.5l-7 -31h-180l12 68q16 90 89 152.5t165 62.5h310q90 0 142 -63.5t36 -153.5l-133 -754h-185l9 49q-176 -70 -367 -69q-100 0 -148.5 60 t-31.5 157zM350 227q-16 -86 72 -86q127 0 219 35q92 33 102 88l7 41q12 63 -72 82q-68 16 -209 16q-88 0 -104 -86zM541 1317l106 102l209 -221l-102 -100z" />
<glyph unicode="&#xe1;" horiz-adv-x="1017" d="M162 197l24 145q18 96 88 156.5t170 60.5q207 0 342 -47l37 207q6 35 -15.5 60.5t-57.5 25.5h-197q-37 0 -66.5 -24.5t-35.5 -61.5l-7 -31h-180l12 68q16 90 89 152.5t165 62.5h310q90 0 142 -63.5t36 -153.5l-133 -754h-185l9 49q-176 -70 -367 -69q-100 0 -148.5 60 t-31.5 157zM350 227q-16 -86 72 -86q127 0 219 35q92 33 102 88l7 41q12 63 -72 82q-68 16 -209 16q-88 0 -104 -86zM621 1198l286 221l70 -102l-287 -219z" />
<glyph unicode="&#xe2;" horiz-adv-x="1017" d="M162 197l24 145q18 96 88 156.5t170 60.5q207 0 342 -47l37 207q6 35 -15.5 60.5t-57.5 25.5h-197q-37 0 -66.5 -24.5t-35.5 -61.5l-7 -31h-180l12 68q16 90 89 152.5t165 62.5h310q90 0 142 -63.5t36 -153.5l-133 -754h-185l9 49q-176 -70 -367 -69q-100 0 -148.5 60 t-31.5 157zM350 227q-16 -86 72 -86q127 0 219 35q92 33 102 88l7 41q12 63 -72 82q-68 16 -209 16q-88 0 -104 -86zM469 1169l303 242l223 -242l-96 -90l-156 166l-213 -166z" />
<glyph unicode="&#xe3;" horiz-adv-x="1017" d="M162 197l24 145q18 96 88 156.5t170 60.5q207 0 342 -47l37 207q6 35 -15.5 60.5t-57.5 25.5h-197q-37 0 -66.5 -24.5t-35.5 -61.5l-7 -31h-180l12 68q16 90 89 152.5t165 62.5h310q90 0 142 -63.5t36 -153.5l-133 -754h-185l9 49q-176 -70 -367 -69q-100 0 -148.5 60 t-31.5 157zM350 227q-16 -86 72 -86q127 0 219 35q92 33 102 88l7 41q12 63 -72 82q-68 16 -209 16q-88 0 -104 -86zM465 1151l59 90q29 45 76 62.5t90 -3.5l133 -69q27 -12 43 16l45 68l103 -53l-58 -88q-31 -45 -76.5 -62.5t-88.5 2.5l-134 68q-27 12 -45 -15l-43 -67z " />
<glyph unicode="&#xe4;" horiz-adv-x="1017" d="M162 197l24 145q18 96 88 156.5t170 60.5q207 0 342 -47l37 207q6 35 -15.5 60.5t-57.5 25.5h-197q-37 0 -66.5 -24.5t-35.5 -61.5l-7 -31h-180l12 68q16 90 89 152.5t165 62.5h310q90 0 142 -63.5t36 -153.5l-133 -754h-185l9 49q-176 -70 -367 -69q-100 0 -148.5 60 t-31.5 157zM350 227q-16 -86 72 -86q127 0 219 35q92 33 102 88l7 41q12 63 -72 82q-68 16 -209 16q-88 0 -104 -86zM461 1124l35 203h161l-34 -203h-162zM827 1124l35 203h162l-35 -203h-162z" />
<glyph unicode="&#xe5;" horiz-adv-x="1017" d="M162 197l24 145q18 96 88 156.5t170 60.5q207 0 342 -47l37 207q6 35 -15.5 60.5t-57.5 25.5h-197q-37 0 -66.5 -24.5t-35.5 -61.5l-7 -31h-180l12 68q16 90 89 152.5t165 62.5h310q90 0 142 -63.5t36 -153.5l-133 -754h-185l9 49q-176 -70 -367 -69q-100 0 -148.5 60 t-31.5 157zM350 227q-16 -86 72 -86q127 0 219 35q92 33 102 88l7 41q12 63 -72 82q-68 16 -209 16q-88 0 -104 -86zM575 1145l29 168q4 25 24.5 43t45.5 18h174q27 0 41 -18.5t10 -42.5l-29 -168q-6 -27 -26.5 -44.5t-46.5 -17.5h-174q-25 0 -39.5 17.5t-8.5 44.5z M664 1178q-2 -16 14 -17h94q17 1 19 17l18 102q4 16 -12 16h-95q-16 0 -20 -16z" />
<glyph unicode="&#xe6;" horiz-adv-x="1585" d="M168 197l25 145q18 96 87.5 156.5t170.5 60.5q209 0 344 -47l36 207q6 35 -15 60.5t-58 25.5h-197q-37 0 -66.5 -24.5t-35.5 -61.5l-6 -35h-181l13 72q16 90 88.5 152.5t165.5 62.5h309q66 0 115 -37q61 37 129 37h325q90 0 142.5 -63.5t35.5 -153.5l-57 -326h-569 l-31 -176q-6 -37 13.5 -61.5t56.5 -24.5h213q37 0 66.5 24.5t35.5 61.5l6 39h182l-12 -76q-16 -90 -90 -152.5t-164 -62.5h-325q-98 0 -148 72l-55 -25q-170 -68 -369 -67q-100 0 -148 60t-32 157zM360 233q-14 -86 74 -86q123 0 217 35q93 33 101 88l6 29q10 63 -72 82 q-68 16 -209 16q-88 0 -102 -86zM997 592h387l23 129q6 37 -14.5 61.5t-59.5 24.5h-213q-37 0 -65.5 -24.5t-34.5 -61.5z" />
<glyph unicode="&#xe7;" horiz-adv-x="999" d="M172 217l94 537q16 90 89 153.5t165 63.5h322q90 0 142 -63.5t36 -153.5l-21 -115h-182l12 74q8 37 -13 61.5t-58 24.5h-209q-37 0 -65.5 -24.5t-37.5 -61.5l-79 -455q-6 -37 14 -61.5t57 -24.5h209q37 0 67 24.5t36 61.5l14 84h182l-20 -125q-16 -90 -90 -153.5 t-166 -63.5h-70l-178 -295l-127 57l139 238h-86q-90 0 -141 63.5t-35 153.5z" />
<glyph unicode="&#xe8;" horiz-adv-x="1013" d="M172 217l94 537q16 90 89 153.5t165 63.5h326q90 0 142 -63.5t36 -153.5l-57 -326h-570l-30 -176q-6 -37 13 -61.5t56 -24.5h213q37 0 66.5 24.5t36.5 61.5l6 43h182l-12 -80q-16 -90 -90 -152.5t-164 -62.5h-326q-90 0 -141 63.5t-35 153.5zM426 592h387l23 129 q6 37 -14.5 61.5t-59.5 24.5h-213q-37 0 -65.5 -24.5t-34.5 -61.5zM512 1317l106 102l209 -221l-102 -100z" />
<glyph unicode="&#xe9;" horiz-adv-x="1013" d="M172 217l94 537q16 90 89 153.5t165 63.5h326q90 0 142 -63.5t36 -153.5l-57 -326h-570l-30 -176q-6 -37 13 -61.5t56 -24.5h213q37 0 66.5 24.5t36.5 61.5l6 43h182l-12 -80q-16 -90 -90 -152.5t-164 -62.5h-326q-90 0 -141 63.5t-35 153.5zM426 592h387l23 129 q6 37 -14.5 61.5t-59.5 24.5h-213q-37 0 -65.5 -24.5t-34.5 -61.5zM588 1198l286 221l70 -102l-287 -219z" />
<glyph unicode="&#xea;" horiz-adv-x="1013" d="M172 217l94 537q16 90 89 153.5t165 63.5h326q90 0 142 -63.5t36 -153.5l-57 -326h-570l-30 -176q-6 -37 13 -61.5t56 -24.5h213q37 0 66.5 24.5t36.5 61.5l6 43h182l-12 -80q-16 -90 -90 -152.5t-164 -62.5h-326q-90 0 -141 63.5t-35 153.5zM426 592h387l23 129 q6 37 -14.5 61.5t-59.5 24.5h-213q-37 0 -65.5 -24.5t-34.5 -61.5zM465 1169l303 242l223 -242l-96 -90l-156 166l-213 -166z" />
<glyph unicode="&#xeb;" horiz-adv-x="1013" d="M172 217l94 537q16 90 89 153.5t165 63.5h326q90 0 142 -63.5t36 -153.5l-57 -326h-570l-30 -176q-6 -37 13 -61.5t56 -24.5h213q37 0 66.5 24.5t36.5 61.5l6 43h182l-12 -80q-16 -90 -90 -152.5t-164 -62.5h-326q-90 0 -141 63.5t-35 153.5zM426 592h387l23 129 q6 37 -14.5 61.5t-59.5 24.5h-213q-37 0 -65.5 -24.5t-34.5 -61.5zM451 1124l34 203h162l-35 -203h-161zM817 1124l35 203h162l-35 -203h-162z" />
<glyph unicode="&#xec;" horiz-adv-x="516" d="M164 0l172 971h188l-172 -971h-188zM256 1317l106 102l209 -221l-102 -100z" />
<glyph unicode="&#xed;" horiz-adv-x="516" d="M164 0l172 971h188l-172 -971h-188zM371 1198l286 221l70 -102l-287 -219z" />
<glyph unicode="&#xee;" horiz-adv-x="516" d="M164 0l172 971h188l-172 -971h-188zM203 1169l303 242l223 -242l-96 -90l-156 166l-213 -166z" />
<glyph unicode="&#xef;" horiz-adv-x="516" d="M164 0l172 971h188l-172 -971h-188zM193 1124l34 203h162l-35 -203h-161zM559 1124l35 203h162l-35 -203h-162z" />
<glyph unicode="&#xf0;" horiz-adv-x="1026" d="M172 217l66 377q16 96 85.5 156.5t172.5 60.5q76 0 184 -18.5t184 -53.5l64 367q4 14 0 31l-180 -170l-43 45l184 174q-14 6 -31 6h-364l28 172h424q59 0 103 -29l114 109l43 -45l-112 -107q45 -61 30 -145l-163 -930q-16 -90 -90 -153.5t-164 -63.5h-355 q-90 0 -143 63.5t-37 153.5zM367 258q-6 -37 15 -61.5t58 -24.5h238q37 0 65.5 24.5t34.5 61.5l41 234q13 65 -67 98q-96 41 -232 41q-88 0 -102 -86z" />
<glyph unicode="&#xf1;" d="M154 0l172 971h184l-12 -70q98 39 205.5 64.5t173.5 25.5q102 0 150 -60.5t32 -156.5l-137 -774h-189l127 721q8 41 -11.5 63.5t-62.5 22.5q-78 0 -225 -55q-92 -33 -102 -88l-117 -664h-188zM492 1151l59 90q29 45 76 62.5t90 -3.5l133 -69q27 -12 43 16l45 68l102 -53 l-57 -88q-31 -45 -77 -62.5t-89 2.5l-133 68q-27 12 -45 -15l-43 -67z" />
<glyph unicode="&#xf2;" horiz-adv-x="1056" d="M172 217l94 537q16 90 89 153.5t165 63.5h357q90 0 143 -63.5t37 -153.5l-94 -537q-16 -90 -92 -153.5t-166 -63.5h-357q-90 0 -141 63.5t-35 153.5zM367 258q-6 -37 14 -61.5t57 -24.5h240q37 0 66.5 24.5t35.5 61.5l80 455q8 37 -13.5 61.5t-58.5 24.5h-239 q-37 0 -65.5 -24.5t-37.5 -61.5zM547 1317l106 102l209 -221l-102 -100z" />
<glyph unicode="&#xf3;" horiz-adv-x="1056" d="M172 217l94 537q16 90 89 153.5t165 63.5h357q90 0 143 -63.5t37 -153.5l-94 -537q-16 -90 -92 -153.5t-166 -63.5h-357q-90 0 -141 63.5t-35 153.5zM367 258q-6 -37 14 -61.5t57 -24.5h240q37 0 66.5 24.5t35.5 61.5l80 455q8 37 -13.5 61.5t-58.5 24.5h-239 q-37 0 -65.5 -24.5t-37.5 -61.5zM623 1198l286 221l70 -102l-287 -219z" />
<glyph unicode="&#xf4;" horiz-adv-x="1056" d="M172 217l94 537q16 90 89 153.5t165 63.5h357q90 0 143 -63.5t37 -153.5l-94 -537q-16 -90 -92 -153.5t-166 -63.5h-357q-90 0 -141 63.5t-35 153.5zM367 258q-6 -37 14 -61.5t57 -24.5h240q37 0 66.5 24.5t35.5 61.5l80 455q8 37 -13.5 61.5t-58.5 24.5h-239 q-37 0 -65.5 -24.5t-37.5 -61.5zM473 1169l303 242l223 -242l-96 -90l-155 166l-213 -166z" />
<glyph unicode="&#xf5;" horiz-adv-x="1056" d="M172 217l94 537q16 90 89 153.5t165 63.5h357q90 0 143 -63.5t37 -153.5l-94 -537q-16 -90 -92 -153.5t-166 -63.5h-357q-90 0 -141 63.5t-35 153.5zM367 258q-6 -37 14 -61.5t57 -24.5h240q37 0 66.5 24.5t35.5 61.5l80 455q8 37 -13.5 61.5t-58.5 24.5h-239 q-37 0 -65.5 -24.5t-37.5 -61.5zM473 1151l59 90q29 45 76 62.5t90 -3.5l133 -69q27 -12 43 16l46 68l102 -53l-57 -88q-31 -45 -77 -62.5t-89 2.5l-133 68q-27 12 -45 -15l-43 -67z" />
<glyph unicode="&#xf6;" horiz-adv-x="1056" d="M172 217l94 537q16 90 89 153.5t165 63.5h357q90 0 143 -63.5t37 -153.5l-94 -537q-16 -90 -92 -153.5t-166 -63.5h-357q-90 0 -141 63.5t-35 153.5zM367 258q-6 -37 14 -61.5t57 -24.5h240q37 0 66.5 24.5t35.5 61.5l80 455q8 37 -13.5 61.5t-58.5 24.5h-239 q-37 0 -65.5 -24.5t-37.5 -61.5zM463 1124l35 203h161l-34 -203h-162zM829 1124l35 203h162l-35 -203h-162z" />
<glyph unicode="&#xf7;" horiz-adv-x="1122" d="M236 584l28 155h856l-28 -155h-856zM487 158l45 262h205l-45 -262h-205zM618 903l46 262h204l-45 -262h-205z" />
<glyph unicode="&#xf8;" horiz-adv-x="1056" d="M123 -55l90 110q-59 63 -41 162l94 537q16 90 89 153.5t165 63.5h357q43 0 71 -15l96 117l62 -45l-94 -113q61 -68 45 -161l-94 -537q-16 -90 -92 -153.5t-166 -63.5h-357q-41 0 -72 12l-94 -114zM365 242l450 553q-14 4 -27 4h-239q-37 0 -65.5 -24.5t-37.5 -61.5z M410 176q8 -4 28 -4h240q37 0 66.5 24.5t35.5 61.5l80 455q2 4 2 10v8z" />
<glyph unicode="&#xf9;" d="M178 197l137 774h189l-127 -721q-8 -41 11.5 -63.5t60.5 -22.5q80 0 227 55q92 33 100 88l119 664h188l-172 -971h-184l12 70q-100 -39 -206.5 -64.5t-174.5 -25.5q-100 0 -148 60t-32 157zM537 1317l106 102l209 -221l-102 -100z" />
<glyph unicode="&#xfa;" d="M178 197l137 774h189l-127 -721q-8 -41 11.5 -63.5t60.5 -22.5q80 0 227 55q92 33 100 88l119 664h188l-172 -971h-184l12 70q-100 -39 -206.5 -64.5t-174.5 -25.5q-100 0 -148 60t-32 157zM623 1198l286 221l70 -102l-287 -219z" />
<glyph unicode="&#xfb;" d="M178 197l137 774h189l-127 -721q-8 -41 11.5 -63.5t60.5 -22.5q80 0 227 55q92 33 100 88l119 664h188l-172 -971h-184l12 70q-100 -39 -206.5 -64.5t-174.5 -25.5q-100 0 -148 60t-32 157zM473 1169l303 242l223 -242l-96 -90l-155 166l-213 -166z" />
<glyph unicode="&#xfc;" d="M178 197l137 774h189l-127 -721q-8 -41 11.5 -63.5t60.5 -22.5q80 0 227 55q92 33 100 88l119 664h188l-172 -971h-184l12 70q-100 -39 -206.5 -64.5t-174.5 -25.5q-100 0 -148 60t-32 157zM469 1124l35 203h162l-35 -203h-162zM836 1124l34 203h162l-35 -203h-161z" />
<glyph unicode="&#xfd;" horiz-adv-x="913" d="M172 -389l188 391l-157 969h200l99 -725l360 725h197l-500 -971l-199 -389h-188zM553 1198l287 221l69 -102l-286 -219z" />
<glyph unicode="&#xfe;" horiz-adv-x="1054" d="M84 -389l309 1753h185l-80 -463q98 39 205.5 64.5t173.5 25.5q102 0 150 -60.5t32 -156.5l-103 -577q-16 -96 -85.5 -156.5t-172.5 -60.5q-66 0 -162 24.5t-182 63.5l-82 -457h-188zM395 301q-10 -53 72 -86q127 -55 207 -55q88 0 102 86l84 479q8 41 -11.5 63.5 t-60.5 22.5q-80 0 -227 -55q-92 -33 -102 -88z" />
<glyph unicode="&#xff;" horiz-adv-x="913" d="M172 -389l188 391l-157 969h200l99 -725l360 725h197l-500 -971l-199 -389h-188zM393 1124l35 203h162l-35 -203h-162zM760 1124l35 203h161l-34 -203h-162z" />
<glyph unicode="&#x152;" horiz-adv-x="1796" d="M193 225l161 914q16 94 93 159.5t169 65.5h1295l-31 -180h-608l-70 -398h553l-33 -180h-553l-73 -426h610l-33 -180h-1296q-94 0 -147.5 65.5t-36.5 159.5zM395 266q-6 -37 14.5 -61.5t59.5 -24.5h432l176 1004h-432q-37 0 -66.5 -24.5t-35.5 -61.5z" />
<glyph unicode="&#x153;" horiz-adv-x="1615" d="M172 217l94 537q16 90 89 153.5t165 63.5h357q37 0 66.5 -19.5t43.5 -48.5q23 27 60.5 47.5t74.5 20.5h326q90 0 142 -63.5t36 -153.5l-57 -322h-570l-30 -182q-8 -35 13.5 -59.5t55.5 -24.5h213q37 0 67 24.5t36 61.5l6 41h182l-12 -78q-16 -90 -90 -152.5t-164 -62.5 h-326q-70 0 -110 66q-61 -66 -135 -66h-357q-90 0 -141 63.5t-35 153.5zM367 258q-6 -37 14 -61.5t57 -24.5h240q37 0 66.5 24.5t35.5 61.5l82 461q2 35 -18.5 57.5t-55.5 22.5h-239q-37 0 -65.5 -24.5t-37.5 -61.5zM1028 590h387l23 131q6 37 -14.5 61.5t-57.5 24.5h-215 q-35 0 -63.5 -22.5t-34.5 -57.5z" />
<glyph unicode="&#x178;" horiz-adv-x="1028" d="M240 1364h206l203 -602l412 602h207l-559 -819l-97 -545h-196l96 545zM516 1505l35 203h162l-35 -203h-162zM883 1505l35 203h161l-35 -203h-161z" />
<glyph unicode="&#x2c6;" horiz-adv-x="956" d="M422 1169l303 242l223 -242l-96 -90l-156 166l-213 -166z" />
<glyph unicode="&#x2dc;" horiz-adv-x="958" d="M418 1151l59 90q29 45 76 62.5t90 -3.5l133 -69q27 -12 43 16l45 68l103 -53l-58 -88q-31 -45 -77 -62.5t-89 2.5l-133 68q-27 12 -45 -15l-43 -67z" />
<glyph unicode="&#x2000;" horiz-adv-x="902" />
<glyph unicode="&#x2001;" horiz-adv-x="1804" />
<glyph unicode="&#x2002;" horiz-adv-x="902" />
<glyph unicode="&#x2003;" horiz-adv-x="1804" />
<glyph unicode="&#x2004;" horiz-adv-x="601" />
<glyph unicode="&#x2005;" horiz-adv-x="451" />
<glyph unicode="&#x2006;" horiz-adv-x="300" />
<glyph unicode="&#x2007;" horiz-adv-x="300" />
<glyph unicode="&#x2008;" horiz-adv-x="225" />
<glyph unicode="&#x2009;" horiz-adv-x="360" />
<glyph unicode="&#x200a;" horiz-adv-x="100" />
<glyph unicode="&#x2010;" horiz-adv-x="679" d="M182 512l29 164h496l-29 -164h-496z" />
<glyph unicode="&#x2011;" horiz-adv-x="679" d="M182 512l29 164h496l-29 -164h-496z" />
<glyph unicode="&#x2012;" horiz-adv-x="679" d="M182 512l29 164h496l-29 -164h-496z" />
<glyph unicode="&#x2013;" horiz-adv-x="913" d="M182 512l29 164h729l-29 -164h-729z" />
<glyph unicode="&#x2014;" horiz-adv-x="1200" d="M182 512l29 164h1016l-29 -164h-1016z" />
<glyph unicode="&#x2018;" horiz-adv-x="450" d="M279 881l45 252l170 249l90 -51l-135 -198h86l-46 -252h-210z" />
<glyph unicode="&#x2019;" horiz-adv-x="430" d="M264 913l135 199h-86l43 252h211l-43 -252l-172 -250z" />
<glyph unicode="&#x201a;" horiz-adv-x="481" d="M88 -199l135 199h-86l45 252h211l-45 -252l-172 -250z" />
<glyph unicode="&#x201c;" horiz-adv-x="823" d="M279 881l45 252l170 249l90 -51l-135 -198h86l-46 -252h-210zM651 881l45 252l170 249l90 -51l-135 -198h86l-45 -252h-211z" />
<glyph unicode="&#x201d;" horiz-adv-x="823" d="M264 913l135 199h-86l43 252h211l-43 -252l-172 -250zM637 913l135 199h-86l43 252h211l-43 -252l-172 -250z" />
<glyph unicode="&#x201e;" horiz-adv-x="854" d="M88 -199l135 199h-86l45 252h211l-45 -252l-172 -250zM461 -199l135 199h-86l45 252h211l-45 -252l-172 -250z" />
<glyph unicode="&#x2022;" horiz-adv-x="731" d="M260 659q16 90 93 156t167 66q92 0 146.5 -65.5t38.5 -156.5q-16 -92 -93 -157.5t-170 -65.5q-92 0 -145 65.5t-37 157.5z" />
<glyph unicode="&#x2026;" horiz-adv-x="1554" d="M154 0l45 252h211l-45 -252h-211zM672 0l45 252h211l-45 -252h-211zM1190 0l45 252h211l-45 -252h-211z" />
<glyph unicode="&#x202f;" horiz-adv-x="360" />
<glyph unicode="&#x2039;" horiz-adv-x="632" d="M178 487l354 410l111 -80l-289 -330l174 -329l-139 -76z" />
<glyph unicode="&#x203a;" horiz-adv-x="632" d="M162 158l287 329l-173 330l140 80l211 -410l-355 -405z" />
<glyph unicode="&#x205f;" horiz-adv-x="451" />
<glyph unicode="&#x20ac;" horiz-adv-x="1159" d="M164 453l22 127h152l33 188h-152l23 127h151l45 252q16 90 89 153.5t163 63.5h346q92 0 145.5 -63.5t37.5 -153.5l-33 -186h-176l26 155q6 37 -13 61.5t-56 24.5h-244q-37 0 -66.5 -24.5t-35.5 -61.5l-39 -221h274l-22 -127h-275l-33 -188h275l-23 -127h-274l-37 -205 q-6 -37 14.5 -61.5t57.5 -24.5h243q37 0 66 24.5t35 61.5l30 168h177l-35 -199q-16 -90 -91 -153.5t-167 -63.5h-346q-90 0 -141.5 63.5t-35.5 153.5l41 236h-151z" />
<glyph unicode="&#x2122;" horiz-adv-x="1359" d="M336 1272l16 92h459l-16 -92h-181l-90 -518h-98l90 518h-180zM805 754l106 610h97l110 -373l242 373h96l-106 -610h-99l70 401l-182 -291h-84l-82 289l-70 -399h-98z" />
<glyph unicode="&#xe000;" horiz-adv-x="972" d="M0 0v973h973v-973h-973z" />
</font>
</defs>
</svg>
