<?xml version="1.0" standalone="no"?>
<!DOCTYPE svg PUBLIC "-//W3C//DTD SVG 1.1//EN" "http://www.w3.org/Graphics/SVG/1.1/DTD/svg11.dtd" >
<svg xmlns="http://www.w3.org/2000/svg">
<metadata></metadata>
<defs>
<font id="stratum2medium" horiz-adv-x="1064" >
<font-face units-per-em="2048" ascent="1577" descent="-471" />
<missing-glyph horiz-adv-x="442" />
<glyph unicode="&#xfb01;" horiz-adv-x="1204" d="M72 813v158h141v186q0 90 62.5 153.5t152.5 63.5h238v-164h-179q-37 0 -61.5 -24.5t-24.5 -61.5v-153h256v-158h-256v-813h-188v813h-141zM852 0v971h188v-971h-188zM852 1133v241h188v-241h-188z" />
<glyph unicode="&#xfb02;" horiz-adv-x="1185" d="M72 813v158h141v176q0 90 62.5 153.5t152.5 63.5h238v-164h-179q-37 0 -61.5 -24.5t-24.5 -61.5v-143h256v-158h-256v-813h-188v813h-141zM844 0v1364h188v-1364h-188z" />
<glyph horiz-adv-x="2048" />
<glyph horiz-adv-x="2048" />
<glyph unicode="&#xd;" horiz-adv-x="681" />
<glyph unicode=" "  horiz-adv-x="442" />
<glyph unicode="&#x09;" horiz-adv-x="442" />
<glyph unicode="&#xa0;" horiz-adv-x="442" />
<glyph unicode="!" horiz-adv-x="536" d="M164 0v252h209v-252h-209zM174 803v561h188v-561l-34 -385h-121z" />
<glyph unicode="&#x22;" horiz-adv-x="733" d="M113 821v543h149v-543h-149zM469 821v543h152v-543h-152z" />
<glyph unicode="#" horiz-adv-x="1460" d="M92 403l21 129h270l49 306h-270l20 125h273l67 401h137l-67 -401h362l68 401h137l-67 -401h276l-20 -125h-279l-47 -306h274l-20 -129h-277l-67 -403h-137l67 403h-362l-68 -403h-137l67 403h-270zM520 532h365l47 306h-361z" />
<glyph unicode="$" horiz-adv-x="1032" d="M154 217v162h186v-135q0 -35 24.5 -60.5t61.5 -25.5h188q37 0 61.5 22.5t24.5 59.5v247q0 63 -77 88l-291 93q-78 25 -126 75t-48 123v285q0 90 62.5 151.5t154.5 61.5h74v213h145v-213h65q92 0 156 -63.5t64 -153.5v-160h-187v133q0 35 -24.5 60.5t-63.5 25.5h-166 q-41 0 -66.5 -22.5t-25.5 -59.5v-219q0 -57 78 -84l295 -100q170 -59 170 -201v-307q0 -90 -63.5 -151.5t-155.5 -61.5h-76v-213h-145v213h-80q-90 0 -152.5 63.5t-62.5 153.5z" />
<glyph unicode="%" horiz-adv-x="2000" d="M143 793v370q0 82 60.5 141.5t144.5 59.5h246q84 0 145.5 -59.5t61.5 -141.5v-370q0 -82 -61.5 -141.5t-145.5 -59.5h-246q-84 0 -144.5 59.5t-60.5 141.5zM303 838q0 -96 96 -97h146q96 0 96 97v280q0 96 -96 96h-146q-96 0 -96 -96v-280zM582 0l678 1364h167 l-677 -1364h-168zM1200 201v370q0 82 60.5 141.5t144.5 59.5h246q84 0 145.5 -59.5t61.5 -141.5v-370q0 -82 -61.5 -141.5t-145.5 -59.5h-246q-84 0 -144.5 59.5t-60.5 141.5zM1360 246q0 -96 96 -96h146q96 0 96 96v280q0 96 -96 97h-146q-96 -1 -96 -97v-280z" />
<glyph unicode="&#x26;" horiz-adv-x="1228" d="M143 217v330q0 117 111 164q-57 31 -77.5 77t-20.5 132v227q0 90 63.5 153.5t153.5 63.5h301q100 0 168.5 -59.5t68.5 -157.5v-135h-184v94q0 37 -24.5 61.5t-61.5 24.5h-211q-37 0 -62.5 -24.5t-25.5 -61.5v-236q0 -80 82 -79h774v-173h-219v-401q0 -90 -64.5 -153.5 t-154.5 -63.5h-402q-90 0 -152.5 63.5t-62.5 153.5zM332 258q0 -37 24.5 -61.5t61.5 -24.5h289q37 0 62.5 24.5t25.5 61.5v360h-377q-39 0 -62.5 -21.5t-23.5 -57.5v-281z" />
<glyph unicode="'" horiz-adv-x="374" d="M113 821v543h149v-543h-149z" />
<glyph unicode="(" horiz-adv-x="540" d="M164 -119v1405q0 96 65 162l170 156l131 -140l-151 -149q-27 -27 -27 -64v-1335q0 -37 27 -63l151 -150l-131 -139l-170 155q-66 66 -65 162z" />
<glyph unicode=")" horiz-adv-x="540" d="M10 -297l152 150q26 26 26 63v1335q0 37 -26 64l-152 149l131 140l170 -156q66 -66 66 -162v-1405q0 -96 -66 -162l-170 -155z" />
<glyph unicode="*" horiz-adv-x="903" d="M72 975v100h284l-159 242l86 57l168 -256l167 256l87 -57l-162 -242h288v-100h-286l157 -236l-86 -55l-165 250l-166 -250l-86 55l155 236h-282z" />
<glyph unicode="+" horiz-adv-x="1110" d="M123 584v155h344v355h174v-355h346v-155h-346v-355h-174v355h-344z" />
<glyph unicode="," horiz-adv-x="481" d="M123 -199l100 199h-86v252h211v-252l-127 -250z" />
<glyph unicode="-" horiz-adv-x="679" d="M92 512v164h496v-164h-496z" />
<glyph unicode="." horiz-adv-x="518" d="M154 0v252h211v-252h-211z" />
<glyph unicode="/" horiz-adv-x="901" d="M72 -240l592 1624h155l-592 -1624h-155z" />
<glyph unicode="0" horiz-adv-x="1116" d="M154 217v930q0 90 62.5 153.5t152.5 63.5h374q92 0 156 -63.5t64 -153.5v-930q0 -90 -63.5 -153.5t-156.5 -63.5h-374q-90 0 -152.5 63.5t-62.5 153.5zM342 258q0 -37 24.5 -61.5t61.5 -24.5h260q37 0 61.5 24.5t24.5 61.5v848q0 37 -24.5 61.5t-61.5 24.5h-260 q-37 0 -61.5 -24.5t-24.5 -61.5v-848z" />
<glyph unicode="1" horiz-adv-x="733" d="M16 1057v188l365 119h188v-1364h-188v1176z" />
<glyph unicode="2" horiz-adv-x="1056" d="M133 0v459q0 82 44 123t142 82l320 129q43 18 61.5 36.5t18.5 51.5v225q0 37 -24.5 61.5t-63.5 24.5h-221q-37 0 -61.5 -24.5t-24.5 -61.5v-131h-189v172q0 90 62.5 153.5t152.5 63.5h338q92 0 155.5 -63.5t63.5 -153.5v-305q0 -72 -34.5 -112t-118.5 -77l-351 -147 q-43 -18 -62 -37.5t-19 -52.5v-244h591v-172h-780z" />
<glyph unicode="3" horiz-adv-x="1054" d="M123 217v154h186v-113q0 -37 25.5 -61.5t62.5 -24.5h238q37 0 62.5 24.5t25.5 61.5v264q0 37 -25.5 61.5t-62.5 24.5h-305v172h303q35 0 57.5 24.5t22.5 61.5v240q0 37 -24.5 61.5t-61.5 24.5h-224q-37 0 -62.5 -24.5t-25.5 -61.5v-107h-186v148q0 90 63.5 153.5 t153.5 63.5h336q92 0 155.5 -63.5t63.5 -153.5v-295q0 -104 -98 -152q109 -45 108 -161v-322q0 -90 -64.5 -153.5t-154.5 -63.5h-354q-90 0 -152.5 63.5t-62.5 153.5z" />
<glyph unicode="4" horiz-adv-x="1081" d="M41 354v162l584 848h188v-848h238v-162h-238v-354h-188v354h-584zM246 516h379v563z" />
<glyph unicode="5" horiz-adv-x="1060" d="M143 217v76h189v-35q0 -37 24.5 -61.5t61.5 -24.5h233q37 0 62.5 24.5t25.5 61.5v315q0 86 -88 86q-166 0 -227 -24q-86 -33 -86 -98v-45l-188 12v860h761v-172h-573v-410q133 55 371 56q100 0 159.5 -60.5t59.5 -156.5v-404q0 -90 -64.5 -153.5t-154.5 -63.5h-351 q-90 0 -152.5 63.5t-62.5 153.5z" />
<glyph unicode="6" horiz-adv-x="1085" d="M154 217v930q0 90 62.5 153.5t152.5 63.5h344q92 0 154.5 -63.5t62.5 -153.5v-139h-189v98q0 37 -25.5 61.5t-62.5 24.5h-225q-37 0 -61.5 -24.5t-24.5 -61.5v-395q174 72 381 71q100 0 159.5 -60.5t59.5 -156.5v-348q0 -90 -64.5 -153.5t-154.5 -63.5h-354 q-90 0 -152.5 63.5t-62.5 153.5zM342 258q0 -37 24.5 -61.5t61.5 -24.5h238q37 0 62.5 24.5t25.5 61.5v258q0 86 -88 86q-136 0 -238 -41q-86 -33 -86 -98v-205z" />
<glyph unicode="7" horiz-adv-x="901" d="M37 1192v172h792v-160l-440 -1204h-194l446 1192h-604z" />
<glyph unicode="8" horiz-adv-x="1118" d="M154 217v322q0 115 108 163q-96 49 -96 152v293q0 90 62.5 153.5t152.5 63.5h354q90 0 154.5 -63.5t64.5 -153.5v-293q0 -98 -98 -154q109 -47 109 -161v-322q0 -90 -63.5 -153.5t-156.5 -63.5h-376q-90 0 -152.5 63.5t-62.5 153.5zM342 258q0 -37 24.5 -61.5t61.5 -24.5 h262q37 0 62.5 24.5t25.5 61.5v264q0 37 -25.5 61.5t-62.5 24.5h-262q-37 0 -61.5 -24.5t-24.5 -61.5v-264zM352 866q0 -35 24.5 -60.5t61.5 -25.5h248q33 0 56.5 25.5t23.5 60.5v240q0 37 -25.5 61.5t-62.5 24.5h-238q-37 0 -62.5 -24.5t-25.5 -61.5v-240z" />
<glyph unicode="9" horiz-adv-x="1085" d="M143 793v354q0 90 64.5 153.5t154.5 63.5h355q90 0 152.5 -63.5t62.5 -153.5v-930q0 -90 -62.5 -153.5t-152.5 -63.5h-348q-92 0 -154.5 63.5t-62.5 153.5v139h188v-98q0 -37 25.5 -61.5t62.5 -24.5h229q37 0 61.5 24.5t24.5 61.5v389q-174 -72 -381 -72 q-100 0 -159.5 61t-59.5 157zM332 842q0 -86 88 -86q135 0 237 41q86 33 86 98v211q0 37 -24.5 61.5t-61.5 24.5h-237q-37 0 -62.5 -24.5t-25.5 -61.5v-264z" />
<glyph unicode=":" horiz-adv-x="518" d="M154 0v252h211v-252h-211zM154 651v252h211v-252h-211z" />
<glyph unicode=";" horiz-adv-x="501" d="M123 -199l100 199h-86v252h211v-252l-127 -250zM135 651v252h213v-252h-213z" />
<glyph unicode="&#x3c;" horiz-adv-x="1144" d="M123 604v115l815 395l63 -137l-679 -315l679 -316l-63 -137z" />
<glyph unicode="=" horiz-adv-x="1069" d="M133 393v158h803v-158h-803zM133 772v156h803v-156h-803z" />
<glyph unicode="&#x3e;" horiz-adv-x="1144" d="M143 346l680 316l-680 315l64 137l815 -395v-115l-815 -395z" />
<glyph unicode="?" horiz-adv-x="1040" d="M133 981v166q0 90 63.5 153.5t153.5 63.5h336q92 0 155.5 -63.5t63.5 -153.5v-277q0 -53 -18.5 -89t-40 -51t-78.5 -50q-84 -49 -147 -84q-61 -33 -62 -94v-99h-186v144q0 78 25.5 116.5t97.5 75.5l151 80q43 23 56.5 42.5t13.5 58.5v186q0 37 -24.5 61.5t-61.5 24.5 h-221q-37 0 -62.5 -24.5t-25.5 -61.5v-125h-189zM362 0v252h211v-252h-211z" />
<glyph unicode="@" horiz-adv-x="1206" d="M154 205v954q0 86 63.5 145.5t159.5 59.5h452q96 0 160 -59.5t64 -145.5v-659h-140v37q-117 -51 -278 -52q-74 0 -117 44t-43 114v178q0 70 43 113t117 43q169 0 278 -33v180q0 53 -32.5 84t-89.5 31h-373q-57 0 -90 -30.5t-33 -84.5v-884q0 -53 32.5 -84t90.5 -31h588 v-125h-629q-96 0 -159.5 59.5t-63.5 145.5zM610 670q0 -61 64 -62q104 0 178 25q59 20 59 63v95q0 47 -59 57q-66 12 -178 12q-63 0 -64 -61v-129z" />
<glyph unicode="A" horiz-adv-x="1216" d="M51 0l465 1364h184l465 -1364h-196l-111 324h-502l-106 -324h-199zM416 500h385l-193 604z" />
<glyph unicode="B" horiz-adv-x="1183" d="M164 0v1364h645q92 0 155.5 -63.5t63.5 -153.5v-277q0 -53 -32.5 -99t-84.5 -64q51 -10 90 -55.5t39 -106.5v-328q0 -90 -63.5 -153.5t-155.5 -63.5h-657zM358 178h400q41 0 64.5 24.5t23.5 61.5v262q0 37 -24.5 61.5t-63.5 24.5h-400v-434zM358 788h394q37 0 59.5 25 t22.5 61v226q0 37 -26 61.5t-63 24.5h-387v-398z" />
<glyph unicode="C" horiz-adv-x="1175" d="M154 225v914q0 94 64.5 159.5t158.5 65.5h440q94 0 159.5 -65.5t65.5 -159.5v-219h-194v178q0 37 -25.5 61.5t-62.5 24.5h-324q-37 0 -62.5 -24.5t-25.5 -61.5v-832q0 -37 25.5 -61.5t62.5 -24.5h324q37 0 62.5 24.5t25.5 61.5v189h194v-230q0 -94 -65.5 -159.5 t-159.5 -65.5h-440q-94 0 -158.5 65.5t-64.5 159.5z" />
<glyph unicode="D" horiz-adv-x="1183" d="M164 0v1364h641q94 0 159.5 -65.5t65.5 -159.5v-914q0 -94 -65.5 -159.5t-159.5 -65.5h-641zM358 180h390q37 0 62.5 24.5t25.5 61.5v832q0 37 -26 61.5t-62 24.5h-390v-1004z" />
<glyph unicode="E" horiz-adv-x="1091" d="M164 0v1364h803v-180h-609v-398h553v-180h-553v-426h611v-180h-805z" />
<glyph unicode="F" horiz-adv-x="1030" d="M164 0v1364h813v-180h-619v-398h564v-180h-564v-606h-194z" />
<glyph unicode="G" horiz-adv-x="1171" d="M154 225v914q0 94 64.5 159.5t158.5 65.5h436q94 0 159.5 -65.5t65.5 -159.5v-181h-194v140q0 37 -24.5 61.5t-61.5 24.5h-322q-37 0 -62.5 -24.5t-25.5 -61.5v-832q0 -37 25.5 -61.5t62.5 -24.5h322q37 0 61.5 24.5t24.5 61.5v256h-260v178h454v-475q0 -94 -65.5 -159.5 t-159.5 -65.5h-436q-94 0 -158.5 65.5t-64.5 159.5z" />
<glyph unicode="H" horiz-adv-x="1271" d="M164 0v1364h194v-573h555v573h195v-1364h-195v610h-555v-610h-194z" />
<glyph unicode="I" horiz-adv-x="542" d="M174 0v1364h195v-1364h-195z" />
<glyph unicode="J" horiz-adv-x="1050" d="M72 225v199h194v-158q0 -37 25.5 -61.5t62.5 -24.5h260q37 0 62.5 24.5t25.5 61.5v1098h195v-1139q0 -94 -64.5 -159.5t-158.5 -65.5h-377q-94 0 -159.5 65.5t-65.5 159.5z" />
<glyph unicode="K" horiz-adv-x="1120" d="M164 0v1364h194v-643l473 643h234l-506 -674l531 -690h-238l-494 655v-655h-194z" />
<glyph unicode="L" horiz-adv-x="1042" d="M164 0v1364h194v-1184h603v-180h-797z" />
<glyph unicode="M" horiz-adv-x="1478" d="M164 0v1364h188l387 -881l387 881h189v-1364h-189v928l-299 -672h-176l-299 672v-928h-188z" />
<glyph unicode="N" horiz-adv-x="1282" d="M164 0v1364h188l578 -1014v1014h188v-1364h-188l-578 1010v-1010h-188z" />
<glyph unicode="O" horiz-adv-x="1214" d="M154 225v914q0 94 64.5 159.5t158.5 65.5h459q94 0 159.5 -65.5t65.5 -159.5v-914q0 -94 -65.5 -159.5t-159.5 -65.5h-459q-94 0 -158.5 65.5t-64.5 159.5zM348 266q0 -37 25.5 -61.5t62.5 -24.5h344q37 0 61.5 24.5t24.5 61.5v832q0 37 -24.5 61.5t-61.5 24.5h-344 q-37 0 -62.5 -24.5t-25.5 -61.5v-832z" />
<glyph unicode="P" horiz-adv-x="1118" d="M164 0v1364h657q94 0 160 -65.5t66 -159.5v-367q0 -94 -66 -159.5t-160 -65.5h-463v-547h-194zM358 727h406q39 0 63.5 24.5t24.5 61.5v285q0 37 -24.5 61.5t-63.5 24.5h-406v-457z" />
<glyph unicode="Q" horiz-adv-x="1214" d="M154 225v914q0 94 64.5 159.5t158.5 65.5h459q94 0 159.5 -65.5t65.5 -159.5v-914q0 -94 -65.5 -159.5t-159.5 -65.5h-134v-315h-190v315h-135q-94 0 -158.5 65.5t-64.5 159.5zM348 266q0 -37 25.5 -61.5t62.5 -24.5h342q37 0 62.5 24.5t25.5 61.5v832q0 37 -25.5 61.5 t-62.5 24.5h-342q-37 0 -62.5 -24.5t-25.5 -61.5v-832z" />
<glyph unicode="R" horiz-adv-x="1234" d="M164 0v1364h674q94 0 159.5 -65.5t65.5 -159.5v-363q0 -84 -48 -142.5t-132 -78.5l270 -555h-213l-268 551h-314v-551h-194zM358 729h422q39 0 63.5 24.5t24.5 61.5v283q0 37 -24.5 61.5t-63.5 24.5h-422v-455z" />
<glyph unicode="S" horiz-adv-x="1146" d="M139 225v181h195v-140q0 -37 25.5 -62.5t62.5 -25.5h303q37 0 62.5 25.5t25.5 62.5v201q0 37 -18.5 55.5t-67.5 32.5l-367 104q-215 61 -215 222v258q0 94 65.5 159.5t160.5 65.5h405q94 0 159.5 -65.5t65.5 -159.5v-189h-194v148q0 37 -25.5 62.5t-62.5 25.5h-293 q-35 0 -60.5 -25.5t-25.5 -62.5v-174q0 -66 84 -90l371 -105q213 -59 213 -221v-283q0 -94 -65.5 -159.5t-160.5 -65.5h-417q-94 0 -160 65.5t-66 159.5z" />
<glyph unicode="T" horiz-adv-x="1075" d="M51 1184v180h973v-180h-389v-1184h-195v1184h-389z" />
<glyph unicode="U" horiz-adv-x="1189" d="M154 225v1139h194v-1098q0 -37 25.5 -61.5t62.5 -24.5h318q37 0 62.5 24.5t25.5 61.5v1098h194v-1139q0 -94 -65.5 -159.5t-159.5 -65.5h-434q-94 0 -158.5 65.5t-64.5 159.5z" />
<glyph unicode="V" horiz-adv-x="1130" d="M41 1364h195l329 -1069l330 1069h195l-428 -1364h-193z" />
<glyph unicode="W" horiz-adv-x="1617" d="M72 1364h188l182 -1032l281 1032h172l281 -1032l182 1032h188l-260 -1364h-194l-283 1057l-281 -1057h-196z" />
<glyph unicode="X" horiz-adv-x="1171" d="M82 0l395 692l-385 672h205l287 -500l290 500h205l-387 -672l398 -692h-205l-301 520l-297 -520h-205z" />
<glyph unicode="Y" horiz-adv-x="1028" d="M0 1364h207l307 -602l307 602h207l-416 -819v-545h-196v545z" />
<glyph unicode="Z" horiz-adv-x="1134" d="M133 0v174l655 1016h-636v174h854v-174l-660 -1016h666v-174h-879z" />
<glyph unicode="[" horiz-adv-x="589" d="M164 -258v1888h405v-151h-217v-1585h217v-152h-405z" />
<glyph unicode="\" horiz-adv-x="901" d="M82 1386h156l591 -1624h-155z" />
<glyph unicode="]" horiz-adv-x="589" d="M20 -106h218v1585h-218v151h406v-1888h-406v152z" />
<glyph unicode="^" horiz-adv-x="921" d="M72 743l325 621h125l328 -621l-127 -63l-262 522l-262 -522z" />
<glyph unicode="_" horiz-adv-x="847" d="M-4 -12h856v-72h-856v72z" />
<glyph unicode="`" horiz-adv-x="745" d="M133 1317l88 102l248 -221l-86 -100z" />
<glyph unicode="a" horiz-adv-x="1017" d="M127 197v145q0 96 59.5 156.5t159.5 60.5q207 0 350 -47v207q0 35 -25.5 60.5t-62.5 25.5h-196q-37 0 -62.5 -24.5t-25.5 -61.5v-31h-181v68q0 90 61.5 152.5t153.5 62.5h310q90 0 153.5 -63.5t63.5 -153.5v-754h-185v49q-162 -69 -349 -69h-5q-100 0 -159.5 60 t-59.5 157zM309 227q0 -86 88 -86q127 0 213 35q86 33 86 88v41q0 63 -86 82q-70 16 -213 16q-88 0 -88 -86v-90z" />
<glyph unicode="b" horiz-adv-x="1054" d="M154 0v1364h188v-461q211 88 360 88q100 0 160 -60.5t60 -156.5v-577q0 -96 -59.5 -156.5t-160.5 -60.5q-154 0 -364 90v-70h-184zM342 303q0 -55 86 -88q137 -55 217 -55q88 0 88 86v479q0 86 -88 86q-80 0 -217 -55q-86 -33 -86 -86v-367z" />
<glyph unicode="c" horiz-adv-x="999" d="M133 217v537q0 90 62.5 153.5t152.5 63.5h322q92 0 154.5 -63.5t62.5 -153.5v-115h-189v74q0 37 -25.5 61.5t-62.5 24.5h-202q-37 0 -61.5 -24.5t-24.5 -61.5v-455q0 -37 24.5 -61.5t61.5 -24.5h202q37 0 62.5 24.5t25.5 61.5v84h189v-125q0 -90 -62.5 -153.5 t-154.5 -63.5h-322q-90 0 -152.5 63.5t-62.5 153.5z" />
<glyph unicode="d" horiz-adv-x="1054" d="M133 197v577q0 96 59.5 156.5t159.5 60.5q150 0 361 -88v461h188v-1364h-184v70q-211 -90 -365 -90q-100 0 -159.5 60t-59.5 157zM322 246q0 -86 88 -86q78 0 217 55q86 33 86 88v367q0 53 -86 86q-139 55 -217 55q-88 0 -88 -86v-479z" />
<glyph unicode="e" horiz-adv-x="1013" d="M133 217v537q0 90 62.5 153.5t152.5 63.5h326q90 0 153.5 -63.5t63.5 -153.5v-326h-569v-176q0 -37 24.5 -61.5t61.5 -24.5h213q37 0 61.5 24.5t24.5 61.5v43h182v-80q0 -90 -62.5 -152.5t-152.5 -62.5h-326q-90 0 -152.5 63.5t-62.5 153.5zM322 592h387v129 q0 37 -26 61.5t-62 24.5h-213q-37 0 -61.5 -24.5t-24.5 -61.5v-129z" />
<glyph unicode="f" horiz-adv-x="686" d="M72 813v158h141v176q0 90 62.5 153.5t152.5 63.5h238v-164h-179q-37 0 -61.5 -24.5t-24.5 -61.5v-143h256v-158h-256v-813h-188v813h-141z" />
<glyph unicode="g" horiz-adv-x="1044" d="M133 238v536q0 96 59.5 156.5t159.5 60.5q150 0 361 -88v68h188v-1143q0 -90 -62.5 -153.5t-152.5 -63.5h-463v162h404q37 0 61.5 24.5t24.5 61.5v250q-207 -88 -361 -89q-100 0 -159.5 60.5t-59.5 157.5zM322 287q0 -86 88 -86q78 0 217 55q80 31 86 88v326 q-6 55 -86 86q-139 55 -217 55q-88 0 -88 -86v-438z" />
<glyph unicode="h" d="M154 0v1364h188v-461q211 88 360 88q100 0 160 -60.5t60 -156.5v-774h-189v721q0 86 -88 86q-80 0 -217 -55q-86 -33 -86 -86v-666h-188z" />
<glyph unicode="i" horiz-adv-x="516" d="M164 0v971h188v-971h-188zM164 1133v241h188v-241h-188z" />
<glyph unicode="j" horiz-adv-x="495" d="M-63 -225h129q41 0 64.5 23.5t23.5 62.5v1110h188v-1143q0 -90 -63.5 -153.5t-153.5 -63.5h-188v164zM154 1133v241h188v-241h-188z" />
<glyph unicode="k" horiz-adv-x="970" d="M154 0v1364h188v-852l354 459h217l-370 -484l377 -487h-222l-356 465v-465h-188z" />
<glyph unicode="l" horiz-adv-x="495" d="M154 0v1364h188v-1364h-188z" />
<glyph unicode="m" horiz-adv-x="1644" d="M154 0v971h184v-70q211 90 364 90q129 0 189 -96q88 41 204.5 68.5t186.5 27.5q100 0 159.5 -60.5t59.5 -156.5v-774h-188v721q0 86 -88 86q-78 0 -217 -55q-86 -33 -86 -86v-666h-189v721q0 86 -88 86q-80 0 -217 -55q-86 -33 -86 -88v-664h-188z" />
<glyph unicode="n" d="M154 0v971h184v-70q211 90 364 90q100 0 160 -60.5t60 -156.5v-774h-189v721q0 86 -88 86q-80 0 -217 -55q-86 -33 -86 -88v-664h-188z" />
<glyph unicode="o" horiz-adv-x="1056" d="M133 217v537q0 90 62.5 153.5t152.5 63.5h357q90 0 154.5 -63.5t64.5 -153.5v-537q0 -90 -64.5 -153.5t-154.5 -63.5h-357q-90 0 -152.5 63.5t-62.5 153.5zM322 258q0 -37 24.5 -61.5t61.5 -24.5h239q37 0 62.5 24.5t25.5 61.5v455q0 37 -25.5 61.5t-62.5 24.5h-239 q-37 0 -61.5 -24.5t-24.5 -61.5v-455z" />
<glyph unicode="p" horiz-adv-x="1054" d="M154 -389v1360h184v-70q211 90 364 90q100 0 160 -60.5t60 -156.5v-577q0 -96 -59.5 -156.5t-160.5 -60.5q-150 0 -360 88v-457h-188zM342 301q0 -53 86 -86q137 -55 217 -55q88 0 88 86v479q0 86 -88 86q-80 0 -217 -55q-86 -33 -86 -88v-367z" />
<glyph unicode="q" horiz-adv-x="1054" d="M133 197v577q0 96 59.5 156.5t159.5 60.5q154 0 365 -90v70h184v-1360h-188v457q-211 -88 -361 -88q-100 0 -159.5 60t-59.5 157zM322 246q0 -86 88 -86q78 0 217 55q86 33 86 86v367q0 55 -86 88q-139 55 -217 55q-88 0 -88 -86v-479z" />
<glyph unicode="r" horiz-adv-x="663" d="M154 0v971h188v-129q138 90 285 149l12 -184q-92 -39 -180 -94q-61 -39 -89 -76t-28 -88v-549h-188z" />
<glyph unicode="s" horiz-adv-x="962" d="M115 217v78h186v-47q0 -35 24.5 -60.5t61.5 -25.5h188q37 0 62 22.5t25 59.5v39q0 63 -78 88q-178 55 -291 92q-174 59 -174 199v96q0 90 62.5 151.5t154.5 61.5h285q92 0 155.5 -63.5t63.5 -153.5v-80h-187v49q0 35 -25.5 60.5t-62.5 25.5h-166q-41 0 -66.5 -22.5 t-25.5 -59.5v-35q0 -59 78 -84l295 -92q170 -53 170 -201v-102q0 -90 -63.5 -151.5t-155.5 -61.5h-301q-90 0 -152.5 63.5t-62.5 153.5z" />
<glyph unicode="t" horiz-adv-x="673" d="M41 807v164h152v264h188v-264h242v-164h-242v-555q0 -37 25.5 -62.5t62.5 -25.5h154v-164h-215q-90 0 -152.5 63.5t-62.5 153.5v590h-152z" />
<glyph unicode="u" d="M143 197v774h189v-721q0 -86 88 -86q80 0 217 55q86 33 86 88v664h188v-971h-184v70q-211 -90 -365 -90q-100 0 -159.5 60t-59.5 157z" />
<glyph unicode="v" horiz-adv-x="933" d="M37 971h194l236 -742l235 742h195l-328 -971h-204z" />
<glyph unicode="w" horiz-adv-x="1314" d="M72 971h180l117 -682l202 682h177l200 -682l115 682h180l-180 -971h-193l-211 702l-210 -702h-193z" />
<glyph unicode="x" horiz-adv-x="964" d="M61 0l320 487l-315 484h215l200 -322l203 322h215l-315 -484l319 -487h-217l-205 328l-202 -328h-218z" />
<glyph unicode="y" horiz-adv-x="913" d="M31 971h200l228 -725l231 725h197l-328 -971l-129 -389h-188l118 391z" />
<glyph unicode="z" horiz-adv-x="942" d="M123 0v170l475 631h-467v170h690v-170l-477 -631h485v-170h-706z" />
<glyph unicode="{" horiz-adv-x="622" d="M133 586v119l125 98l-68 540q-14 180 191 220q106 20 242 39l20 -142q-25 -4 -93.5 -16t-88.5 -17q-90 -16 -82 -92l70 -549q2 -27 -23 -45l-125 -96l125 -96q25 -18 23 -45l-70 -549q-8 -76 82 -92q20 -4 88.5 -16.5t93.5 -16.5l-20 -141q-135 18 -242 39 q-205 39 -191 219l68 540z" />
<glyph unicode="|" horiz-adv-x="483" d="M184 -410v2048h115v-2048h-115z" />
<glyph unicode="}" horiz-adv-x="622" d="M-20 -170q25 4 93 16.5t89 16.5q90 16 82 92l-70 549q-2 27 23 45l125 96l-125 96q-25 18 -23 45l70 549q8 76 -82 92q-20 4 -89 16.5t-93 16.5l20 142q135 -18 242 -39q205 -39 190 -220l-67 -540l124 -98v-119l-124 -99l67 -540q14 -180 -190 -219q-106 -20 -242 -39z " />
<glyph unicode="~" horiz-adv-x="1046" d="M82 440q43 80 96 162q47 68 129 85.5t154 -25.5q162 -96 219 -119q18 0 28.5 -3t26 10t23.5 20.5t22.5 29t20.5 32.5t18 32.5t17 29.5l129 -76q-49 -90 -99 -159q-45 -66 -122.5 -84.5t-149.5 18.5q-16 8 -99 57.5t-130 67.5q-10 10 -24.5 4t-23 -7t-21.5 -16.5 t-20.5 -22.5t-18.5 -26.5t-17.5 -29.5t-16.5 -28.5t-14 -26.5z" />
<glyph unicode="&#xa1;" horiz-adv-x="536" d="M164 719v252h209v-252h-209zM174 168l33 385h121l34 -385v-557h-188v557z" />
<glyph unicode="&#xa2;" horiz-adv-x="989" d="M133 432v500q0 90 63.5 153.5t153.5 63.5h90v215h146v-215h86q90 0 152.5 -63.5t62.5 -153.5v-109h-182v72q0 37 -25 61.5t-62 24.5h-208q-37 0 -62.5 -24.5t-25.5 -61.5v-426q0 -37 25.5 -61.5t62.5 -24.5h208q37 0 62 24.5t25 61.5v76h182v-113q0 -90 -62.5 -153.5 t-152.5 -63.5h-86v-215h-146v215h-90q-90 0 -153.5 63.5t-63.5 153.5z" />
<glyph unicode="&#xa3;" horiz-adv-x="1163" d="M72 0v145h233v1000q0 90 63.5 154.5t153.5 64.5h371v-152h-311q-37 0 -62.5 -25.5t-25.5 -62.5v-270h325v-158h-325v-551h272q37 0 62.5 25t25.5 61v131h156v-145q0 -90 -63.5 -153.5t-155.5 -63.5h-719z" />
<glyph unicode="&#xa4;" horiz-adv-x="1310" d="M154 233l165 168q-8 37 -8 60v450q0 20 8 58l-165 170l118 118l162 -163q33 18 74 18h295q37 0 71 -18l164 163l119 -118l-166 -166q12 -27 13 -62v-450q0 -33 -13 -64l166 -164l-119 -118l-164 161q-37 -16 -71 -16h-295q-37 0 -74 16l-162 -161zM483 492 q0 -31 20.5 -52.5t55.5 -21.5h195q37 0 57 20.5t20 53.5v389q0 33 -20 53t-57 20h-195q-35 0 -55.5 -20.5t-20.5 -52.5v-389z" />
<glyph unicode="&#xa5;" horiz-adv-x="987" d="M61 1364h201l232 -619l231 619h201l-246 -592h174v-137h-229l-37 -90v-84h266v-133h-266v-328h-189v328h-266v133h266v84l-37 90h-229v137h172z" />
<glyph unicode="&#xa6;" horiz-adv-x="483" d="M184 -410v854h115v-854h-115zM184 784v854h115v-854h-115z" />
<glyph unicode="&#xa7;" horiz-adv-x="1071" d="M143 332l47 166l535 -158q78 -23 125 -74t47 -127v-315q0 -90 -62.5 -151.5t-154.5 -61.5h-295q-92 0 -155.5 63.5t-63.5 153.5v147h180v-116q0 -35 25.5 -60.5t62.5 -25.5h187q39 0 64.5 22.5t25.5 59.5v247q0 63 -80 86zM174 836v315q0 90 62.5 151.5t152.5 61.5h295 q92 0 155.5 -63.5t63.5 -153.5v-148h-180v117q0 35 -24.5 60.5t-61.5 25.5h-188q-39 0 -65 -22.5t-26 -59.5v-248q0 -61 80 -86l490 -143l-49 -166l-535 158q-170 53 -170 201z" />
<glyph unicode="&#xa8;" horiz-adv-x="958" d="M215 1124v203h162v-203h-162zM582 1124v203h161v-203h-161z" />
<glyph unicode="&#xa9;" horiz-adv-x="1349" d="M154 199v966q0 80 58 139.5t140 59.5h645q82 0 140.5 -59.5t58.5 -139.5v-966q0 -80 -58.5 -139.5t-140.5 -59.5h-645q-82 0 -140 59.5t-58 139.5zM262 215q0 -49 33 -81t80 -32h600q47 0 79.5 32t32.5 81v934q0 49 -32.5 81t-79.5 32h-600q-47 0 -80 -32t-33 -81v-934z M430 440v484q0 59 40 99t97 40h221q59 0 99.5 -40t40.5 -99v-115h-111v94q0 25 -16.5 41.5t-40.5 16.5h-162q-25 0 -41 -16.5t-16 -41.5v-440q0 -27 16 -43.5t41 -16.5h162q25 0 41 16.5t16 43.5v96h111v-119q0 -59 -40 -98t-100 -39h-221q-59 0 -98 39t-39 98z" />
<glyph unicode="&#xaa;" horiz-adv-x="665" d="M113 926v82q0 55 33.5 88.5t91.5 33.5q118 1 198 -26v117q0 20 -14 34.5t-35 14.5h-113q-20 0 -34.5 -14.5t-14.5 -34.5v-19h-102v39q0 53 35 88t88 35h174q51 0 87 -36t36 -87v-428h-105v29q-88 -39 -200 -39q-57 0 -91 33.5t-34 89.5zM219 946q0 -49 49 -49 q68 0 119 21q49 18 49 49v16q0 35 -49 47q-35 8 -119 8q-49 0 -49 -47v-45z" />
<glyph unicode="&#xab;" horiz-adv-x="1026" d="M92 487l283 410l125 -80l-232 -330l232 -329l-125 -76zM485 487l283 410l125 -80l-231 -330l231 -329l-125 -76z" />
<glyph unicode="&#xac;" horiz-adv-x="1130" d="M123 584v155h864v-510h-178v355h-686z" />
<glyph unicode="&#xad;" horiz-adv-x="679" d="M92 512v164h496v-164h-496z" />
<glyph unicode="&#xae;" horiz-adv-x="1009" d="M123 713v485q0 70 46 118t118 48h432q74 0 121 -48t47 -118v-485q0 -70 -47 -118t-121 -48h-432q-72 0 -118 48t-46 118zM203 709q0 -37 25.5 -61.5t62.5 -24.5h426q37 0 63.5 24.5t26.5 61.5v493q0 35 -26.5 59.5t-63.5 24.5h-426q-37 0 -62.5 -24.5t-25.5 -59.5v-493z M371 750v413h200q29 0 49.5 -20.5t20.5 -48.5v-109q0 -55 -53 -70l90 -165h-68l-88 165h-88v-165h-63zM434 971h121q25 -1 25 24v88q0 25 -25 25h-121v-137z" />
<glyph unicode="&#xaf;" horiz-adv-x="931" d="M215 1159v131h502v-131h-502z" />
<glyph unicode="&#xb0;" horiz-adv-x="579" d="M133 1075v228q0 25 17.5 43t42.5 18h190q27 0 45 -18.5t18 -42.5v-228q0 -25 -18 -43t-45 -18h-190q-25 0 -42.5 18.5t-17.5 42.5zM197 1087q0 -16 16 -16h154q16 0 16 16v203q0 16 -16 17h-154q-16 0 -16 -17v-203z" />
<glyph unicode="&#xb1;" horiz-adv-x="1171" d="M154 0v147h344v396h-344v155h344v355h174v-355h346v-155h-346v-396h346v-147h-864z" />
<glyph unicode="&#xb2;" horiz-adv-x="1486" d="M51 1364h1385l-693 -1384z" />
<glyph unicode="&#xb3;" horiz-adv-x="1486" d="M51 0l692 1384l693 -1384h-1385z" />
<glyph unicode="&#xb4;" horiz-adv-x="745" d="M276 1198l248 221l88 -102l-250 -219z" />
<glyph unicode="&#xb5;" d="M143 -389v1360h189v-729q4 -78 88 -78q80 0 217 55q86 33 86 88v664h188v-971h-184v70q-211 -90 -365 -90q-20 0 -30 2v-371h-189z" />
<glyph unicode="&#xb6;" horiz-adv-x="1124" d="M102 743v521q0 41 29 70.5t72 29.5h758v-1364h-138v1237h-149v-1526q0 -41 -29 -70.5t-70 -29.5h-217v121h152q27 0 27 24v887h-334q-43 0 -72 29.5t-29 70.5z" />
<glyph unicode="&#xb7;" horiz-adv-x="518" d="M154 537v251h211v-251h-211z" />
<glyph unicode="&#xb8;" horiz-adv-x="710" d="M215 -238l127 306l154 -31l-146 -332z" />
<glyph unicode="&#xb9;" horiz-adv-x="1630" d="M164 -20v1404l1405 -702z" />
<glyph unicode="&#xba;" horiz-adv-x="673" d="M113 936v305q0 51 35.5 87t87.5 36h200q51 0 88 -36t37 -87v-305q0 -51 -37 -87t-88 -36h-200q-51 0 -87 36t-36 87zM219 961q0 -20 14.5 -35t34.5 -15h135q23 0 37.5 15t14.5 35v258q0 20 -14.5 33.5t-37.5 13.5h-135q-20 0 -34.5 -13.5t-14.5 -33.5v-258z" />
<glyph unicode="&#xbb;" horiz-adv-x="1026" d="M133 158l229 329l-229 330l125 80l283 -410l-283 -405zM526 158l230 329l-230 330l125 80l283 -410l-283 -405z" />
<glyph unicode="&#xbc;" horiz-adv-x="1277" d="M154 0v971h970v-971h-970z" />
<glyph unicode="&#xbd;" horiz-adv-x="1691" d="M164 0v1364h1364v-1364h-1364z" />
<glyph unicode="&#xbe;" horiz-adv-x="1216" d="M154 -20v1011l1011 -506z" />
<glyph unicode="&#xbf;" horiz-adv-x="1040" d="M135 104q0 53 18.5 89t40 51.5t78.5 50.5q84 49 148 84q61 33 61 94v94h187v-139q0 -78 -26 -117t-97 -75l-152 -80q-43 -23 -56 -42.5t-13 -58.5v-186q0 -37 24.5 -61.5t61.5 -24.5h221q37 0 62.5 24.5t25.5 61.5v125h188v-166q0 -90 -63.5 -153.5t-153.5 -63.5h-336 q-92 0 -155.5 63.5t-63.5 153.5v276zM471 719v252h211v-252h-211z" />
<glyph unicode="&#xc0;" horiz-adv-x="1216" d="M51 0l465 1364h184l465 -1364h-196l-111 324h-502l-106 -324h-199zM358 1702l88 102l248 -221l-86 -100zM416 500h385l-193 604z" />
<glyph unicode="&#xc1;" horiz-adv-x="1216" d="M51 0l465 1364h184l465 -1364h-196l-111 324h-502l-106 -324h-199zM416 500h385l-193 604zM520 1583l248 221l88 -102l-250 -219z" />
<glyph unicode="&#xc2;" horiz-adv-x="1216" d="M51 0l465 1364h184l465 -1364h-196l-111 324h-502l-106 -324h-199zM346 1538l262 242l264 -242l-79 -90l-185 166l-184 -166zM416 500h385l-193 604z" />
<glyph unicode="&#xc3;" horiz-adv-x="1216" d="M51 0l465 1364h184l465 -1364h-196l-111 324h-502l-106 -324h-199zM344 1526l43 90q20 45 64.5 62.5t91.5 -3.5l145 -69q29 -12 41 16l33 68l110 -54l-41 -88q-23 -45 -65.5 -62.5t-89.5 3.5l-146 67q-29 12 -43 -14l-30 -67zM416 500h385l-193 604z" />
<glyph unicode="&#xc4;" horiz-adv-x="1216" d="M51 0l465 1364h184l465 -1364h-196l-111 324h-502l-106 -324h-199zM344 1505v203h162v-203h-162zM416 500h385l-193 604zM711 1505v203h161v-203h-161z" />
<glyph unicode="&#xc5;" horiz-adv-x="1216" d="M51 0l465 1364h184l465 -1364h-196l-111 324h-502l-106 -324h-199zM416 500h385l-193 604zM461 1489v168q0 25 17.5 43t41.5 18h174q27 0 44.5 -18.5t17.5 -42.5v-168q0 -27 -17.5 -44.5t-44.5 -17.5h-174q-27 0 -43 17.5t-16 44.5zM545 1522q0 -16 16 -17h94q17 1 17 17 v102q0 16 -17 16h-94q-16 0 -16 -16v-102z" />
<glyph unicode="&#xc6;" horiz-adv-x="1679" d="M51 0l465 1364h1034v-180h-794l131 -383h581v-178h-522l152 -443h458v-180h-591l-111 328h-498l-110 -328h-195zM412 500h385l-193 592z" />
<glyph unicode="&#xc7;" horiz-adv-x="1185" d="M154 225v914q0 94 64.5 159.5t158.5 65.5h440q94 0 159.5 -65.5t65.5 -159.5v-219h-194v178q0 37 -25.5 61.5t-62.5 24.5h-324q-37 0 -62.5 -24.5t-25.5 -61.5v-832q0 -37 25.5 -61.5t62.5 -24.5h324q37 0 62.5 24.5t25.5 61.5v189h194v-230q0 -94 -65.5 -159.5 t-159.5 -65.5h-133l-127 -295l-137 57l98 238h-141q-94 0 -158.5 65.5t-64.5 159.5z" />
<glyph unicode="&#xc8;" horiz-adv-x="1091" d="M164 0v1364h803v-180h-609v-398h553v-180h-553v-426h611v-180h-805zM358 1702l88 102l248 -221l-86 -100z" />
<glyph unicode="&#xc9;" horiz-adv-x="1091" d="M164 0v1364h803v-180h-609v-398h553v-180h-553v-426h611v-180h-805zM430 1583l248 221l88 -102l-250 -219z" />
<glyph unicode="&#xca;" horiz-adv-x="1091" d="M164 0v1364h803v-180h-609v-398h553v-180h-553v-426h611v-180h-805zM307 1538l262 242l265 -242l-80 -90l-185 166l-184 -166z" />
<glyph unicode="&#xcb;" horiz-adv-x="1091" d="M164 0v1364h803v-180h-609v-398h553v-180h-553v-426h611v-180h-805zM307 1505v203h162v-203h-162zM674 1505v203h162v-203h-162z" />
<glyph unicode="&#xcc;" horiz-adv-x="542" d="M41 1702l88 102l248 -221l-86 -100zM174 0v1364h195v-1364h-195z" />
<glyph unicode="&#xcd;" horiz-adv-x="542" d="M174 0v1364h195v-1364h-195zM186 1583l248 221l88 -102l-250 -219z" />
<glyph unicode="&#xce;" horiz-adv-x="542" d="M8 1538l262 242l265 -242l-80 -90l-185 166l-184 -166zM174 0v1364h195v-1364h-195z" />
<glyph unicode="&#xcf;" horiz-adv-x="542" d="M6 1505v203h162v-203h-162zM174 0v1364h195v-1364h-195zM373 1505v203h162v-203h-162z" />
<glyph unicode="&#xd0;" horiz-adv-x="1236" d="M61 604v154h156v606h641q94 0 159.5 -65.5t65.5 -159.5v-914q0 -94 -65.5 -159.5t-159.5 -65.5h-641v604h-156zM412 180h389q37 0 61.5 24.5t24.5 61.5v832q0 37 -24.5 61.5t-61.5 24.5h-389v-426h229v-154h-229v-424z" />
<glyph unicode="&#xd1;" horiz-adv-x="1282" d="M164 0v1364h188l578 -1014v1014h188v-1364h-188l-578 1010v-1010h-188zM373 1526l43 90q20 45 64 62.5t91 -3.5l146 -69q29 -12 41 16l33 68l110 -54l-41 -88q-23 -45 -65.5 -62.5t-89.5 3.5l-146 67q-29 12 -43 -14l-31 -67z" />
<glyph unicode="&#xd2;" horiz-adv-x="1214" d="M154 225v914q0 94 64.5 159.5t158.5 65.5h459q94 0 159.5 -65.5t65.5 -159.5v-914q0 -94 -65.5 -159.5t-159.5 -65.5h-459q-94 0 -158.5 65.5t-64.5 159.5zM348 266q0 -37 25.5 -61.5t62.5 -24.5h344q37 0 61.5 24.5t24.5 61.5v832q0 37 -24.5 61.5t-61.5 24.5h-344 q-37 0 -62.5 -24.5t-25.5 -61.5v-832zM393 1702l88 102l248 -221l-86 -100z" />
<glyph unicode="&#xd3;" horiz-adv-x="1214" d="M154 225v914q0 94 64.5 159.5t158.5 65.5h459q94 0 159.5 -65.5t65.5 -159.5v-914q0 -94 -65.5 -159.5t-159.5 -65.5h-459q-94 0 -158.5 65.5t-64.5 159.5zM348 266q0 -37 25.5 -61.5t62.5 -24.5h344q37 0 61.5 24.5t24.5 61.5v832q0 37 -24.5 61.5t-61.5 24.5h-344 q-37 0 -62.5 -24.5t-25.5 -61.5v-832zM473 1583l248 221l88 -102l-250 -219z" />
<glyph unicode="&#xd4;" horiz-adv-x="1214" d="M154 225v914q0 94 64.5 159.5t158.5 65.5h459q94 0 159.5 -65.5t65.5 -159.5v-914q0 -94 -65.5 -159.5t-159.5 -65.5h-459q-94 0 -158.5 65.5t-64.5 159.5zM348 266q0 -37 25.5 -61.5t62.5 -24.5h344q37 0 61.5 24.5t24.5 61.5v832q0 37 -24.5 61.5t-61.5 24.5h-344 q-37 0 -62.5 -24.5t-25.5 -61.5v-832zM348 1538l262 242l264 -242l-79 -90l-185 166l-184 -166z" />
<glyph unicode="&#xd5;" horiz-adv-x="1214" d="M154 225v914q0 94 64.5 159.5t158.5 65.5h459q94 0 159.5 -65.5t65.5 -159.5v-914q0 -94 -65.5 -159.5t-159.5 -65.5h-459q-94 0 -158.5 65.5t-64.5 159.5zM344 1526l43 90q20 45 64.5 62.5t91.5 -3.5l145 -69q29 -12 41 16l33 68l110 -54l-41 -88q-23 -45 -65.5 -62.5 t-89.5 3.5l-146 67q-29 12 -43 -14l-30 -67zM348 266q0 -37 25.5 -61.5t62.5 -24.5h344q37 0 61.5 24.5t24.5 61.5v832q0 37 -24.5 61.5t-61.5 24.5h-344q-37 0 -62.5 -24.5t-25.5 -61.5v-832z" />
<glyph unicode="&#xd6;" horiz-adv-x="1214" d="M154 225v914q0 94 64.5 159.5t158.5 65.5h459q94 0 159.5 -65.5t65.5 -159.5v-914q0 -94 -65.5 -159.5t-159.5 -65.5h-459q-94 0 -158.5 65.5t-64.5 159.5zM342 1505v203h162v-203h-162zM348 266q0 -37 25.5 -61.5t62.5 -24.5h344q37 0 61.5 24.5t24.5 61.5v832 q0 37 -24.5 61.5t-61.5 24.5h-344q-37 0 -62.5 -24.5t-25.5 -61.5v-832zM709 1505v203h161v-203h-161z" />
<glyph unicode="&#xd7;" horiz-adv-x="913" d="M92 416l248 248l-248 245l119 119l246 -248l245 248l119 -119l-248 -247l248 -246l-116 -117l-248 246l-248 -248z" />
<glyph unicode="&#xd8;" horiz-adv-x="1214" d="M154 -61l67 122q-68 63 -67 164v914q0 94 64.5 159.5t158.5 65.5h459q43 0 86 -16l65 118l74 -41l-68 -125q68 -68 68 -161v-914q0 -94 -65.5 -159.5t-159.5 -65.5h-459q-43 0 -86 16l-64 -118zM348 295l477 876q-18 12 -45 13h-344q-37 0 -62.5 -24.5t-25.5 -61.5v-803z M387 193q23 -12 49 -13h344q37 0 61.5 24.5t24.5 61.5v803z" />
<glyph unicode="&#xd9;" horiz-adv-x="1189" d="M154 225v1139h194v-1098q0 -37 25.5 -61.5t62.5 -24.5h318q37 0 62.5 24.5t25.5 61.5v1098h194v-1139q0 -94 -65.5 -159.5t-159.5 -65.5h-434q-94 0 -158.5 65.5t-64.5 159.5zM381 1702l88 102l248 -221l-86 -100z" />
<glyph unicode="&#xda;" horiz-adv-x="1189" d="M154 225v1139h194v-1098q0 -37 25.5 -61.5t62.5 -24.5h318q37 0 62.5 24.5t25.5 61.5v1098h194v-1139q0 -94 -65.5 -159.5t-159.5 -65.5h-434q-94 0 -158.5 65.5t-64.5 159.5zM463 1583l248 221l88 -102l-250 -219z" />
<glyph unicode="&#xdb;" horiz-adv-x="1189" d="M154 225v1139h194v-1098q0 -37 25.5 -61.5t62.5 -24.5h318q37 0 62.5 24.5t25.5 61.5v1098h194v-1139q0 -94 -65.5 -159.5t-159.5 -65.5h-434q-94 0 -158.5 65.5t-64.5 159.5zM334 1538l262 242l264 -242l-80 -90l-184 166l-184 -166z" />
<glyph unicode="&#xdc;" horiz-adv-x="1189" d="M154 225v1139h194v-1098q0 -37 25.5 -61.5t62.5 -24.5h318q37 0 62.5 24.5t25.5 61.5v1098h194v-1139q0 -94 -65.5 -159.5t-159.5 -65.5h-434q-94 0 -158.5 65.5t-64.5 159.5zM330 1505v203h162v-203h-162zM696 1505v203h162v-203h-162z" />
<glyph unicode="&#xdd;" horiz-adv-x="1028" d="M0 1364h207l307 -602l307 602h207l-416 -819v-545h-196v545zM403 1583l248 221l88 -102l-250 -219z" />
<glyph unicode="&#xde;" horiz-adv-x="1118" d="M164 0v1364h194v-254h463q94 0 160 -65.5t66 -159.5v-365q0 -94 -66 -160.5t-160 -66.5h-463v-293h-194zM358 473h404q37 0 62.5 24.5t25.5 61.5v285q0 37 -25.5 61.5t-62.5 24.5h-404v-457z" />
<glyph unicode="&#xdf;" horiz-adv-x="1220" d="M164 0v1147q0 90 62.5 153.5t152.5 63.5h237q90 0 154 -63.5t64 -153.5v-361q0 -43 7 -61.5t27 -38.5l205 -215q51 -55 68.5 -91t17.5 -101v-66q0 -90 -62.5 -151.5t-154.5 -61.5h-213q-90 0 -152.5 63.5t-62.5 153.5v92h168v-67q0 -39 22.5 -62.5t63.5 -23.5h125 q88 0 88 82v47q0 31 -59 94l-197 211q-49 53 -64.5 86t-15.5 84v354q0 37 -25.5 61.5t-62.5 24.5h-119q-37 0 -62.5 -24.5t-25.5 -61.5v-1114h-186z" />
<glyph unicode="&#xe0;" horiz-adv-x="1017" d="M127 197v145q0 96 59.5 156.5t159.5 60.5q207 0 350 -47v207q0 35 -25.5 60.5t-62.5 25.5h-196q-37 0 -62.5 -24.5t-25.5 -61.5v-31h-181v68q0 90 61.5 152.5t153.5 62.5h310q90 0 153.5 -63.5t63.5 -153.5v-754h-185v49q-164 -70 -354 -69q-100 0 -159.5 60t-59.5 157z M309 227q0 -86 88 -86q127 0 213 35q86 33 86 88v41q0 63 -86 82q-70 16 -213 16q-88 0 -88 -86v-90zM309 1317l88 102l248 -221l-86 -100z" />
<glyph unicode="&#xe1;" horiz-adv-x="1017" d="M127 197v145q0 96 59.5 156.5t159.5 60.5q207 0 350 -47v207q0 35 -25.5 60.5t-62.5 25.5h-196q-37 0 -62.5 -24.5t-25.5 -61.5v-31h-181v68q0 90 61.5 152.5t153.5 62.5h310q90 0 153.5 -63.5t63.5 -153.5v-754h-185v49q-164 -70 -354 -69q-100 0 -159.5 60t-59.5 157z M309 227q0 -86 88 -86q127 0 213 35q86 33 86 88v41q0 63 -86 82q-70 16 -213 16q-88 0 -88 -86v-90zM410 1198l247 221l88 -102l-249 -219z" />
<glyph unicode="&#xe2;" horiz-adv-x="1017" d="M127 197v145q0 96 59.5 156.5t159.5 60.5q207 0 350 -47v207q0 35 -25.5 60.5t-62.5 25.5h-196q-37 0 -62.5 -24.5t-25.5 -61.5v-31h-181v68q0 90 61.5 152.5t153.5 62.5h310q90 0 153.5 -63.5t63.5 -153.5v-754h-185v49q-164 -70 -354 -69q-100 0 -159.5 60t-59.5 157z M262 1169l262 242l264 -242l-79 -90l-185 166l-184 -166zM309 227q0 -86 88 -86q127 0 213 35q86 33 86 88v41q0 63 -86 82q-70 16 -213 16q-88 0 -88 -86v-90z" />
<glyph unicode="&#xe3;" horiz-adv-x="1017" d="M127 197v145q0 96 59.5 156.5t159.5 60.5q207 0 350 -47v207q0 35 -25.5 60.5t-62.5 25.5h-196q-37 0 -62.5 -24.5t-25.5 -61.5v-31h-181v68q0 90 61.5 152.5t153.5 62.5h310q90 0 153.5 -63.5t63.5 -153.5v-754h-185v49q-164 -70 -354 -69q-100 0 -159.5 60t-59.5 157z M262 1151l43 90q20 45 64.5 62.5t91.5 -3.5l145 -69q29 -12 41 16l33 68l111 -53l-41 -88q-23 -45 -66 -62.5t-90 2.5l-145 68q-29 12 -43 -15l-31 -67zM309 227q0 -86 88 -86q127 0 213 35q86 33 86 88v41q0 63 -86 82q-70 16 -213 16q-88 0 -88 -86v-90z" />
<glyph unicode="&#xe4;" horiz-adv-x="1017" d="M127 197v145q0 96 59.5 156.5t159.5 60.5q207 0 350 -47v207q0 35 -25.5 60.5t-62.5 25.5h-196q-37 0 -62.5 -24.5t-25.5 -61.5v-31h-181v68q0 90 61.5 152.5t153.5 62.5h310q90 0 153.5 -63.5t63.5 -153.5v-754h-185v49q-164 -70 -354 -69q-100 0 -159.5 60t-59.5 157z M262 1124v203h162v-203h-162zM309 227q0 -86 88 -86q127 0 213 35q86 33 86 88v41q0 63 -86 82q-70 16 -213 16q-88 0 -88 -86v-90zM629 1124v203h162v-203h-162z" />
<glyph unicode="&#xe5;" horiz-adv-x="1017" d="M127 197v145q0 96 59.5 156.5t159.5 60.5q207 0 350 -47v207q0 35 -25.5 60.5t-62.5 25.5h-196q-37 0 -62.5 -24.5t-25.5 -61.5v-31h-181v68q0 90 61.5 152.5t153.5 62.5h310q90 0 153.5 -63.5t63.5 -153.5v-754h-185v49q-164 -70 -354 -69q-100 0 -159.5 60t-59.5 157z M309 227q0 -86 88 -86q127 0 213 35q86 33 86 88v41q0 63 -86 82q-70 16 -213 16q-88 0 -88 -86v-90zM373 1145v168q0 25 17.5 43t41.5 18h174q27 0 44.5 -18.5t17.5 -42.5v-168q0 -27 -17.5 -44.5t-44.5 -17.5h-174q-27 0 -43 17.5t-16 44.5zM457 1178q0 -16 16 -17h94 q17 1 17 17v102q0 16 -17 16h-94q-16 0 -16 -16v-102z" />
<glyph unicode="&#xe6;" horiz-adv-x="1585" d="M133 197v145q0 96 59.5 156.5t159.5 60.5q210 0 353 -47v207q0 35 -26 60.5t-63 25.5h-196q-37 0 -62.5 -24.5t-25.5 -61.5v-35h-180v72q0 90 61 152.5t154 62.5h309q66 0 123 -37q53 37 121 37h325q90 0 153.5 -63.5t63.5 -153.5v-326h-569v-176q0 -37 24.5 -61.5 t61.5 -24.5h213q37 0 61.5 24.5t24.5 61.5v39h182v-76q0 -90 -62.5 -152.5t-152.5 -62.5h-325q-98 0 -160 72l-51 -25q-158 -68 -357 -67q-100 0 -159.5 60t-59.5 157zM319 233q0 -86 89 -86q125 0 210 35q87 33 87 88v29q0 63 -87 82q-70 16 -210 16q-88 0 -89 -86v-78z M893 592h387v129q0 37 -25.5 61.5t-62.5 24.5h-213q-37 0 -61.5 -24.5t-24.5 -61.5v-129z" />
<glyph unicode="&#xe7;" horiz-adv-x="999" d="M133 217v537q0 90 62.5 153.5t152.5 63.5h322q92 0 154.5 -63.5t62.5 -153.5v-115h-182v74q0 37 -26 61.5t-63 24.5h-208q-37 0 -61.5 -24.5t-24.5 -61.5v-455q0 -37 24.5 -61.5t61.5 -24.5h208q37 0 63 24.5t26 61.5v84h182v-125q0 -90 -62.5 -153.5t-154.5 -63.5h-70 l-127 -295l-137 57l98 238h-86q-90 0 -152.5 63.5t-62.5 153.5z" />
<glyph unicode="&#xe8;" horiz-adv-x="1013" d="M133 217v537q0 90 62.5 153.5t152.5 63.5h326q90 0 153.5 -63.5t63.5 -153.5v-326h-569v-176q0 -37 24.5 -61.5t61.5 -24.5h213q37 0 61.5 24.5t24.5 61.5v43h182v-80q0 -90 -62.5 -152.5t-152.5 -62.5h-326q-90 0 -152.5 63.5t-62.5 153.5zM281 1317l88 102l247 -221 l-86 -100zM322 592h387v129q0 37 -26 61.5t-62 24.5h-213q-37 0 -61.5 -24.5t-24.5 -61.5v-129z" />
<glyph unicode="&#xe9;" horiz-adv-x="1013" d="M133 217v537q0 90 62.5 153.5t152.5 63.5h326q90 0 153.5 -63.5t63.5 -153.5v-326h-569v-176q0 -37 24.5 -61.5t61.5 -24.5h213q37 0 61.5 24.5t24.5 61.5v43h182v-80q0 -90 -62.5 -152.5t-152.5 -62.5h-326q-90 0 -152.5 63.5t-62.5 153.5zM322 592h387v129 q0 37 -26 61.5t-62 24.5h-213q-37 0 -61.5 -24.5t-24.5 -61.5v-129zM377 1198l248 221l88 -102l-250 -219z" />
<glyph unicode="&#xea;" horiz-adv-x="1013" d="M133 217v537q0 90 62.5 153.5t152.5 63.5h326q90 0 153.5 -63.5t63.5 -153.5v-326h-569v-176q0 -37 24.5 -61.5t61.5 -24.5h213q37 0 61.5 24.5t24.5 61.5v43h182v-80q0 -90 -62.5 -152.5t-152.5 -62.5h-326q-90 0 -152.5 63.5t-62.5 153.5zM258 1169l262 242l264 -242 l-79 -90l-185 166l-184 -166zM322 592h387v129q0 37 -26 61.5t-62 24.5h-213q-37 0 -61.5 -24.5t-24.5 -61.5v-129z" />
<glyph unicode="&#xeb;" horiz-adv-x="1013" d="M133 217v537q0 90 62.5 153.5t152.5 63.5h326q90 0 153.5 -63.5t63.5 -153.5v-326h-569v-176q0 -37 24.5 -61.5t61.5 -24.5h213q37 0 61.5 24.5t24.5 61.5v43h182v-80q0 -90 -62.5 -152.5t-152.5 -62.5h-326q-90 0 -152.5 63.5t-62.5 153.5zM252 1124v203h162v-203h-162z M322 592h387v129q0 37 -26 61.5t-62 24.5h-213q-37 0 -61.5 -24.5t-24.5 -61.5v-129zM618 1124v203h162v-203h-162z" />
<glyph unicode="&#xec;" horiz-adv-x="516" d="M25 1317l88 102l247 -221l-86 -100zM164 0v971h188v-971h-188z" />
<glyph unicode="&#xed;" horiz-adv-x="516" d="M160 1198l248 221l88 -102l-250 -219zM164 0v971h188v-971h-188z" />
<glyph unicode="&#xee;" horiz-adv-x="516" d="M-4 1169l262 242l264 -242l-80 -90l-184 166l-184 -166zM164 0v971h188v-971h-188z" />
<glyph unicode="&#xef;" horiz-adv-x="516" d="M-6 1124v203h162v-203h-162zM164 0v971h188v-971h-188zM360 1124v203h162v-203h-162z" />
<glyph unicode="&#xf0;" horiz-adv-x="1026" d="M133 217v377q0 96 59.5 156.5t159.5 60.5q207 0 381 -72v367q0 16 -6 31l-149 -170l-52 45l154 174q-16 6 -33 6h-364v172h424q59 0 106 -29l96 109l52 -45l-95 -107q55 -61 56 -145v-930q0 -90 -62.5 -153.5t-152.5 -63.5h-355q-90 0 -154.5 63.5t-64.5 153.5zM322 258 q0 -37 25.5 -61.5t62.5 -24.5h237q37 0 61.5 24.5t24.5 61.5v234q0 65 -86 98q-102 41 -237 41q-88 0 -88 -86v-287z" />
<glyph unicode="&#xf1;" d="M154 0v971h184v-70q211 90 364 90q100 0 160 -60.5t60 -156.5v-774h-189v721q0 86 -88 86q-80 0 -217 -55q-86 -33 -86 -88v-664h-188zM289 1151l43 90q20 45 64 62.5t91 -3.5l146 -69q29 -12 41 16l33 68l110 -53l-41 -88q-23 -45 -65.5 -62.5t-89.5 2.5l-146 68 q-29 12 -43 -15l-31 -67z" />
<glyph unicode="&#xf2;" horiz-adv-x="1056" d="M133 217v537q0 90 62.5 153.5t152.5 63.5h357q90 0 154.5 -63.5t64.5 -153.5v-537q0 -90 -64.5 -153.5t-154.5 -63.5h-357q-90 0 -152.5 63.5t-62.5 153.5zM315 1317l88 102l248 -221l-86 -100zM322 258q0 -37 24.5 -61.5t61.5 -24.5h239q37 0 62.5 24.5t25.5 61.5v455 q0 37 -25.5 61.5t-62.5 24.5h-239q-37 0 -61.5 -24.5t-24.5 -61.5v-455z" />
<glyph unicode="&#xf3;" horiz-adv-x="1056" d="M133 217v537q0 90 62.5 153.5t152.5 63.5h357q90 0 154.5 -63.5t64.5 -153.5v-537q0 -90 -64.5 -153.5t-154.5 -63.5h-357q-90 0 -152.5 63.5t-62.5 153.5zM322 258q0 -37 24.5 -61.5t61.5 -24.5h239q37 0 62.5 24.5t25.5 61.5v455q0 37 -25.5 61.5t-62.5 24.5h-239 q-37 0 -61.5 -24.5t-24.5 -61.5v-455zM412 1198l247 221l89 -102l-250 -219z" />
<glyph unicode="&#xf4;" horiz-adv-x="1056" d="M133 217v537q0 90 62.5 153.5t152.5 63.5h357q90 0 154.5 -63.5t64.5 -153.5v-537q0 -90 -64.5 -153.5t-154.5 -63.5h-357q-90 0 -152.5 63.5t-62.5 153.5zM266 1169l262 242l265 -242l-80 -90l-185 166l-184 -166zM322 258q0 -37 24.5 -61.5t61.5 -24.5h239 q37 0 62.5 24.5t25.5 61.5v455q0 37 -25.5 61.5t-62.5 24.5h-239q-37 0 -61.5 -24.5t-24.5 -61.5v-455z" />
<glyph unicode="&#xf5;" horiz-adv-x="1056" d="M133 217v537q0 90 62.5 153.5t152.5 63.5h357q90 0 154.5 -63.5t64.5 -153.5v-537q0 -90 -64.5 -153.5t-154.5 -63.5h-357q-90 0 -152.5 63.5t-62.5 153.5zM270 1151l43 90q20 45 64.5 62.5t91.5 -3.5l145 -69q29 -12 41 16l33 68l111 -53l-41 -88q-23 -45 -66 -62.5 t-90 2.5l-145 68q-29 12 -43 -15l-31 -67zM322 258q0 -37 24.5 -61.5t61.5 -24.5h239q37 0 62.5 24.5t25.5 61.5v455q0 37 -25.5 61.5t-62.5 24.5h-239q-37 0 -61.5 -24.5t-24.5 -61.5v-455z" />
<glyph unicode="&#xf6;" horiz-adv-x="1056" d="M133 217v537q0 90 62.5 153.5t152.5 63.5h357q90 0 154.5 -63.5t64.5 -153.5v-537q0 -90 -64.5 -153.5t-154.5 -63.5h-357q-90 0 -152.5 63.5t-62.5 153.5zM264 1124v203h162v-203h-162zM322 258q0 -37 24.5 -61.5t61.5 -24.5h239q37 0 62.5 24.5t25.5 61.5v455 q0 37 -25.5 61.5t-62.5 24.5h-239q-37 0 -61.5 -24.5t-24.5 -61.5v-455zM631 1124v203h162v-203h-162z" />
<glyph unicode="&#xf7;" horiz-adv-x="1122" d="M133 584v155h856v-155h-856zM459 158v262h205v-262h-205zM459 903v262h205v-262h-205z" />
<glyph unicode="&#xf8;" horiz-adv-x="1056" d="M133 -55l70 110q-70 63 -70 162v537q0 90 62.5 153.5t152.5 63.5h357q45 0 75 -15l76 117l68 -45l-74 -113q74 -68 74 -161v-537q0 -90 -64.5 -153.5t-154.5 -63.5h-357q-41 0 -74 12l-73 -114zM322 242l354 553q-16 4 -29 4h-239q-37 0 -61.5 -24.5t-24.5 -61.5v-471z M379 176q8 -4 29 -4h239q37 0 62.5 24.5t25.5 61.5v455q0 4 -1 10t-1 8z" />
<glyph unicode="&#xf9;" d="M143 197v774h189v-721q0 -86 88 -86q80 0 217 55q86 33 86 88v664h188v-971h-184v70q-211 -90 -365 -90q-100 0 -159.5 60t-59.5 157zM305 1317l88 102l248 -221l-86 -100z" />
<glyph unicode="&#xfa;" d="M143 197v774h189v-721q0 -86 88 -86q80 0 217 55q86 33 86 88v664h188v-971h-184v70q-211 -90 -365 -90q-100 0 -159.5 60t-59.5 157zM412 1198l247 221l89 -102l-250 -219z" />
<glyph unicode="&#xfb;" d="M143 197v774h189v-721q0 -86 88 -86q80 0 217 55q86 33 86 88v664h188v-971h-184v70q-211 -90 -365 -90q-100 0 -159.5 60t-59.5 157zM266 1169l262 242l265 -242l-80 -90l-185 166l-184 -166z" />
<glyph unicode="&#xfc;" d="M143 197v774h189v-721q0 -86 88 -86q80 0 217 55q86 33 86 88v664h188v-971h-184v70q-211 -90 -365 -90q-100 0 -159.5 60t-59.5 157zM270 1124v203h162v-203h-162zM637 1124v203h162v-203h-162z" />
<glyph unicode="&#xfd;" horiz-adv-x="913" d="M31 971h200l228 -725l231 725h197l-328 -971l-129 -389h-188l118 391zM342 1198l248 221l88 -102l-250 -219z" />
<glyph unicode="&#xfe;" horiz-adv-x="1054" d="M154 -389v1753h184v-463q211 90 364 90q100 0 160 -60.5t60 -156.5v-577q0 -96 -59.5 -156.5t-160.5 -60.5q-150 0 -360 88v-457h-188zM342 301q0 -53 86 -86q137 -55 217 -55q88 0 88 86v479q0 86 -88 86q-80 0 -217 -55q-86 -33 -86 -88v-367z" />
<glyph unicode="&#xff;" horiz-adv-x="913" d="M31 971h200l228 -725l231 725h197l-328 -971l-129 -389h-188l118 391zM195 1124v203h161v-203h-161zM561 1124v203h162v-203h-162z" />
<glyph unicode="&#x152;" horiz-adv-x="1796" d="M154 225v914q0 94 64.5 159.5t158.5 65.5h1294v-180h-608v-398h553v-180h-553v-426h610v-180h-1296q-94 0 -158.5 65.5t-64.5 159.5zM348 266q0 -37 25.5 -61.5t62.5 -24.5h432v1004h-432q-37 0 -62.5 -24.5t-25.5 -61.5v-832z" />
<glyph unicode="&#x153;" horiz-adv-x="1615" d="M133 217v537q0 90 62.5 153.5t152.5 63.5h357q78 0 122 -68q18 27 53 47.5t70 20.5h326q90 0 153.5 -63.5t63.5 -153.5v-322h-569v-182q0 -35 25.5 -59.5t60.5 -24.5h213q37 0 61.5 24.5t24.5 61.5v41h182v-78q0 -90 -62.5 -152.5t-152.5 -62.5h-326q-70 0 -123 66 q-49 -66 -122 -66h-357q-90 0 -152.5 63.5t-62.5 153.5zM322 258q0 -37 24.5 -61.5t61.5 -24.5h239q37 0 62.5 24.5t25.5 61.5v461q-2 35 -27.5 57.5t-60.5 22.5h-239q-37 0 -61.5 -24.5t-24.5 -61.5v-455zM924 590h387v131q0 37 -25.5 61.5t-60.5 24.5h-215 q-35 0 -59.5 -22.5t-26.5 -57.5v-137z" />
<glyph unicode="&#x178;" horiz-adv-x="1028" d="M0 1364h207l307 -602l307 602h207l-416 -819v-545h-196v545zM250 1505v203h162v-203h-162zM616 1505v203h162v-203h-162z" />
<glyph unicode="&#x2c6;" horiz-adv-x="956" d="M215 1169l262 242l264 -242l-79 -90l-185 166l-184 -166z" />
<glyph unicode="&#x2dc;" horiz-adv-x="958" d="M215 1151l43 90q20 45 64.5 62.5t91.5 -3.5l145 -69q29 -12 41 16l33 68l110 -53l-41 -88q-23 -45 -65.5 -62.5t-89.5 2.5l-146 68q-29 12 -43 -15l-30 -67z" />
<glyph unicode="&#x2000;" horiz-adv-x="902" />
<glyph unicode="&#x2001;" horiz-adv-x="1804" />
<glyph unicode="&#x2002;" horiz-adv-x="902" />
<glyph unicode="&#x2003;" horiz-adv-x="1804" />
<glyph unicode="&#x2004;" horiz-adv-x="601" />
<glyph unicode="&#x2005;" horiz-adv-x="451" />
<glyph unicode="&#x2006;" horiz-adv-x="300" />
<glyph unicode="&#x2007;" horiz-adv-x="300" />
<glyph unicode="&#x2008;" horiz-adv-x="225" />
<glyph unicode="&#x2009;" horiz-adv-x="360" />
<glyph unicode="&#x200a;" horiz-adv-x="100" />
<glyph unicode="&#x2010;" horiz-adv-x="679" d="M92 512v164h496v-164h-496z" />
<glyph unicode="&#x2011;" horiz-adv-x="679" d="M92 512v164h496v-164h-496z" />
<glyph unicode="&#x2012;" horiz-adv-x="679" d="M92 512v164h496v-164h-496z" />
<glyph unicode="&#x2013;" horiz-adv-x="913" d="M92 512v164h729v-164h-729z" />
<glyph unicode="&#x2014;" horiz-adv-x="1200" d="M92 512v164h1016v-164h-1016z" />
<glyph unicode="&#x2018;" horiz-adv-x="450" d="M123 881v252l127 249l98 -51l-100 -198h86v-252h-211z" />
<glyph unicode="&#x2019;" horiz-adv-x="430" d="M102 913l101 199h-86v252h211v-252l-127 -250z" />
<glyph unicode="&#x201a;" horiz-adv-x="481" d="M123 -199l100 199h-86v252h211v-252l-127 -250z" />
<glyph unicode="&#x201c;" horiz-adv-x="823" d="M123 881v252l127 249l98 -51l-100 -198h86v-252h-211zM496 881v252l127 249l98 -51l-100 -198h86v-252h-211z" />
<glyph unicode="&#x201d;" horiz-adv-x="823" d="M102 913l101 199h-86v252h211v-252l-127 -250zM475 913l100 199h-86v252h211v-252l-127 -250z" />
<glyph unicode="&#x201e;" horiz-adv-x="854" d="M123 -199l100 199h-86v252h211v-252l-127 -250zM496 -199l100 199h-86v252h211v-252l-127 -250z" />
<glyph unicode="&#x2022;" horiz-adv-x="731" d="M143 659q0 90 65.5 156t156.5 66q92 0 157.5 -65.5t65.5 -156.5q0 -92 -65.5 -157.5t-157.5 -65.5q-90 0 -156 65.5t-66 157.5z" />
<glyph unicode="&#x2026;" horiz-adv-x="1554" d="M154 0v252h211v-252h-211zM672 0v252h211v-252h-211zM1190 0v252h211v-252h-211z" />
<glyph unicode="&#x202f;" horiz-adv-x="360" />
<glyph unicode="&#x2039;" horiz-adv-x="632" d="M92 487l283 410l125 -80l-232 -330l232 -329l-125 -76z" />
<glyph unicode="&#x203a;" horiz-adv-x="632" d="M133 158l229 329l-229 330l125 80l283 -410l-283 -405z" />
<glyph unicode="&#x205f;" horiz-adv-x="451" />
<glyph unicode="&#x20ac;" horiz-adv-x="1159" d="M84 453v127h152v188h-152v127h152v252q0 90 62 153.5t153 63.5h346q92 0 155.5 -63.5t63.5 -153.5v-186h-176v155q0 37 -24.5 61.5t-61.5 24.5h-244q-37 0 -61.5 -24.5t-24.5 -61.5v-221h274v-127h-274v-188h274v-127h-274v-205q0 -37 24.5 -61.5t61.5 -24.5h244 q37 0 61.5 24.5t24.5 61.5v168h176v-199q0 -90 -63.5 -153.5t-155.5 -63.5h-346q-90 0 -152.5 63.5t-62.5 153.5v236h-152z" />
<glyph unicode="&#x2122;" horiz-adv-x="1359" d="M113 1272v92h458v-92h-180v-518h-98v518h-180zM672 754v610h96l176 -373l176 373h97v-610h-99v401l-131 -291h-84l-133 289v-399h-98z" />
<glyph unicode="&#xe000;" horiz-adv-x="972" d="M0 0v973h973v-973h-973z" />
</font>
</defs>
</svg>
